<svg id="Layer_1" data-name="Layer 1" xmlns="http://www.w3.org/2000/svg" xmlns:xlink="http://www.w3.org/1999/xlink" viewBox="0 0 523.48 498.38"><defs><style>.cls-1,.cls-17{fill:none;}.cls-2{fill:url(#linear-gradient);}.cls-3{fill:#2d2d2d;}.cls-4{fill:#7a7a7a;}.cls-5{fill:#4c4c4c;}.cls-6{fill:url(#linear-gradient-2);}.cls-7{fill:url(#linear-gradient-3);}.cls-8{fill:#5b5b5b;}.cls-9{fill:url(#linear-gradient-4);}.cls-10{fill:url(#linear-gradient-5);}.cls-11{fill:#191919;}.cls-12{clip-path:url(#clip-path);}.cls-13{fill:#def1ff;}.cls-14{opacity:0.61;}.cls-15{fill:#b3e2ff;}.cls-16,.cls-18{fill:#fff;}.cls-17{stroke:#def1ff;stroke-linecap:round;stroke-linejoin:round;stroke-width:0;}.cls-18{opacity:0.39;}</style><linearGradient id="linear-gradient" x1="163.93" y1="365.66" x2="358.99" y2="365.66" gradientUnits="userSpaceOnUse"><stop offset="0" stop-color="#dbdbdb"/><stop offset="0.01" stop-color="#bcbcbc"/><stop offset="0.02" stop-color="#969696"/><stop offset="0.04" stop-color="#767676"/><stop offset="0.05" stop-color="#5b5b5b"/><stop offset="0.07" stop-color="#474747"/><stop offset="0.09" stop-color="#383838"/><stop offset="0.11" stop-color="#303030"/><stop offset="0.15" stop-color="#2d2d2d"/><stop offset="0.33" stop-color="#2f2f2f"/><stop offset="0.39" stop-color="#363636"/><stop offset="0.44" stop-color="#414141"/><stop offset="0.48" stop-color="#525252"/><stop offset="0.51" stop-color="#686868"/><stop offset="0.54" stop-color="#838383"/><stop offset="0.55" stop-color="#909090"/><stop offset="0.59" stop-color="#6a6a6a"/><stop offset="0.64" stop-color="#4a4a4a"/><stop offset="0.69" stop-color="#2f2f2f"/><stop offset="0.75" stop-color="#1a1a1a"/><stop offset="0.81" stop-color="#0b0b0b"/><stop offset="0.88" stop-color="#030303"/><stop offset="1"/></linearGradient><linearGradient id="linear-gradient-2" x1="229.45" y1="316.03" x2="364.49" y2="316.03" gradientUnits="userSpaceOnUse"><stop offset="0" stop-color="#838383"/><stop offset="0.06" stop-color="#707070"/><stop offset="0.18" stop-color="#3f3f3f"/><stop offset="0.22" stop-color="#2d2d2d"/><stop offset="0.63" stop-color="#2b2b2b"/><stop offset="0.78" stop-color="#242424"/><stop offset="0.89" stop-color="#191919"/><stop offset="0.97" stop-color="#080808"/><stop offset="1"/></linearGradient><linearGradient id="linear-gradient-3" x1="229.43" y1="325.6" x2="364.74" y2="325.6" gradientTransform="translate(41.58 -33.55) rotate(6.95)" xlink:href="#linear-gradient-2"/><linearGradient id="linear-gradient-4" x1="676.34" y1="279.18" x2="746" y2="300.22" gradientTransform="matrix(1, 0, 0.18, 1, -421.55, 0)" gradientUnits="userSpaceOnUse"><stop offset="0" stop-color="#5b5b5b"/><stop offset="0.07" stop-color="#484848"/><stop offset="0.21" stop-color="#1a1a1a"/></linearGradient><linearGradient id="linear-gradient-5" x1="341.94" y1="187.85" x2="325.43" y2="281.48" gradientUnits="userSpaceOnUse"><stop offset="0" stop-color="#4c4c4c"/><stop offset="0.05" stop-color="#3f3f3f"/><stop offset="0.14" stop-color="#313131"/><stop offset="0.21" stop-color="#2d2d2d"/></linearGradient><clipPath id="clip-path"><path class="cls-1" d="M258.64,269.31l-117.9-67.26c-10.1-5.84-14.13-7.59-7.2-27.53l21.16-60.58c2.85-6.2,5-15.28,16.44-10l1.32.72,105.76,58.74c17.4,10.37,25.17,12.26,19.87,29.65L277,255.42C271.71,269.66,268.74,275.14,258.64,269.31Z"/></clipPath></defs><title>Artboard 9 copy 3</title><path class="cls-2" d="M315.23,389.18l43-32c1-.78,1-1.81,0-2.41l-25.61-14.79-26.12-15.08-25.62-14.79a5,5,0,0,0-4.17,0l-55.49,24.81a3.81,3.81,0,0,0-.57.3l-55.76,39.05c-1.19.79-1.25,1.88-.15,2.52l6.35,3.66a5.08,5.08,0,0,0,4.56-.18l44.09-24.94a5.06,5.06,0,0,1,4.55-.19l14.92,8.61,26.12,15.08,14.91,8.61c1.17.67,1,1.85-.33,2.63L235.79,415c-1.35.77-1.5,1.95-.33,2.63l6.35,3.66a5,5,0,0,0,4.35-.08l68.55-31.68A4.22,4.22,0,0,0,315.23,389.18Z"/><path class="cls-3" d="M347.29,347.61l10.89,7c1.05.61,1.05,1.63,0,2.41l-43,32a2.76,2.76,0,0,1-.53.32L246.14,421a5.06,5.06,0,0,1-4.36.08l-6.34-3.66c-1.17-.68-1-1.85.33-2.63l44.09-24.94c1.35-.78,1.49-1.95.33-2.63"/><rect class="cls-3" x="234.69" y="405.72" width="11.07" height="10.93"/><rect class="cls-3" x="347.92" y="344.74" width="11.07" height="10.93"/><path class="cls-4" d="M163.93,364.58v10.88a1.68,1.68,0,0,0,.78,1.29l6.45,3.7.45-11.93Z"/><path class="cls-5" d="M315.23,378.29l43-32c1-.78,1-1.8,0-2.41l-25.61-14.79L306.47,314l-25.62-14.79a5,5,0,0,0-4.17,0L221.19,324a3.09,3.09,0,0,0-.57.31l-55.76,39.05c-1.19.78-1.25,1.88-.15,2.51l6.35,3.67a5.08,5.08,0,0,0,4.56-.19l44.09-24.94a5.06,5.06,0,0,1,4.55-.19l14.92,8.61L265.3,367.9l14.91,8.61c1.17.68,1,1.85-.33,2.63l-44.09,24.94c-1.35.78-1.5,1.95-.33,2.63l6.35,3.66a5,5,0,0,0,4.35-.08l68.55-31.68A2.68,2.68,0,0,0,315.23,378.29Z"/><polygon class="cls-6" points="229.45 314.39 229.45 332.12 364.49 316.77 364.49 299.94 229.45 314.39"/><ellipse class="cls-7" cx="297.09" cy="325.6" rx="67.99" ry="38.47" transform="translate(-37.21 38.33) rotate(-6.95)"/><ellipse class="cls-5" cx="297.09" cy="308.76" rx="67.99" ry="38.47" transform="translate(-35.17 38.21) rotate(-6.95)"/><polygon class="cls-8" points="307.74 259.33 296.15 358.79 223.16 317.1 209.55 202.72 307.74 259.33"/><path class="cls-9" d="M306.94,258.15a21.85,21.85,0,0,0,13,4.18c8.18.14,62.87-36.62,62.87-36.62s2.69-1.16,3.25-5.4-11.21,99-11.21,99a6.17,6.17,0,0,1-2.85,5.94c-3.5,2.36-52.38,33.78-52.38,33.78s-7.3,3.47-11.8,3.07a51.61,51.61,0,0,1-9.85-2.16l-3.77-2.31Z"/><path class="cls-8" d="M211.63,204.81l-8.3-4.73s-2-.49-4.72-5.47c1.72,7.11,13.93,113.32,13.93,113.32s-.47,3.92,10.62,9.17C220.4,295.84,211.63,204.81,211.63,204.81Z"/><path class="cls-5" d="M309,260.18l-105.67-60.1c-6.14-3.21-6.43-8.88-.66-12.59l51.13-32.86c5.77-3.71,15.51-4.12,21.65-.91l105.67,60.1c6.13,3.22,6.43,8.89.66,12.6l-51.13,32.86C324.88,263,315.13,263.4,309,260.18Z"/><polygon class="cls-5" points="168.1 102.44 301.4 144.52 400.3 199.68 301.48 183.44 168.1 102.44"/><path class="cls-10" d="M396.29,198a4.44,4.44,0,0,1,3.47,5.61l-.38,1.32-13,44.74a2.7,2.7,0,0,1-2.15,1.92l-117.6,19.57L291.68,179l104.61,19Z"/><path class="cls-11" d="M258.64,269.31l-117.9-67.26c-10.1-5.84-14.13-7.59-7.2-27.53l21.16-60.58c2.86-6.22,5.29-15.61,16.8-10.26l106.72,59.67c17.4,10.37,25.17,12.26,19.87,29.65L277,255.42C271.71,269.66,268.74,275.14,258.64,269.31Z"/><g class="cls-12"><path class="cls-13" d="M265.38,267.28,147.49,200c-10.11-5.83-14.14-7.58-7.21-27.52l21.17-60.58c2.85-6.22,5.28-15.61,16.79-10.27L285,161.33c17.4,10.37,25.17,12.26,19.87,29.65l-21.08,62.41C278.45,267.64,275.48,273.12,265.38,267.28Z"/><g class="cls-14"><path class="cls-15" d="M289.48,205.82c1.91,1.39,2.42,4.28,1,7.88-2.16,5.6-8.07,10.8-13.21,11.61-2.28.36-4-.21-5.06-1.45-1.31-1.54-1.53-4.13-.33-7.24,2.16-5.6,8.07-10.79,13.21-11.6a6.23,6.23,0,0,1,3.66.39A4.43,4.43,0,0,1,289.48,205.82Z"/><path class="cls-16" d="M187.33,145.94l101.45,59.47a6.23,6.23,0,0,0-3.66-.39c-5.14.81-11.05,6-13.21,11.6-1.2,3.11-1,5.7.33,7.24h0L171.75,164.62a7.3,7.3,0,0,0,2.56,0c5.14-.8,11.05-6,13.21-11.6C188.68,150,188.52,147.5,187.33,145.94Z"/><path class="cls-16" d="M187.32,145.93h0c1.19,1.56,1.35,4.07.19,7.09-2.16,5.6-8.07,10.8-13.21,11.6a7.3,7.3,0,0,1-2.56,0,4.27,4.27,0,0,1-2.57-1.52c-1.25-1.55-1.44-4.09-.26-7.15,2.16-5.6,8.07-10.8,13.21-11.6C184.5,144,186.28,144.6,187.32,145.93Z"/><line class="cls-17" x1="272.23" y1="223.86" x2="171.75" y2="164.62"/><line class="cls-17" x1="169.18" y1="163.1" x2="169.16" y2="163.09"/><line class="cls-17" x1="289.48" y1="205.82" x2="289.55" y2="205.86"/></g><polygon class="cls-18" points="187.31 106.73 153.87 203.66 160.64 207.53 195.06 111.06 187.31 106.73"/><polygon class="cls-18" points="283.8 161.03 250.35 257.97 257.12 261.83 291.55 165.37 283.8 161.03"/><polygon class="cls-18" points="199.56 113.55 165.96 210.24 181.78 219.57 216.68 123.15 199.56 113.55"/><polygon class="cls-18" points="220.66 125.38 187.11 222.63 190.22 224.4 224.74 127.66 220.66 125.38"/><polygon class="cls-18" points="253.84 144.56 220.23 241.24 236.05 250.57 270.95 154.15 253.84 144.56"/></g><path class="cls-16" d="M235.48,268.91a4.23,4.23,0,0,1,.58,1.07v-3.19l1.33.77v9.05l-1.27-.73V275a1,1,0,0,1-.65.49,1.42,1.42,0,0,1-.89-.24,3.91,3.91,0,0,1-1.49-1.81,6.6,6.6,0,0,1-.6-2.79,3.51,3.51,0,0,1,.6-2.36c.39-.43.92-.45,1.58-.07A2.58,2.58,0,0,1,235.48,268.91Zm.33,5a2.18,2.18,0,0,0,.29-1.27,4,4,0,0,0-.47-2,1.87,1.87,0,0,0-.66-.7c-.39-.23-.67-.19-.85.09a2.43,2.43,0,0,0-.27,1.29,4.62,4.62,0,0,0,.27,1.64,2,2,0,0,0,.84,1C235.33,274.15,235.61,274.13,235.81,273.88Z"/><path class="cls-16" d="M242.57,272.09l-1.34-.77V269.7l1.34.77Zm-1.34,0,1.34.77v6.71l-1.34-.77Z"/><path class="cls-16" d="M249,276.57a4.25,4.25,0,0,1,.77,1.42v-1l1.28.74v6.36a3.42,3.42,0,0,1-.32,1.77q-.57.81-2.16-.12a4.89,4.89,0,0,1-1.58-1.41,3.61,3.61,0,0,1-.67-1.9l1.43.83a1.69,1.69,0,0,0,.18.55,1.89,1.89,0,0,0,.71.65c.48.27.8.25,1-.08a3.25,3.25,0,0,0,.16-1.28v-.43a.93.93,0,0,1-.4.41,1.13,1.13,0,0,1-1-.19,3.81,3.81,0,0,1-1.55-1.8,6.48,6.48,0,0,1-.58-2.79,3.42,3.42,0,0,1,.56-2.19c.37-.47.89-.5,1.58-.11A2.85,2.85,0,0,1,249,276.57Zm.44,5.07c.22-.18.32-.62.32-1.29a4,4,0,0,0-.3-1.63,2,2,0,0,0-.81-1c-.46-.27-.77-.16-1,.31a3.31,3.31,0,0,0-.14,1.06,4.22,4.22,0,0,0,.15,1.13,2.18,2.18,0,0,0,1,1.4A.6.6,0,0,0,249.4,281.64Z"/><path class="cls-16" d="M256.22,280l-1.33-.77v-1.61l1.33.77Zm-1.33,0,1.33.77v6.71l-1.33-.77Z"/><path class="cls-16" d="M259.6,284v-1.25l.7.4v-1.87l1.31.76V284l.81.47v1.25l-.81-.48v3.55a1.45,1.45,0,0,0,.07.56,1.55,1.55,0,0,0,.48.38l.13.07.13.06v1.31l-.62-.32a2.81,2.81,0,0,1-1.27-1.17,2.27,2.27,0,0,1-.23-1.06v-4.13Z"/><path class="cls-16" d="M267.88,290.14a1.67,1.67,0,0,0,.53.15c.19,0,.28-.11.28-.34a1.13,1.13,0,0,0-.21-.69,2.18,2.18,0,0,0-.64-.53c-.32-.18-.54-.21-.67-.08a.94.94,0,0,0-.19.51l-1.27-.73a2,2,0,0,1,.37-1.23q.53-.58,1.8.15a5.29,5.29,0,0,1,1.48,1.29,3.17,3.17,0,0,1,.64,2v3.07c0,.22,0,.48,0,.78a1.52,1.52,0,0,0,.08.52,1.3,1.3,0,0,0,.19.31v.26l-1.43-.83a2.55,2.55,0,0,1-.08-.42c0-.13,0-.28,0-.43a1.32,1.32,0,0,1-.63.3,1.38,1.38,0,0,1-1-.23,3.11,3.11,0,0,1-1.13-1.17,3.41,3.41,0,0,1-.45-1.73q0-1.24.72-1.38a2.25,2.25,0,0,1,1.16.24Zm.81,1.28a.76.76,0,0,1-.26,0,1.27,1.27,0,0,1-.35-.08l-.3-.1a1.34,1.34,0,0,0-.6-.11c-.21,0-.31.23-.31.57a1.37,1.37,0,0,0,.19.75,1.22,1.22,0,0,0,.46.47.93.93,0,0,0,.79.13c.24-.09.37-.42.38-1Z"/><path class="cls-16" d="M275.12,298.39l-1.32-.76v-9.07l1.32.76Z"/></svg>