<svg xmlns="http://www.w3.org/2000/svg" xmlns:xlink="http://www.w3.org/1999/xlink" viewBox="0 0 523.48 498.38"><defs><style>.cls-1,.cls-20,.cls-23,.cls-28{fill:none;}.cls-2{isolation:isolate;}.cls-3{fill:#2d2d2d;}.cls-4{fill:#1c1c1c;}.cls-5{fill:#3a3a3a;}.cls-6,.cls-8{fill:#020202;}.cls-28,.cls-6{stroke:#fff;stroke-width:2px;}.cls-20,.cls-23,.cls-28,.cls-6{stroke-miterlimit:10;}.cls-7{clip-path:url(#clip-path);}.cls-9{fill:#333;}.cls-10{fill:#bcbcbc;}.cls-11,.cls-29{fill:#fff;}.cls-12{fill:#191919;}.cls-13{fill:#636363;}.cls-14{fill:url(#linear-gradient);}.cls-15{fill:url(#linear-gradient-2);}.cls-16{fill:#848484;}.cls-17{fill:url(#linear-gradient-3);}.cls-18{fill:#444;}.cls-19{fill:#757575;}.cls-20{stroke:#020202;}.cls-21{clip-path:url(#clip-path-2);}.cls-22{fill:#111;}.cls-23{stroke:#050505;stroke-width:0.75px;}.cls-24{fill:url(#radial-gradient);}.cls-25{opacity:0.15;fill:url(#radial-gradient-2);}.cls-25,.cls-26,.cls-27,.cls-28{mix-blend-mode:screen;}.cls-26{opacity:0.5;fill:url(#radial-gradient-3);}.cls-27{fill:url(#radial-gradient-4);}.cls-28{opacity:0.03;}.cls-29{font-size:7.46px;font-family:Helvetica-Bold, Helvetica;font-weight:700;}</style><clipPath id="clip-path"><path class="cls-1" d="M411.09,247.17l-19,11c-1.29.74-2.35-.06-2.35-1.78v-6a5.64,5.64,0,0,1,2.35-4.49l19-11c1.3-.74,2.36.06,2.36,1.78v6A5.67,5.67,0,0,1,411.09,247.17Z"/></clipPath><linearGradient id="linear-gradient" x1="160.39" y1="264.46" x2="313.29" y2="264.46" gradientTransform="translate(122.46 -71.62) rotate(23.05)" gradientUnits="userSpaceOnUse"><stop offset="0" stop-color="#505050"/><stop offset="0.28" stop-color="#4c4c4c"/><stop offset="0.58" stop-color="#3f3f3f"/><stop offset="0.88" stop-color="#2b2b2b"/><stop offset="1" stop-color="#202020"/></linearGradient><linearGradient id="linear-gradient-2" x1="171.4" y1="268.31" x2="286.83" y2="268.31" gradientTransform="matrix(1, 0, 0, 1, 0, 0)" xlink:href="#linear-gradient"/><linearGradient id="linear-gradient-3" x1="147.17" y1="272.63" x2="294.97" y2="272.63" gradientTransform="translate(124.4 -64.79) rotate(23.05)" xlink:href="#linear-gradient"/><clipPath id="clip-path-2"><path class="cls-1" d="M249.72,302.84c0,31.94-19.44,46.63-43.37,32.81s-43.32-50.91-43.3-82.86c0-17.92,6.12-30.41,15.72-35.48,7.5-4,17.14-3.4,27.64,2.67C230.35,233.79,249.74,270.89,249.72,302.84Z"/></clipPath><radialGradient id="radial-gradient" cx="212.72" cy="279.57" r="30.02" gradientTransform="translate(0 -559.15) scale(1 3)" gradientUnits="userSpaceOnUse"><stop offset="0" stop-color="#cce0f4"/><stop offset="0.06" stop-color="#c3dcf2"/><stop offset="0.17" stop-color="#a9d2ee"/><stop offset="0.31" stop-color="#80c2e7"/><stop offset="0.46" stop-color="#47acde"/><stop offset="0.57" stop-color="#1e9cd7"/><stop offset="0.87" stop-color="#0075be"/><stop offset="0.99" stop-color="#005b97"/></radialGradient><radialGradient id="radial-gradient-2" cx="344.76" cy="121.74" r="11.45" gradientTransform="matrix(0.6, 0.8, -0.45, 1.06, 60.52, -125.3)" gradientUnits="userSpaceOnUse"><stop offset="0" stop-color="#230000"/><stop offset="0.73" stop-color="#93432a"/><stop offset="1" stop-color="#230000"/></radialGradient><radialGradient id="radial-gradient-3" cx="344.76" cy="121.74" r="5.73" gradientTransform="matrix(0.6, 0.8, -0.45, 1.06, 60.52, -125.3)" gradientUnits="userSpaceOnUse"><stop offset="0.15" stop-color="#fff"/><stop offset="0.21" stop-color="#e2d1d2"/><stop offset="0.29" stop-color="#bf9a9c"/><stop offset="0.36" stop-color="#a67276"/><stop offset="0.42" stop-color="#975a5e"/><stop offset="0.45" stop-color="#915155"/><stop offset="0.56" stop-color="#6c3638"/><stop offset="0.68" stop-color="#44191a"/><stop offset="0.79" stop-color="#2c0707"/><stop offset="0.85" stop-color="#230000"/><stop offset="0.86" stop-color="#270201"/><stop offset="0.86" stop-color="#340805"/><stop offset="0.87" stop-color="#48120b"/><stop offset="0.88" stop-color="#652114"/><stop offset="0.89" stop-color="#8b331f"/><stop offset="0.9" stop-color="#b8492d"/><stop offset="0.9" stop-color="#d65836"/><stop offset="0.9" stop-color="#c95232"/><stop offset="0.91" stop-color="#9d3c25"/><stop offset="0.93" stop-color="#782a1a"/><stop offset="0.94" stop-color="#591b10"/><stop offset="0.95" stop-color="#410f09"/><stop offset="0.97" stop-color="#300604"/><stop offset="0.98" stop-color="#260201"/><stop offset="1" stop-color="#230000"/></radialGradient><radialGradient id="radial-gradient-4" cx="344.76" cy="121.74" r="4.77" gradientTransform="matrix(0.6, 0.8, -0.45, 1.06, 60.52, -125.3)" gradientUnits="userSpaceOnUse"><stop offset="0.15" stop-color="#fff"/><stop offset="0.28" stop-color="#c2c2c2"/><stop offset="0.43" stop-color="#888"/><stop offset="0.56" stop-color="#575757"/><stop offset="0.69" stop-color="#313131"/><stop offset="0.81" stop-color="#161616"/><stop offset="0.92" stop-color="#060606"/><stop offset="1"/></radialGradient></defs><title>Artboard 9 copy 4</title><g class="cls-2"><g id="Layer_1" data-name="Layer 1"><polygon class="cls-3" points="313.15 122.45 326.74 114.14 405.37 282.99 387.34 293.54 313.15 122.45"/><path class="cls-4" d="M424.45,235c0,44.76-27.21,65.33-60.78,46s-60.78-71.37-60.78-116.13c0-25.1,8.57-42.6,22-49.7,10.52-5.56,24-4.75,38.76,3.76C397.24,138.22,424.45,190.21,424.45,235Z"/><path class="cls-5" d="M412.69,242.33c0,44.76-27.21,65.33-60.78,45.95s-60.77-71.37-60.77-116.12c0-25.11,8.56-42.61,22-49.71,10.52-5.56,24-4.75,38.76,3.76C385.48,145.59,412.69,197.58,412.69,242.33Z"/><polygon class="cls-3" points="277.66 131.14 307.5 114.07 393.09 297.86 358.42 317.87 277.66 131.14"/><path class="cls-3" d="M414.85,245.08c0,48.71-29.62,71.1-66.15,50s-66.15-77.68-66.15-126.4c0-27.33,9.32-46.37,24-54.1,11.45-6,26.15-5.17,42.19,4.09C385.23,139.78,414.85,196.37,414.85,245.08Z"/><path class="cls-5" d="M386,261.63c0,48.71-29.62,71.1-66.15,50S253.7,234,253.7,185.24c0-27.33,9.33-46.37,24-54.1,11.45-6,26.16-5.17,42.2,4.09C356.39,156.33,386,212.91,386,261.63Z"/><polygon class="cls-3" points="263.76 139.98 278.55 130.93 364.14 314.72 344.52 326.21 263.76 139.98"/><path class="cls-3" d="M384.91,262.45c0,48.71-29.62,71.1-66.16,50s-66.15-77.69-66.15-126.4c0-27.33,9.32-46.37,24-54.1,11.45-6.05,26.16-5.17,42.19,4.09C355.29,157.14,384.91,213.73,384.91,262.45Z"/><path class="cls-5" d="M372.11,270.47c0,48.71-29.62,71.1-66.15,50S239.8,242.8,239.8,194.08c0-27.32,9.33-46.37,24-54.1,11.45-6,26.16-5.16,42.2,4.09C342.49,165.17,372.11,221.76,372.11,270.47Z"/><line class="cls-6" x1="377.79" y1="247.7" x2="383.4" y2="244.9"/><line class="cls-6" x1="364.14" y1="200.99" x2="369.76" y2="198.19"/><line class="cls-6" x1="341.47" y1="164.32" x2="347.09" y2="161.52"/><line class="cls-6" x1="312.06" y1="138.52" x2="317.67" y2="135.72"/><path class="cls-4" d="M411.09,247.17l-19,11c-1.29.74-2.35-.06-2.35-1.78v-6a5.64,5.64,0,0,1,2.35-4.49l19-11c1.3-.74,2.36.06,2.36,1.78v6A5.67,5.67,0,0,1,411.09,247.17Z"/><g class="cls-7"><path class="cls-8" d="M408.91,246.16l-18.63,10.76c-1.27.73-2.31-.06-2.31-1.75v-5.89a5.52,5.52,0,0,1,2.3-4.41l18.64-10.76c1.27-.74,2.31,0,2.31,1.74v5.89A5.57,5.57,0,0,1,408.91,246.16Z"/></g><path d="M406.08,249.1l-14.47,8.45c-1.29.75-1.85-.05-1.85-1.78v-5c0-1.73.56-3.75,1.85-4.49l14.46-8.45c1.29-.75,2.35,0,2.35,1.78v5A5.63,5.63,0,0,1,406.08,249.1Z"/><path class="cls-9" d="M406.58,249.1l-14.47,8.45c-1.29.75-1.85-.05-1.85-1.78v-5c0-1.73.56-3.75,1.85-4.49l14.46-8.45c1.29-.75,2.35,0,2.35,1.78v5A5.64,5.64,0,0,1,406.58,249.1Z"/><line class="cls-10" x1="400.1" y1="242.51" x2="400.1" y2="252.25"/><polygon class="cls-10" points="400.53 252 399.66 252.5 399.66 242.76 400.53 242.26 400.53 252"/><line class="cls-8" x1="400.41" y1="242.33" x2="400.41" y2="252.06"/><polygon class="cls-11" points="400.85 251.81 399.98 252.31 399.98 242.58 400.85 242.08 400.85 251.81"/><polygon class="cls-3" points="227.13 148.1 259 129.86 350.46 326.24 313.42 347.62 227.13 148.1"/><path class="cls-3" d="M373.71,269.85c0,52-31.64,76-70.68,53.43s-70.69-83-70.69-135c0-29.2,10-49.55,25.6-57.81,12.24-6.46,27.95-5.52,45.09,4.37C342.07,157.33,373.71,217.8,373.71,269.85Z"/><path class="cls-5" d="M342.89,287.53c0,52.05-31.64,76-70.68,53.44s-70.68-83-70.68-135.06c0-29.2,10-49.55,25.59-57.81,12.24-6.46,27.95-5.52,45.09,4.37C311.25,175,342.89,235.48,342.89,287.53Z"/><polyline class="cls-12" points="304.14 135.27 305.02 136.96 276.1 152.19 275.23 150.44 304.14 135.27"/><polygon class="cls-13" points="274.46 151.24 275.23 150.44 276.1 152.19 274.46 151.24"/><polyline class="cls-12" points="307.13 137.21 308.01 138.9 279.09 154.14 278.22 152.38 307.13 137.21"/><polygon class="cls-13" points="277.45 153.19 278.22 152.38 279.09 154.14 277.45 153.19"/><polyline class="cls-12" points="309.9 139.16 310.77 140.85 281.85 156.08 280.98 154.33 309.9 139.16"/><polygon class="cls-13" points="280.21 155.13 280.98 154.33 281.85 156.08 280.21 155.13"/><polyline class="cls-12" points="312.63 141.11 313.51 142.79 284.59 158.03 283.72 156.28 312.63 141.11"/><polygon class="cls-13" points="282.95 157.08 283.72 156.28 284.59 158.03 282.95 157.08"/><polyline class="cls-12" points="315.14 143.05 316.02 144.74 287.1 159.97 286.23 158.22 315.14 143.05"/><polygon class="cls-13" points="285.46 159.03 286.23 158.22 287.1 159.97 285.46 159.03"/><polyline class="cls-12" points="317.77 145 318.64 146.69 289.72 161.92 288.85 160.17 317.77 145"/><polygon class="cls-13" points="288.08 160.97 288.85 160.17 289.72 161.92 288.08 160.97"/><polyline class="cls-12" points="319.6 147.29 320.48 148.97 291.56 164.21 290.69 162.46 319.6 147.29"/><polygon class="cls-13" points="289.92 163.26 290.69 162.46 291.56 164.21 289.92 163.26"/><polyline class="cls-12" points="321.81 149.49 322.68 151.18 293.76 166.41 292.89 164.66 321.81 149.49"/><polygon class="cls-13" points="292.12 165.46 292.89 164.66 293.76 166.41 292.12 165.46"/><polyline class="cls-12" points="324.01 151.69 324.89 153.38 295.97 168.62 295.1 166.86 324.01 151.69"/><polygon class="cls-13" points="294.33 167.67 295.1 166.86 295.97 168.62 294.33 167.67"/><polyline class="cls-12" points="326.21 153.9 327.09 155.59 298.17 170.82 297.3 169.06 326.21 153.9"/><polygon class="cls-13" points="296.53 169.87 297.3 169.06 298.17 170.82 296.53 169.87"/><polyline class="cls-12" points="328.42 156.1 329.29 157.79 300.37 173.02 299.5 171.27 328.42 156.1"/><polygon class="cls-13" points="298.73 172.07 299.5 171.27 300.37 173.02 298.73 172.07"/><polyline class="cls-12" points="330.62 158.3 331.5 159.99 302.58 175.22 301.71 173.47 330.62 158.3"/><polygon class="cls-13" points="300.94 174.28 301.71 173.47 302.58 175.22 300.94 174.28"/><polyline class="cls-12" points="332.35 160.42 333.23 162.1 304.31 177.34 303.44 175.59 332.35 160.42"/><polygon class="cls-13" points="302.67 176.39 303.44 175.59 304.31 177.34 302.67 176.39"/><polyline class="cls-12" points="333.99 162.79 334.87 164.48 305.95 179.72 305.08 177.96 333.99 162.79"/><polygon class="cls-13" points="304.31 178.77 305.08 177.96 305.95 179.72 304.31 178.77"/><polyline class="cls-12" points="335.93 165.15 336.81 166.84 307.89 182.07 307.02 180.32 335.93 165.15"/><polygon class="cls-13" points="306.25 181.13 307.02 180.32 307.89 182.07 306.25 181.13"/><polyline class="cls-12" points="337.87 167.51 338.75 169.19 309.83 184.43 308.96 182.68 337.87 167.51"/><polygon class="cls-13" points="308.19 183.48 308.96 182.68 309.83 184.43 308.19 183.48"/><polyline class="cls-12" points="339.81 169.86 340.69 171.55 311.77 186.78 310.89 185.03 339.81 169.86"/><polygon class="cls-13" points="310.13 185.84 310.89 185.03 311.77 186.78 310.13 185.84"/><polyline class="cls-12" points="341.45 172.3 342.33 173.99 313.41 189.22 312.54 187.47 341.45 172.3"/><polygon class="cls-13" points="311.77 188.27 312.54 187.47 313.41 189.22 311.77 188.27"/><polyline class="cls-12" points="343.09 174.74 343.97 176.42 315.05 191.66 314.18 189.9 343.09 174.74"/><polygon class="cls-13" points="313.41 190.71 314.18 189.9 315.05 191.66 313.41 190.71"/><polyline class="cls-12" points="357.09 322.77 357.96 324.46 329.04 339.69 328.17 337.94 357.09 322.77"/><polygon class="cls-13" points="327.4 338.74 328.17 337.94 329.04 339.69 327.4 338.74"/><polyline class="cls-12" points="344.73 177.17 345.61 178.86 316.69 194.09 315.82 192.34 344.73 177.17"/><polygon class="cls-13" points="315.05 193.15 315.82 192.34 316.69 194.09 315.05 193.15"/><polyline class="cls-12" points="346.37 179.61 347.25 181.3 318.33 196.53 317.46 194.78 346.37 179.61"/><polygon class="cls-13" points="316.69 195.58 317.46 194.78 318.33 196.53 316.69 195.58"/><polyline class="cls-12" points="347.76 182.43 348.64 184.12 319.72 199.35 318.85 197.6 347.76 182.43"/><polygon class="cls-13" points="318.08 198.4 318.85 197.6 319.72 199.35 318.08 198.4"/><polyline class="cls-12" points="349.16 185.25 350.03 186.94 321.11 202.17 320.24 200.42 349.16 185.25"/><polygon class="cls-13" points="319.47 201.23 320.24 200.42 321.11 202.17 319.47 201.23"/><polyline class="cls-12" points="350.87 187.87 351.75 189.56 322.83 204.8 321.96 203.04 350.87 187.87"/><polygon class="cls-13" points="321.19 203.85 321.96 203.04 322.83 204.8 321.19 203.85"/><polyline class="cls-12" points="358.53 321.56 359.41 323.25 330.49 338.49 329.62 336.73 358.53 321.56"/><polygon class="cls-13" points="328.85 337.54 329.62 336.73 330.49 338.49 328.85 337.54"/><polyline class="cls-12" points="352.39 190.7 353.27 192.38 324.35 207.62 323.48 205.87 352.39 190.7"/><polygon class="cls-13" points="322.71 206.67 323.48 205.87 324.35 207.62 322.71 206.67"/><polyline class="cls-12" points="353.92 193.52 354.79 195.21 325.87 210.44 325 208.69 353.92 193.52"/><polygon class="cls-13" points="324.23 209.49 325 208.69 325.87 210.44 324.23 209.49"/><polyline class="cls-12" points="355.44 196.34 356.31 198.03 327.39 213.26 326.52 211.51 355.44 196.34"/><polygon class="cls-13" points="325.75 212.31 326.52 211.51 327.39 213.26 325.75 212.31"/><polyline class="cls-12" points="356.63 199.16 357.5 200.85 328.58 216.08 327.71 214.33 356.63 199.16"/><polygon class="cls-13" points="326.94 215.14 327.71 214.33 328.58 216.08 326.94 215.14"/><polyline class="cls-12" points="357.81 201.98 358.69 203.67 329.77 218.91 328.9 217.15 357.81 201.98"/><polygon class="cls-13" points="328.13 217.96 328.9 217.15 329.77 218.91 328.13 217.96"/><polyline class="cls-12" points="359 204.81 359.88 206.5 330.96 221.73 330.09 219.98 359 204.81"/><polygon class="cls-13" points="329.32 220.78 330.09 219.98 330.96 221.73 329.32 220.78"/><polyline class="cls-12" points="360.19 207.63 361.06 209.32 332.14 224.55 331.27 222.8 360.19 207.63"/><polygon class="cls-13" points="330.5 223.6 331.27 222.8 332.14 224.55 330.5 223.6"/><polyline class="cls-12" points="361.38 210.45 362.25 212.14 333.33 227.37 332.46 225.62 361.38 210.45"/><polygon class="cls-13" points="331.69 226.43 332.46 225.62 333.33 227.37 331.69 226.43"/><polyline class="cls-12" points="362.56 213.27 363.44 214.96 334.52 230.19 333.65 228.44 362.56 213.27"/><polygon class="cls-13" points="332.88 229.25 333.65 228.44 334.52 230.19 332.88 229.25"/><polyline class="cls-12" points="360.07 319.62 360.94 321.31 332.02 336.54 331.15 334.79 360.07 319.62"/><polygon class="cls-13" points="330.38 335.59 331.15 334.79 332.02 336.54 330.38 335.59"/><polyline class="cls-12" points="363.69 216.09 364.57 217.78 335.65 233.02 334.78 231.26 363.69 216.09"/><polygon class="cls-13" points="334.01 232.07 334.78 231.26 335.65 233.02 334.01 232.07"/><polyline class="cls-12" points="364.82 218.92 365.7 220.6 336.78 235.84 335.91 234.09 364.82 218.92"/><polygon class="cls-13" points="335.14 234.89 335.91 234.09 336.78 235.84 335.14 234.89"/><polyline class="cls-12" points="365.59 221.74 366.47 223.43 337.55 238.66 336.68 236.91 365.59 221.74"/><polygon class="cls-13" points="335.91 237.71 336.68 236.91 337.55 238.66 335.91 237.71"/><polyline class="cls-12" points="366.36 224.56 367.24 226.25 338.32 241.48 337.45 239.73 366.36 224.56"/><polygon class="cls-13" points="336.68 240.53 337.45 239.73 338.32 241.48 336.68 240.53"/><polyline class="cls-12" points="367.13 227.38 368 229.07 339.09 244.3 338.21 242.55 367.13 227.38"/><polygon class="cls-13" points="337.45 243.36 338.21 242.55 339.09 244.3 337.45 243.36"/><polyline class="cls-12" points="361.44 317.67 362.32 319.36 333.4 334.6 332.52 332.84 361.44 317.67"/><polygon class="cls-13" points="331.76 333.65 332.52 332.84 333.4 334.6 331.76 333.65"/><polyline class="cls-12" points="367.9 230.21 368.77 231.89 339.86 247.13 338.98 245.37 367.9 230.21"/><polygon class="cls-13" points="338.21 246.18 338.98 245.37 339.86 247.13 338.21 246.18"/><polyline class="cls-12" points="368.67 233.03 369.54 234.72 340.62 249.95 339.75 248.2 368.67 233.03"/><polygon class="cls-13" points="338.98 249 339.75 248.2 340.62 249.95 338.98 249"/><polyline class="cls-12" points="369.44 236.18 370.31 237.87 341.39 253.1 340.52 251.35 369.44 236.18"/><polygon class="cls-13" points="339.75 252.15 340.52 251.35 341.39 253.1 339.75 252.15"/><polyline class="cls-12" points="370.21 239.33 371.08 241.01 342.16 256.25 341.29 254.5 370.21 239.33"/><polygon class="cls-13" points="340.52 255.3 341.29 254.5 342.16 256.25 340.52 255.3"/><polyline class="cls-12" points="370.98 242.48 371.85 244.16 342.93 259.4 342.06 257.65 370.98 242.48"/><polygon class="cls-13" points="341.29 258.45 342.06 257.65 342.93 259.4 341.29 258.45"/><polyline class="cls-12" points="362.64 315.73 363.52 317.42 334.6 332.65 333.73 330.9 362.64 315.73"/><polygon class="cls-13" points="332.96 331.7 333.73 330.9 334.6 332.65 332.96 331.7"/><polyline class="cls-12" points="371.36 245.85 372.24 247.53 343.32 262.77 342.44 261.02 371.36 245.85"/><polygon class="cls-13" points="341.68 261.82 342.44 261.02 343.32 262.77 341.68 261.82"/><polyline class="cls-12" points="371.74 249.22 372.62 250.91 343.7 266.14 342.83 264.39 371.74 249.22"/><polygon class="cls-13" points="342.06 265.19 342.83 264.39 343.7 266.14 342.06 265.19"/><polyline class="cls-12" points="372.13 252.59 373 254.28 344.08 269.51 343.21 267.76 372.13 252.59"/><polygon class="cls-13" points="342.44 268.56 343.21 267.76 344.08 269.51 342.44 268.56"/><polyline class="cls-12" points="372.51 255.96 373.39 257.65 344.47 272.88 343.6 271.13 372.51 255.96"/><polygon class="cls-13" points="342.83 271.93 343.6 271.13 344.47 272.88 342.83 271.93"/><polyline class="cls-12" points="372.9 259.33 373.77 261.02 344.85 276.25 343.98 274.5 372.9 259.33"/><polygon class="cls-13" points="343.21 275.3 343.98 274.5 344.85 276.25 343.21 275.3"/><polyline class="cls-12" points="364.18 313.65 365.06 315.34 336.14 330.57 335.27 328.82 364.18 313.65"/><polygon class="cls-13" points="334.5 329.62 335.27 328.82 336.14 330.57 334.5 329.62"/><polyline class="cls-12" points="373.28 262.7 374.16 264.39 345.24 279.62 344.37 277.87 373.28 262.7"/><polygon class="cls-13" points="343.6 278.67 344.37 277.87 345.24 279.62 343.6 278.67"/><polyline class="cls-12" points="373.33 266.4 374.21 268.08 345.29 283.32 344.42 281.56 373.33 266.4"/><polygon class="cls-13" points="343.65 282.37 344.42 281.56 345.29 283.32 343.65 282.37"/><polyline class="cls-12" points="365.05 311.7 365.93 313.39 337.01 328.62 336.14 326.87 365.05 311.7"/><polygon class="cls-13" points="335.37 327.68 336.14 326.87 337.01 328.62 335.37 327.68"/><polyline class="cls-12" points="373.38 270.09 374.26 271.78 345.34 287.02 344.47 285.26 373.38 270.09"/><polygon class="cls-13" points="343.7 286.07 344.47 285.26 345.34 287.02 343.7 286.07"/><polyline class="cls-12" points="373.44 273.79 374.31 275.48 345.39 290.71 344.52 288.96 373.44 273.79"/><polygon class="cls-13" points="343.75 289.77 344.52 288.96 345.39 290.71 343.75 289.77"/><polyline class="cls-12" points="373.49 277.49 374.36 279.18 345.44 294.41 344.57 292.66 373.49 277.49"/><polygon class="cls-13" points="343.8 293.46 344.57 292.66 345.44 294.41 343.8 293.46"/><polyline class="cls-12" points="373.28 280.94 374.16 282.63 345.24 297.86 344.37 296.11 373.28 280.94"/><polygon class="cls-13" points="343.6 296.91 344.37 296.11 345.24 297.86 343.6 296.91"/><polyline class="cls-12" points="372.9 284.64 373.77 286.32 344.85 301.56 343.98 299.81 372.9 284.64"/><polygon class="cls-13" points="343.21 300.61 343.98 299.81 344.85 301.56 343.21 300.61"/><polyline class="cls-12" points="372.51 288.33 373.39 290.02 344.47 305.26 343.6 303.5 372.51 288.33"/><polygon class="cls-13" points="342.83 304.31 343.6 303.5 344.47 305.26 342.83 304.31"/><polyline class="cls-12" points="372.13 292.03 373 293.72 344.08 308.95 343.21 307.2 372.13 292.03"/><polygon class="cls-13" points="342.44 308.01 343.21 307.2 344.08 308.95 342.44 308.01"/><polyline class="cls-12" points="366.76 308.88 367.63 310.57 338.71 325.8 337.84 324.05 347.71 318.4"/><polygon class="cls-13" points="337.07 324.85 337.84 324.05 338.71 325.8 337.07 324.85"/><polyline class="cls-12" points="370.92 295.73 371.8 297.42 342.88 312.65 342 310.9 370.92 295.73"/><polygon class="cls-13" points="341.24 311.71 342 310.9 342.88 312.65 341.24 311.71"/><polyline class="cls-12" points="370.16 299.43 371.04 301.12 342.12 316.35 341.24 314.6 370.16 299.43"/><polygon class="cls-13" points="340.48 315.4 341.24 314.6 342.12 316.35 340.48 315.4"/><polyline class="cls-12" points="262.2 127.61 263.08 129.3 234.16 144.53 233.29 142.78 262.2 127.61"/><polygon class="cls-13" points="232.52 143.59 233.29 142.78 234.16 144.53 232.52 143.59"/><polyline class="cls-12" points="263.68 127.15 264.56 128.84 235.64 144.07 234.77 142.32 263.68 127.15"/><polygon class="cls-13" points="234 143.13 234.77 142.32 235.64 144.07 234 143.13"/><polyline class="cls-12" points="369.17 302.58 370.04 304.27 341.13 319.5 340.25 317.75 369.17 302.58"/><polygon class="cls-13" points="339.48 318.55 340.25 317.75 341.13 319.5 339.48 318.55"/><polyline class="cls-12" points="367.91 305.73 368.79 307.42 339.87 322.65 339 320.9 367.91 305.73"/><polygon class="cls-13" points="338.23 321.7 339 320.9 339.87 322.65 338.23 321.7"/><polyline class="cls-12" points="265.53 126.48 266.41 128.16 237.49 143.4 236.62 141.65 265.53 126.48"/><polygon class="cls-13" points="235.85 142.45 236.62 141.65 237.49 143.4 235.85 142.45"/><polyline class="cls-12" points="301.38 133.52 302.26 135.2 273.34 150.44 272.46 148.69 301.38 133.52"/><polygon class="cls-13" points="271.7 149.49 272.46 148.69 273.34 150.44 271.7 149.49"/><polyline class="cls-12" points="268.15 126.02 269.03 127.71 240.11 142.94 239.24 141.19 268.15 126.02"/><polygon class="cls-13" points="238.47 141.99 239.24 141.19 240.11 142.94 238.47 141.99"/><polyline class="cls-12" points="298.39 131.99 299.26 133.68 270.34 148.91 269.47 147.16 298.39 131.99"/><polygon class="cls-13" points="268.7 147.96 269.47 147.16 270.34 148.91 268.7 147.96"/><polyline class="cls-12" points="295.63 130.5 296.5 132.19 267.58 147.42 266.71 145.67 295.63 130.5"/><polygon class="cls-13" points="265.94 146.47 266.71 145.67 267.58 147.42 265.94 146.47"/><polyline class="cls-12" points="292.63 129.17 293.51 130.85 264.59 146.09 263.72 144.34 292.63 129.17"/><polygon class="cls-13" points="262.95 145.14 263.72 144.34 264.59 146.09 262.95 145.14"/><polyline class="cls-12" points="270.9 125.54 271.78 127.23 242.86 142.46 241.99 140.71 270.9 125.54"/><polygon class="cls-13" points="241.22 141.52 241.99 140.71 242.86 142.46 241.22 141.52"/><polyline class="cls-12" points="289.39 128.35 290.27 130.04 261.35 145.27 260.48 143.52 289.39 128.35"/><polygon class="cls-13" points="259.71 144.32 260.48 143.52 261.35 145.27 259.71 144.32"/><polyline class="cls-12" points="286.4 127.28 287.28 128.97 258.36 144.2 257.49 142.45 286.4 127.28"/><polygon class="cls-13" points="256.72 143.25 257.49 142.45 258.36 144.2 256.72 143.25"/><polyline class="cls-12" points="273.68 125.54 274.55 127.23 245.63 142.46 244.76 140.71 273.68 125.54"/><polygon class="cls-13" points="243.99 141.52 244.76 140.71 245.63 142.46 243.99 141.52"/><polyline class="cls-12" points="282.79 126.4 283.67 128.09 254.75 143.32 253.88 141.57 282.79 126.4"/><polygon class="cls-13" points="253.11 142.38 253.88 141.57 254.75 143.32 253.11 142.38"/><polyline class="cls-12" points="276.59 125.54 277.47 127.23 248.55 142.46 247.68 140.71 276.59 125.54"/><polygon class="cls-13" points="246.91 141.52 247.68 140.71 248.55 142.46 246.91 141.52"/><polyline class="cls-12" points="279.82 125.52 280.69 127.21 251.77 142.45 250.9 140.69 279.82 125.52"/><polygon class="cls-13" points="250.13 141.5 250.9 140.69 251.77 142.45 250.13 141.5"/><polygon class="cls-3" points="191.25 163.95 224.07 145.17 318.21 347.32 280.08 369.33 191.25 163.95"/><path class="cls-3" d="M342.15,289.27c0,53.58-32.57,78.21-72.76,55s-72.76-85.45-72.76-139c0-30.06,10.25-51,26.35-59.5,12.59-6.66,28.77-5.69,46.41,4.5C309.58,173.45,342.15,235.69,342.15,289.27Z"/><path class="cls-5" d="M310.43,307.47c0,53.59-32.58,78.21-72.77,55S164.9,277,164.9,223.46c0-30.07,10.25-51,26.35-59.51,12.6-6.66,28.77-5.69,46.41,4.5C277.85,191.65,310.43,253.89,310.43,307.47Z"/><polyline class="cls-12" points="270.54 150.74 271.44 152.47 241.67 168.16 240.77 166.35 270.54 150.74"/><polygon class="cls-13" points="239.98 167.18 240.77 166.35 241.67 168.16 239.98 167.18"/><polyline class="cls-12" points="273.62 152.74 274.52 154.48 244.75 170.16 243.85 168.35 273.62 152.74"/><polygon class="cls-13" points="243.06 169.18 243.85 168.35 244.75 170.16 243.06 169.18"/><polyline class="cls-12" points="276.46 154.74 277.36 156.48 247.59 172.16 246.69 170.36 276.46 154.74"/><polygon class="cls-13" points="245.9 171.19 246.69 170.36 247.59 172.16 245.9 171.19"/><polyline class="cls-12" points="279.27 156.75 280.18 158.48 250.41 174.16 249.51 172.36 279.27 156.75"/><polygon class="cls-13" points="248.72 173.19 249.51 172.36 250.41 174.16 248.72 173.19"/><polyline class="cls-12" points="281.86 158.75 282.76 160.49 252.99 176.17 252.09 174.36 281.86 158.75"/><polygon class="cls-13" points="251.3 175.19 252.09 174.36 252.99 176.17 251.3 175.19"/><polyline class="cls-12" points="284.56 160.75 285.46 162.49 255.69 178.17 254.79 176.37 284.56 160.75"/><polygon class="cls-13" points="254 177.19 254.79 176.37 255.69 178.17 254 177.19"/><polyline class="cls-12" points="286.45 163.11 287.35 164.84 257.58 180.53 256.69 178.72 286.45 163.11"/><polygon class="cls-13" points="255.9 179.55 256.69 178.72 257.58 180.53 255.9 179.55"/><polyline class="cls-12" points="288.72 165.38 289.62 167.11 259.85 182.79 258.95 180.99 288.72 165.38"/><polygon class="cls-13" points="258.16 181.82 258.95 180.99 259.85 182.79 258.16 181.82"/><polyline class="cls-12" points="290.99 167.64 291.89 169.38 262.12 185.06 261.22 183.26 290.99 167.64"/><polygon class="cls-13" points="260.43 184.09 261.22 183.26 262.12 185.06 260.43 184.09"/><polyline class="cls-12" points="293.26 169.91 294.16 171.65 264.39 187.33 263.49 185.53 293.26 169.91"/><polygon class="cls-13" points="262.7 186.36 263.49 185.53 264.39 187.33 262.7 186.36"/><polyline class="cls-12" points="295.52 172.18 296.43 173.92 266.65 189.6 265.76 187.79 295.52 172.18"/><polygon class="cls-13" points="264.97 188.62 265.76 187.79 266.65 189.6 264.97 188.62"/><polyline class="cls-12" points="297.79 174.45 298.69 176.19 268.92 191.87 268.03 190.06 297.79 174.45"/><polygon class="cls-13" points="267.24 190.89 268.03 190.06 268.92 191.87 267.24 190.89"/><polyline class="cls-12" points="299.57 176.62 300.48 178.36 270.71 194.04 269.81 192.24 299.57 176.62"/><polygon class="cls-13" points="269.02 193.07 269.81 192.24 270.71 194.04 269.02 193.07"/><polyline class="cls-12" points="301.26 179.07 302.17 180.81 272.4 196.49 271.5 194.69 301.26 179.07"/><polygon class="cls-13" points="270.71 195.52 271.5 194.69 272.4 196.49 270.71 195.52"/><polyline class="cls-12" points="303.26 181.5 304.16 183.24 274.39 198.92 273.5 197.11 303.26 181.5"/><polygon class="cls-13" points="272.7 197.94 273.5 197.11 274.39 198.92 272.7 197.94"/><polyline class="cls-12" points="305.26 183.92 306.16 185.66 276.39 201.34 275.49 199.54 305.26 183.92"/><polygon class="cls-13" points="274.7 200.37 275.49 199.54 276.39 201.34 274.7 200.37"/><polyline class="cls-12" points="307.25 186.35 308.15 188.09 278.38 203.77 277.49 201.96 307.25 186.35"/><polygon class="cls-13" points="276.69 202.79 277.49 201.96 278.38 203.77 276.69 202.79"/><polyline class="cls-12" points="308.94 188.85 309.84 190.59 280.07 206.27 279.18 204.47 308.94 188.85"/><polygon class="cls-13" points="278.38 205.3 279.18 204.47 280.07 206.27 278.38 205.3"/><polyline class="cls-12" points="310.63 191.36 311.53 193.1 281.76 208.78 280.86 206.98 310.63 191.36"/><polygon class="cls-13" points="280.07 207.81 280.86 206.98 281.76 208.78 280.07 207.81"/><polyline class="cls-12" points="325.04 343.75 325.94 345.49 296.17 361.17 295.27 359.37 325.04 343.75"/><polygon class="cls-13" points="294.48 360.19 295.27 359.37 296.17 361.17 294.48 360.19"/><polyline class="cls-12" points="312.32 193.87 313.22 195.61 283.45 211.29 282.55 209.49 312.32 193.87"/><polygon class="cls-13" points="281.76 210.31 282.55 209.49 283.45 211.29 281.76 210.31"/><polyline class="cls-12" points="314.01 196.38 314.91 198.12 285.14 213.8 284.24 211.99 314.01 196.38"/><polygon class="cls-13" points="283.45 212.82 284.24 211.99 285.14 213.8 283.45 212.82"/><polyline class="cls-12" points="315.44 199.28 316.34 201.02 286.57 216.7 285.67 214.9 315.44 199.28"/><polygon class="cls-13" points="284.88 215.73 285.67 214.9 286.57 216.7 284.88 215.73"/><polyline class="cls-12" points="316.87 202.19 317.77 203.93 288 219.61 287.11 217.8 316.87 202.19"/><polygon class="cls-13" points="286.31 218.63 287.11 217.8 288 219.61 286.31 218.63"/><polyline class="cls-12" points="318.64 204.89 319.54 206.63 289.77 222.31 288.87 220.5 318.64 204.89"/><polygon class="cls-13" points="288.08 221.33 288.87 220.5 289.77 222.31 288.08 221.33"/><polyline class="cls-12" points="326.52 342.51 327.42 344.25 297.65 359.93 296.76 358.13 326.52 342.51"/><polygon class="cls-13" points="295.97 358.95 296.76 358.13 297.65 359.93 295.97 358.95"/><polyline class="cls-12" points="320.2 207.79 321.11 209.53 291.34 225.21 290.44 223.41 320.2 207.79"/><polygon class="cls-13" points="289.65 224.24 290.44 223.41 291.34 225.21 289.65 224.24"/><polyline class="cls-12" points="321.77 210.7 322.67 212.44 292.9 228.12 292.01 226.31 321.77 210.7"/><polygon class="cls-13" points="291.21 227.14 292.01 226.31 292.9 228.12 291.21 227.14"/><polyline class="cls-12" points="323.34 213.6 324.24 215.34 294.47 231.02 293.57 229.22 323.34 213.6"/><polygon class="cls-13" points="292.78 230.05 293.57 229.22 294.47 231.02 292.78 230.05"/><polyline class="cls-12" points="324.56 216.51 325.46 218.25 295.69 233.93 294.8 232.12 324.56 216.51"/><polygon class="cls-13" points="294 232.95 294.8 232.12 295.69 233.93 294 232.95"/><polyline class="cls-12" points="325.78 219.41 326.69 221.15 296.92 236.83 296.02 235.03 325.78 219.41"/><polygon class="cls-13" points="295.23 235.86 296.02 235.03 296.92 236.83 295.23 235.86"/><polyline class="cls-12" points="327.01 222.32 327.91 224.06 298.14 239.74 297.24 237.93 327.01 222.32"/><polygon class="cls-13" points="296.45 238.76 297.24 237.93 298.14 239.74 296.45 238.76"/><polyline class="cls-12" points="328.23 225.22 329.13 226.96 299.36 242.64 298.46 240.84 328.23 225.22"/><polygon class="cls-13" points="297.67 241.67 298.46 240.84 299.36 242.64 297.67 241.67"/><polyline class="cls-12" points="329.45 228.13 330.35 229.87 300.58 245.55 299.69 243.74 329.45 228.13"/><polygon class="cls-13" points="298.89 244.57 299.69 243.74 300.58 245.55 298.89 244.57"/><polyline class="cls-12" points="330.67 231.03 331.57 232.77 301.81 248.45 300.91 246.65 330.67 231.03"/><polygon class="cls-13" points="300.12 247.48 300.91 246.65 301.81 248.45 300.12 247.48"/><polyline class="cls-12" points="328.11 340.51 329.01 342.25 299.24 357.93 298.34 356.12 328.11 340.51"/><polygon class="cls-13" points="297.55 356.95 298.34 356.12 299.24 357.93 297.55 356.95"/><polyline class="cls-12" points="331.84 233.94 332.74 235.68 302.97 251.36 302.07 249.55 331.84 233.94"/><polygon class="cls-13" points="301.28 250.38 302.07 249.55 302.97 251.36 301.28 250.38"/><polyline class="cls-12" points="333 236.84 333.9 238.58 304.13 254.26 303.23 252.46 333 236.84"/><polygon class="cls-13" points="302.44 253.29 303.23 252.46 304.13 254.26 302.44 253.29"/><polyline class="cls-12" points="333.79 239.75 334.69 241.49 304.92 257.17 304.03 255.36 333.79 239.75"/><polygon class="cls-13" points="303.23 256.19 304.03 255.36 304.92 257.17 303.23 256.19"/><polyline class="cls-12" points="334.58 242.65 335.48 244.39 305.71 260.07 304.82 258.27 334.58 242.65"/><polygon class="cls-13" points="304.03 259.1 304.82 258.27 305.71 260.07 304.03 259.1"/><polyline class="cls-12" points="335.37 245.56 336.28 247.3 306.51 262.98 305.61 261.17 335.37 245.56"/><polygon class="cls-13" points="304.82 262 305.61 261.17 306.51 262.98 304.82 262"/><polyline class="cls-12" points="329.52 338.5 330.42 340.24 300.65 355.92 299.75 354.12 329.52 338.5"/><polygon class="cls-13" points="298.96 354.95 299.75 354.12 300.65 355.92 298.96 354.95"/><polyline class="cls-12" points="336.17 248.46 337.07 250.2 307.3 265.88 306.4 264.08 336.17 248.46"/><polygon class="cls-13" points="305.61 264.91 306.4 264.08 307.3 265.88 305.61 264.91"/><polyline class="cls-12" points="336.96 251.37 337.86 253.11 308.09 268.79 307.19 266.98 336.96 251.37"/><polygon class="cls-13" points="306.4 267.81 307.19 266.98 308.09 268.79 306.4 267.81"/><polyline class="cls-12" points="337.75 254.61 338.65 256.35 308.88 272.03 307.98 270.23 337.75 254.61"/><polygon class="cls-13" points="307.19 271.06 307.98 270.23 308.88 272.03 307.19 271.06"/><polyline class="cls-12" points="338.54 257.85 339.44 259.59 309.67 275.27 308.78 273.47 338.54 257.85"/><polygon class="cls-13" points="307.98 274.3 308.78 273.47 309.67 275.27 307.98 274.3"/><polyline class="cls-12" points="339.33 261.1 340.23 262.83 310.46 278.51 309.57 276.71 339.33 261.1"/><polygon class="cls-13" points="308.78 277.54 309.57 276.71 310.46 278.51 308.78 277.54"/><polyline class="cls-12" points="330.76 336.5 331.66 338.24 301.89 353.92 300.99 352.12 330.76 336.5"/><polygon class="cls-13" points="300.2 352.94 300.99 352.12 301.89 353.92 300.2 352.94"/><polyline class="cls-12" points="339.73 264.57 340.63 266.3 310.86 281.99 309.96 280.18 339.73 264.57"/><polygon class="cls-13" points="309.17 281.01 309.96 280.18 310.86 281.99 309.17 281.01"/><polyline class="cls-12" points="340.12 268.04 341.03 269.77 311.26 285.45 310.36 283.65 340.12 268.04"/><polygon class="cls-13" points="309.57 284.48 310.36 283.65 311.26 285.45 309.57 284.48"/><polyline class="cls-12" points="340.52 271.5 341.42 273.24 311.65 288.92 310.75 287.12 340.52 271.5"/><polygon class="cls-13" points="309.96 287.95 310.75 287.12 311.65 288.92 309.96 287.95"/><polyline class="cls-12" points="340.92 274.97 341.82 276.71 312.05 292.39 311.15 290.59 340.92 274.97"/><polygon class="cls-13" points="310.36 291.42 311.15 290.59 312.05 292.39 310.36 291.42"/><polyline class="cls-12" points="341.31 278.44 342.21 280.18 312.44 295.86 311.55 294.06 341.31 278.44"/><polygon class="cls-13" points="310.75 294.89 311.55 294.06 312.44 295.86 310.75 294.89"/><polyline class="cls-12" points="332.34 334.36 333.24 336.1 303.47 351.78 302.58 349.98 332.34 334.36"/><polygon class="cls-13" points="301.78 350.8 302.58 349.98 303.47 351.78 301.78 350.8"/><polyline class="cls-12" points="341.71 281.91 342.61 283.65 312.84 299.33 311.94 297.53 341.71 281.91"/><polygon class="cls-13" points="311.15 298.36 311.94 297.53 312.84 299.33 311.15 298.36"/><polyline class="cls-12" points="341.76 285.72 342.66 287.46 312.89 303.14 312 301.33 341.76 285.72"/><polygon class="cls-13" points="311.2 302.16 312 301.33 312.89 303.14 311.2 302.16"/><polyline class="cls-12" points="333.24 332.36 334.14 334.09 304.37 349.78 303.47 347.97 333.24 332.36"/><polygon class="cls-13" points="302.68 348.8 303.47 347.97 304.37 349.78 302.68 348.8"/><polyline class="cls-12" points="341.81 289.53 342.71 291.26 312.94 306.94 312.05 305.14 341.81 289.53"/><polygon class="cls-13" points="311.26 305.97 312.05 305.14 312.94 306.94 311.26 305.97"/><polyline class="cls-12" points="341.87 293.33 342.77 295.07 313 310.75 312.1 308.95 341.87 293.33"/><polygon class="cls-13" points="311.31 309.78 312.1 308.95 313 310.75 311.31 309.78"/><polyline class="cls-12" points="341.92 297.14 342.82 298.88 313.05 314.56 312.15 312.75 341.92 297.14"/><polygon class="cls-13" points="311.36 313.58 312.15 312.75 313.05 314.56 311.36 313.58"/><polyline class="cls-12" points="341.71 300.69 342.61 302.43 312.84 318.11 311.94 316.3 341.71 300.69"/><polygon class="cls-13" points="311.15 317.13 311.94 316.3 312.84 318.11 311.15 317.13"/><polyline class="cls-12" points="341.31 304.5 342.21 306.23 312.44 321.92 311.55 320.11 341.31 304.5"/><polygon class="cls-13" points="310.75 320.94 311.55 320.11 312.44 321.92 310.75 320.94"/><polyline class="cls-12" points="340.92 308.3 341.82 310.04 312.05 325.72 311.15 323.92 340.92 308.3"/><polygon class="cls-13" points="310.36 324.75 311.15 323.92 312.05 325.72 310.36 324.75"/><polyline class="cls-12" points="340.52 312.11 341.42 313.85 311.65 329.53 310.75 327.73 340.52 312.11"/><polygon class="cls-13" points="309.96 328.55 310.75 327.73 311.65 329.53 309.96 328.55"/><polyline class="cls-12" points="334.99 329.45 335.89 331.19 306.12 346.87 305.23 345.07 315.38 339.26"/><polygon class="cls-13" points="304.44 345.9 305.23 345.07 306.12 346.87 304.44 345.9"/><polyline class="cls-12" points="339.28 315.92 340.18 317.65 310.41 333.34 309.51 331.53 339.28 315.92"/><polygon class="cls-13" points="308.72 332.36 309.51 331.53 310.41 333.34 308.72 332.36"/><polyline class="cls-12" points="338.49 319.72 339.39 321.46 309.63 337.14 308.73 335.34 338.49 319.72"/><polygon class="cls-13" points="307.94 336.17 308.73 335.34 309.63 337.14 307.94 336.17"/><polyline class="cls-12" points="227.36 142.85 228.26 144.59 198.5 160.27 197.6 158.47 227.36 142.85"/><polygon class="cls-13" points="196.81 159.3 197.6 158.47 198.5 160.27 196.81 159.3"/><polyline class="cls-12" points="228.89 142.38 229.79 144.12 200.02 159.8 199.12 158 228.89 142.38"/><polygon class="cls-13" points="198.33 158.82 199.12 158 200.02 159.8 198.33 158.82"/><polyline class="cls-12" points="337.47 322.97 338.37 324.7 308.61 340.38 307.71 338.58 337.47 322.97"/><polygon class="cls-13" points="306.92 339.41 307.71 338.58 308.61 340.38 306.92 339.41"/><polyline class="cls-12" points="336.18 326.21 337.08 327.95 307.31 343.63 306.42 341.82 336.18 326.21"/><polygon class="cls-13" points="305.62 342.65 306.42 341.82 307.31 343.63 305.62 342.65"/><polyline class="cls-12" points="230.79 141.69 231.69 143.42 201.92 159.1 201.03 157.3 230.79 141.69"/><polygon class="cls-13" points="200.23 158.13 201.03 157.3 201.92 159.1 200.23 158.13"/><polyline class="cls-12" points="267.69 148.93 268.59 150.67 238.82 166.35 237.93 164.55 267.69 148.93"/><polygon class="cls-13" points="237.13 165.38 237.93 164.55 238.82 166.35 237.13 165.38"/><polyline class="cls-12" points="233.49 141.21 234.39 142.95 204.62 158.63 203.72 156.83 233.49 141.21"/><polygon class="cls-13" points="202.93 157.66 203.72 156.83 204.62 158.63 202.93 157.66"/><polyline class="cls-12" points="264.61 147.36 265.51 149.1 235.74 164.78 234.85 162.97 264.61 147.36"/><polygon class="cls-13" points="234.05 163.8 234.85 162.97 235.74 164.78 234.05 163.8"/><polyline class="cls-12" points="261.77 145.83 262.67 147.56 232.9 163.25 232 161.44 261.77 145.83"/><polygon class="cls-13" points="231.21 162.27 232 161.44 232.9 163.25 231.21 162.27"/><polyline class="cls-12" points="258.69 144.45 259.59 146.19 229.82 161.87 228.92 160.07 258.69 144.45"/><polygon class="cls-13" points="228.13 160.9 228.92 160.07 229.82 161.87 228.13 160.9"/><polyline class="cls-12" points="236.32 140.72 237.22 142.46 207.45 158.14 206.55 156.34 236.32 140.72"/><polygon class="cls-13" points="205.76 157.17 206.55 156.34 207.45 158.14 205.76 157.17"/><polyline class="cls-12" points="255.35 143.61 256.25 145.35 226.49 161.03 225.59 159.23 255.35 143.61"/><polygon class="cls-13" points="224.8 160.06 225.59 159.23 226.49 161.03 224.8 160.06"/><polyline class="cls-12" points="252.27 142.51 253.17 144.25 223.41 159.93 222.51 158.13 252.27 142.51"/><polygon class="cls-13" points="221.72 158.95 222.51 158.13 223.41 159.93 221.72 158.95"/><polyline class="cls-12" points="239.17 140.72 240.07 142.46 210.31 158.14 209.41 156.34 239.17 140.72"/><polygon class="cls-13" points="208.62 157.17 209.41 156.34 210.31 158.14 208.62 157.17"/><polyline class="cls-12" points="248.56 141.61 249.46 143.35 219.69 159.03 218.79 157.22 248.56 141.61"/><polygon class="cls-13" points="218 158.05 218.79 157.22 219.69 159.03 218 158.05"/><polyline class="cls-12" points="242.18 140.72 243.08 142.46 213.31 158.14 212.41 156.34 242.18 140.72"/><polygon class="cls-13" points="211.62 157.17 212.41 156.34 213.31 158.14 211.62 157.17"/><polyline class="cls-12" points="245.5 140.71 246.4 142.44 216.63 158.13 215.73 156.32 245.5 140.71"/><polygon class="cls-13" points="214.94 157.15 215.73 156.32 216.63 158.13 214.94 157.15"/><ellipse class="cls-14" cx="236.84" cy="264.46" rx="66.4" ry="117.36" transform="translate(-84.64 113.85) rotate(-23.05)"/><polygon class="cls-15" points="286.83 370.44 271.02 379.39 171.4 167.25 189.19 157.24 286.83 370.44"/><ellipse class="cls-16" cx="222.13" cy="272.8" rx="66.4" ry="117.36" transform="translate(-89.08 108.76) rotate(-23.05)"/><ellipse class="cls-17" cx="221.07" cy="272.63" rx="64.19" ry="113.46" transform="translate(-89.1 108.33) rotate(-23.05)"/><path class="cls-18" d="M283.19,321.62c0,54.42-33.08,79.44-73.9,55.87s-73.9-86.78-73.9-141.2c0-30.54,10.41-51.81,26.76-60.45,12.8-6.75,29.22-5.77,47.14,4.58C250.11,204,283.19,267.2,283.19,321.62Z"/><path class="cls-19" d="M280,321.69c0,53.62-32.6,78.26-72.81,55s-72.82-85.5-72.82-139.12c0-30.08,10.26-51.05,26.37-59.55,12.61-6.66,28.8-5.69,46.45,4.5C247.42,205.78,280,268.07,280,321.69Z"/><path class="cls-20" d="M275.43,319.84c0,51.36-31.23,75-69.75,52.73s-69.74-81.91-69.74-133.26c0-28.82,9.83-48.89,25.26-57,12.07-6.38,27.57-5.45,44.48,4.31C244.2,208.82,275.43,268.48,275.43,319.84Z"/><path class="cls-20" d="M269.93,317.07c0,47.82-29.08,69.79-64.94,49.09s-64.94-76.26-64.94-124.08c0-26.83,9.15-45.52,23.52-53.11,11.24-5.94,25.67-5.07,41.42,4C240.85,213.7,269.93,269.25,269.93,317.07Z"/><path class="cls-3" d="M263.09,313.12c0,42.78-26,62.45-58.1,43.92s-58.1-68.23-58.1-111c0-24,8.19-40.73,21-47.52,10.06-5.31,23-4.54,37.06,3.6C237.08,220.63,263.09,270.33,263.09,313.12Z"/><path class="cls-12" d="M251.54,306.45c0,34.29-20.84,50-46.55,35.2s-46.56-54.67-46.56-89c0-19.23,6.56-32.63,16.86-38.07,8.06-4.26,18.41-3.64,29.7,2.88C230.7,232.34,251.54,272.17,251.54,306.45Z"/><path d="M249.72,302.84c0,31.94-19.44,46.63-43.37,32.81s-43.32-50.91-43.3-82.86c0-17.92,6.12-30.41,15.72-35.48,7.5-4,17.14-3.4,27.64,2.67C230.35,233.79,249.74,270.89,249.72,302.84Z"/><g class="cls-21"><path class="cls-12" d="M253.83,302.11c0,28.75-17.48,42-39,29.51s-39-45.84-39-74.59c0-16.12,5.5-27.36,14.13-31.92,6.76-3.57,15.44-3.05,24.9,2.41C236.35,240,253.83,273.37,253.83,302.11Z"/><path class="cls-22" d="M248.44,300.2c0,26.3-16,38.39-35.72,27S177,285.25,177,259c0-14.76,5-25,12.93-29.22,6.19-3.26,14.13-2.79,22.79,2.21C232.45,243.33,248.44,273.89,248.44,300.2Z"/><path class="cls-23" d="M247.62,299.72c0,25.7-15.62,37.52-34.9,26.39s-34.9-41-34.9-66.69c0-14.42,4.92-24.46,12.64-28.54,6-3.19,13.8-2.73,22.26,2.16C232,244.17,247.62,274,247.62,299.72Z"/><path class="cls-23" d="M245.74,299c0,24.83-15.09,36.24-33.71,25.49s-33.72-39.59-33.72-64.42c0-13.93,4.75-23.64,12.21-27.58,5.84-3.08,13.33-2.63,21.51,2.09C230.65,245.37,245.74,274.21,245.74,299Z"/><path class="cls-23" d="M243.76,298.29c0,23.88-14.52,34.85-32.43,24.52s-32.42-38.08-32.42-62c0-13.39,4.57-22.73,11.74-26.51,5.61-3,12.82-2.54,20.68,2C229.24,246.68,243.76,274.42,243.76,298.29Z"/><path class="cls-23" d="M241.81,297.57c0,23-13.95,33.51-31.17,23.57s-31.18-36.61-31.18-59.56c0-12.88,4.4-21.86,11.29-25.5,5.4-2.85,12.33-2.44,19.89,1.93C227.86,248,241.81,274.62,241.81,297.57Z"/><path class="cls-23" d="M240.14,297c0,22.24-13.52,32.46-30.2,22.83s-30.19-35.46-30.19-57.7c0-12.48,4.25-21.17,10.93-24.7,5.23-2.76,11.94-2.36,19.26,1.87C226.62,248.94,240.14,274.77,240.14,297Z"/><path class="cls-24" d="M236.78,293.47c0,17.72-10.77,25.86-24.06,18.19s-24.06-28.26-24.06-46c0-9.94,3.39-16.87,8.71-19.68,4.17-2.2,9.52-1.88,15.35,1.49C226,255.16,236.78,275.75,236.78,293.47Z"/></g><line class="cls-1" x1="212.72" y1="279.57" x2="209.84" y2="272.53"/><ellipse class="cls-1" cx="212.72" cy="279.57" rx="3.59" ry="6.34" transform="translate(-92.48 105.61) rotate(-23.05)"/><ellipse class="cls-1" cx="212.72" cy="279.57" rx="4.31" ry="7.61" transform="translate(-92.48 105.61) rotate(-23.05)"/><polyline class="cls-1" points="212.72 279.57 193.3 285.7 212.72 279.57 232.14 273.44 212.72 279.57 199.71 246.17 212.72 279.57 225.73 312.98 212.72 279.57 203.31 276.41 212.72 279.57 222.13 282.74 212.72 279.57 211.02 266.05 212.72 279.57 214.42 293.1 212.72 279.57 200.52 300.58 212.72 279.57 224.92 258.57 212.72 279.57 191.68 251.16 212.72 279.57 233.76 307.98 212.72 279.57 209.17 281.4 212.72 279.57 216.27 277.74 212.72 279.57 209.81 273.17 212.72 279.57 215.63 285.98 212.72 279.57 204.57 290.18 212.72 279.57 220.87 268.97 212.72 279.57 201.23 262.07 212.72 279.57 224.21 297.08 212.72 279.57 202.13 297.44 212.72 279.57 223.31 261.71 212.72 279.57 194.74 255.07 212.72 279.57 230.7 304.08 212.72 279.57 194.22 271.23 212.72 279.57 231.22 287.92 212.72 279.57 210.97 253.91 212.72 279.57 214.47 305.24 212.72 279.57 203.29 281.65 212.72 279.57 222.15 277.5 212.72 279.57 207.08 263.74 212.72 279.57 218.36 295.41 212.72 279.57 210.92 278.8 212.72 279.57 214.52 280.35 212.72 279.57 212.52 277.06 212.72 279.57 212.92 282.08 212.72 279.57 199.32 273.35 212.72 279.57 226.12 285.8 212.72 279.57 211.59 261.05 212.72 279.57 213.85 298.09 212.72 279.57 200.82 299.72 212.72 279.57 224.62 259.43 212.72 279.57 192.46 252.01 212.72 279.57 232.98 307.14 212.72 279.57 214.34 313.32 212.72 279.57 211.09 245.82 212.72 279.57 188.11 267.53 212.72 279.57 237.33 291.61 212.72 279.57 212.42 281.24 212.72 279.57 213.02 277.91 212.72 279.57 211.34 278.38 212.72 279.57 214.1 280.77 212.72 279.57 196.47 290.89 212.72 279.57 228.97 268.25 212.72 279.57 197.19 248.93 212.72 279.57 228.25 310.21 212.72 279.57 203.35 279.91 212.72 279.57 222.09 279.23 212.72 279.57 208.41 264.59 212.72 279.57 217.03 294.56"/><ellipse class="cls-25" cx="212.72" cy="279.57" rx="8.61" ry="15.22" transform="translate(-92.48 105.61) rotate(-23.05)"/><ellipse class="cls-26" cx="212.72" cy="279.57" rx="4.31" ry="7.61" transform="translate(-92.48 105.61) rotate(-23.05)"/><ellipse class="cls-27" cx="212.72" cy="279.57" rx="3.59" ry="6.34" transform="translate(-92.48 105.61) rotate(-23.05)"/><polyline class="cls-28" points="212.72 279.57 193.3 285.7 212.72 279.57 232.14 273.44 212.72 279.57 199.71 246.17 212.72 279.57 225.73 312.98 212.72 279.57 203.31 276.41 212.72 279.57 222.13 282.74 212.72 279.57 211.02 266.05 212.72 279.57 214.42 293.1 212.72 279.57 200.52 300.58 212.72 279.57 224.92 258.57 212.72 279.57 191.68 251.16 212.72 279.57 233.76 307.98 212.72 279.57 209.17 281.4 212.72 279.57 216.27 277.74 212.72 279.57 209.81 273.17 212.72 279.57 215.63 285.98 212.72 279.57 204.57 290.18 212.72 279.57 220.87 268.97 212.72 279.57 201.23 262.07 212.72 279.57 224.21 297.08 212.72 279.57 202.13 297.44 212.72 279.57 223.31 261.71 212.72 279.57 194.74 255.07 212.72 279.57 230.7 304.08 212.72 279.57 194.22 271.23 212.72 279.57 231.22 287.92 212.72 279.57 210.97 253.91 212.72 279.57 214.47 305.24 212.72 279.57 203.29 281.65 212.72 279.57 222.15 277.5 212.72 279.57 207.08 263.74 212.72 279.57 218.36 295.41 212.72 279.57 210.92 278.8 212.72 279.57 214.52 280.35 212.72 279.57 212.52 277.06 212.72 279.57 212.92 282.08 212.72 279.57 199.32 273.35 212.72 279.57 226.12 285.8 212.72 279.57 211.59 261.05 212.72 279.57 213.85 298.09 212.72 279.57 200.82 299.72 212.72 279.57 224.62 259.43 212.72 279.57 192.46 252.01 212.72 279.57 232.98 307.14 212.72 279.57 214.34 313.32 212.72 279.57 211.09 245.82 212.72 279.57 188.11 267.53 212.72 279.57 237.33 291.61 212.72 279.57 212.42 281.24 212.72 279.57 213.02 277.91 212.72 279.57 211.34 278.38 212.72 279.57 214.1 280.77 212.72 279.57 196.47 290.89 212.72 279.57 228.97 268.25 212.72 279.57 197.19 248.93 212.72 279.57 228.25 310.21 212.72 279.57 203.35 279.91 212.72 279.57 222.09 279.23 212.72 279.57 208.41 264.59 212.72 279.57 217.03 294.56"/><text class="cls-29" transform="matrix(0.03, -0.6, 0.91, -0.02, 155.66, 243.32)">	</text><text class="cls-29" transform="matrix(0.15, -0.59, 0.87, 0.24, 157.49, 230.16)">	</text><text class="cls-29" transform="matrix(0.31, -0.51, 0.72, 0.59, 162.24, 218.02)">	</text><text class="cls-29" transform="matrix(0.46, -0.3, 0.39, 0.94, 170.4, 208.96)">	</text><text class="cls-29" transform="matrix(0.51, -0.05, 0, 1.08, 180.87, 204.98)">	</text><text class="cls-29" transform="matrix(0.48, 0.14, -0.29, 1.05, 191.68, 205.86)">L</text><text class="cls-29" transform="matrix(0.47, 0.17, -0.33, 1.04, 193.83, 206.5)">E</text><text class="cls-29" transform="matrix(0.46, 0.19, -0.36, 1.03, 196.13, 207.36)">I</text><text class="cls-29" transform="matrix(0.46, 0.21, -0.39, 1.02, 197.07, 207.73)">C</text><text class="cls-29" transform="matrix(0.45, 0.24, -0.42, 1, 199.49, 208.85)">A</text><text class="cls-29" transform="matrix(0.44, 0.25, -0.45, 0.98, 201.76, 210.07)"> </text><text class="cls-29" transform="matrix(0.44, 0.26, -0.46, 0.98, 202.64, 210.58)"> </text><text class="cls-29" transform="matrix(0.43, 0.27, -0.47, 0.97, 203.54, 211.12)"> </text><text class="cls-29" transform="matrix(0.43, 0.28, -0.48, 0.96, 204.41, 211.66)"> </text><text class="cls-29" transform="matrix(0.42, 0.29, -0.49, 0.96, 205.29, 212.23)"> </text><text class="cls-29" transform="matrix(0.42, 0.29, -0.5, 0.95, 206.16, 212.81)"> </text><text class="cls-29" transform="matrix(0.42, 0.3, -0.51, 0.94, 207.02, 213.41)"> </text><text class="cls-29" transform="matrix(0.41, 0.31, -0.52, 0.93, 207.87, 214.02)"> </text><text class="cls-29" transform="matrix(0.41, 0.31, -0.53, 0.93, 208.72, 214.65)"> </text><text class="cls-29" transform="matrix(0.41, 0.32, -0.54, 0.92, 209.56, 215.3)"> </text><text class="cls-29" transform="matrix(0.4, 0.33, -0.55, 0.91, 210.38, 215.95)"> </text><text class="cls-29" transform="matrix(0.4, 0.33, -0.56, 0.9, 211.21, 216.62)"> </text><text class="cls-29" transform="matrix(0.39, 0.34, -0.57, 0.9, 212.03, 217.31)"> </text><text class="cls-29" transform="matrix(0.39, 0.35, -0.58, 0.89, 212.83, 218.01)"> </text><text class="cls-29" transform="matrix(0.39, 0.35, -0.59, 0.88, 213.63, 218.71)"> </text><text class="cls-29" transform="matrix(0.38, 0.36, -0.59, 0.88, 214.41, 219.42)"> </text><text class="cls-29" transform="matrix(0.38, 0.36, -0.6, 0.87, 215.21, 220.17)"> </text><text class="cls-29" transform="matrix(0.37, 0.37, -0.61, 0.86, 215.98, 220.91)"> </text><text class="cls-29" transform="matrix(0.37, 0.37, -0.62, 0.85, 216.75, 221.66)"> </text><text class="cls-29" transform="matrix(0.37, 0.38, -0.62, 0.85, 217.51, 222.42)"> </text><text class="cls-29" transform="matrix(0.36, 0.38, -0.63, 0.84, 218.26, 223.19)"> </text><text class="cls-29" transform="matrix(0.36, 0.39, -0.64, 0.83, 219, 223.97)"> </text><text class="cls-29" transform="matrix(0.36, 0.39, -0.64, 0.82, 219.75, 224.77)"> </text><text class="cls-29" transform="matrix(0.35, 0.4, -0.65, 0.82, 220.49, 225.59)"> </text><text class="cls-29" transform="matrix(0.35, 0.4, -0.66, 0.81, 221.21, 226.4)"> </text><text class="cls-29" transform="matrix(0.35, 0.41, -0.66, 0.8, 221.92, 227.22)"> </text><text class="cls-29" transform="matrix(0.34, 0.41, -0.67, 0.8, 222.64, 228.06)">	</text><text class="cls-29" transform="matrix(0.32, 0.44, -0.7, 0.75, 227.09, 233.7)">	</text><text class="cls-29" transform="matrix(0.28, 0.47, -0.76, 0.67, 233.78, 243.75)">	</text><text class="cls-29" transform="matrix(0.24, 0.5, -0.8, 0.6, 239.63, 254.57)">	</text><text class="cls-29" transform="matrix(0.2, 0.53, -0.83, 0.51, 244.63, 266.06)">	</text><text class="cls-29" transform="matrix(0.16, 0.56, -0.86, 0.42, 248.65, 278.13)">	</text><text class="cls-29" transform="matrix(0.1, 0.58, -0.89, 0.3, 251.57, 290.71)">	</text><text class="cls-29" transform="matrix(0.03, 0.6, -0.91, 0.16, 253.18, 303.71)">	</text><text class="cls-29" transform="matrix(-0.05, 0.6, -0.9, -0.03, 253.12, 316.96)">	</text><text class="cls-29" transform="matrix(-0.18, 0.58, -0.85, -0.3, 250.8, 330.01)">	</text><text class="cls-29" transform="matrix(-0.34, 0.48, -0.67, -0.66, 245.4, 341.76)">	</text><text class="cls-29" transform="matrix(-0.48, 0.25, -0.31, -0.98, 236.65, 349.97)">	</text><text class="cls-29" transform="matrix(-0.5, -0.01, 0.08, -1.08, 226.01, 352.95)">V</text><text class="cls-29" transform="matrix(-0.5, -0.05, 0.14, -1.08, 223.85, 352.94)">A</text><text class="cls-29" transform="matrix(-0.49, -0.09, 0.21, -1.07, 221.22, 352.69)">R</text><text class="cls-29" transform="matrix(-0.49, -0.12, 0.25, -1.06, 218.64, 352.2)">I</text><text class="cls-29" transform="matrix(-0.48, -0.14, 0.29, -1.05, 217.67, 352)">O</text><text class="cls-29" transform="matrix(-0.47, -0.17, 0.32, -1.04, 214.92, 351.16)">-</text><text class="cls-29" transform="matrix(-0.47, -0.19, 0.35, -1.03, 213.78, 350.77)">E</text><text class="cls-29" transform="matrix(-0.46, -0.21, 0.39, -1.01, 211.5, 349.84)">L</text><text class="cls-29" transform="matrix(-0.45, -0.24, 0.43, -1, 209.45, 348.89)">M</text><text class="cls-29" transform="matrix(-0.44, -0.26, 0.46, -0.98, 206.73, 347.43)">A</text><text class="cls-29" transform="matrix(-0.43, -0.28, 0.49, -0.96, 204.43, 346.03)">R</text><text class="cls-29" transform="matrix(-0.42, -0.3, 0.51, -0.94, 202.16, 344.49)">I</text><text class="cls-29" transform="matrix(-0.41, -0.31, 0.53, -0.93, 201.31, 343.9)">T</text><text class="cls-29" transform="matrix(-0.41, -0.32, 0.54, -0.92, 199.46, 342.5)"> </text><text class="cls-29" transform="matrix(-0.4, -0.33, 0.56, -0.91, 198.63, 341.85)">1</text><text class="cls-29" transform="matrix(-0.39, -0.34, 0.57, -0.9, 196.99, 340.49)">.</text><text class="cls-29" transform="matrix(-0.39, -0.35, 0.58, -0.89, 196.17, 339.79)">2</text><text class="cls-29" transform="matrix(-0.38, -0.36, 0.59, -0.88, 194.59, 338.37)">.</text><text class="cls-29" transform="matrix(-0.38, -0.36, 0.61, -0.86, 193.8, 337.65)">8</text><text class="cls-29" transform="matrix(-0.37, -0.37, 0.62, -0.85, 192.26, 336.15)"> </text><text class="cls-29" transform="matrix(-0.37, -0.38, 0.62, -0.85, 191.49, 335.38)">-</text><text class="cls-29" transform="matrix(-0.36, -0.38, 0.63, -0.84, 190.58, 334.44)"> </text><text class="cls-29" transform="matrix(-0.36, -0.39, 0.64, -0.83, 189.83, 333.66)">4</text><text class="cls-29" transform="matrix(-0.35, -0.4, 0.65, -0.82, 188.37, 332.06)">.</text><text class="cls-29" transform="matrix(-0.35, -0.4, 0.66, -0.81, 187.64, 331.24)">0</text><text class="cls-29" transform="matrix(-0.34, -0.41, 0.67, -0.8, 186.22, 329.58)"> </text><text class="cls-29" transform="matrix(-0.34, -0.41, 0.68, -0.79, 185.51, 328.73)">/</text><text class="cls-29" transform="matrix(-0.33, -0.42, 0.68, -0.78, 184.82, 327.89)"> </text><text class="cls-29" transform="matrix(-0.33, -0.42, 0.69, -0.77, 184.14, 327.04)">8</text><text class="cls-29" transform="matrix(-0.32, -0.43, 0.7, -0.76, 182.78, 325.28)"> </text><text class="cls-29" transform="matrix(-0.32, -0.43, 0.7, -0.75, 182.12, 324.4)">-</text><text class="cls-29" transform="matrix(-0.32, -0.44, 0.71, -0.74, 181.32, 323.31)"> </text><text class="cls-29" transform="matrix(-0.31, -0.44, 0.72, -0.73, 180.68, 322.43)">1</text><text class="cls-29" transform="matrix(-0.3, -0.45, 0.73, -0.72, 179.4, 320.6)">8</text><text class="cls-29" transform="matrix(-0.3, -0.46, 0.73, -0.71, 178.14, 318.73)"> </text><text class="cls-29" transform="matrix(-0.29, -0.46, 0.74, -0.7, 177.62, 317.94)">A</text><text class="cls-29" transform="matrix(-0.28, -0.47, 0.75, -0.68, 176.05, 315.46)">S</text><text class="cls-29" transform="matrix(-0.28, -0.48, 0.76, -0.66, 174.65, 313.15)">P</text><text class="cls-29" transform="matrix(-0.27, -0.49, 0.77, -0.65, 173.3, 310.79)">H</text><text class="cls-29" transform="matrix(-0.26, -0.49, 0.78, -0.63, 171.86, 308.17)"> </text><text class="cls-29" transform="matrix(-0.26, -0.49, 0.78, -0.63, 171.33, 307.17)">6</text><text class="cls-29" transform="matrix(-0.25, -0.5, 0.79, -0.61, 170.28, 305.14)">7</text></g></g></svg>