<svg xmlns="http://www.w3.org/2000/svg" viewBox="0 0 112.333 134.282"><defs><style>.a{fill:#3e5d94;}.b{fill:#fff;stroke:#3e5d94;stroke-width:0.5px;}</style></defs><g transform="translate(0.328)"><ellipse class="a" cx="32.143" cy="56.819" rx="32.143" ry="56.819" transform="matrix(0.92, -0.392, 0.392, 0.92, 8.348, 25.174)"/><g transform="translate(0 4.21)"><ellipse class="b" cx="32.143" cy="56.819" rx="32.143" ry="56.819" transform="matrix(0.92, -0.392, 0.392, 0.92, 0, 25.174)"/><g transform="translate(42.118 42.014)"><path class="a" d="M93.569,128.893l6.008,3.462v8.01a.71.71,0,0,1-.2-.136c-1.7-.984-3.36-1.935-5.057-2.919-.509-.305-.882-.238-1.154.136a2.8,2.8,0,0,0-.407,1.7v5.227c2.274,1.324,4.548,2.647,6.822,3.937v7.535c-2.274-1.324-4.548-2.647-6.856-3.937v22.639c-2.172-1.256-4.345-2.512-6.483-3.734V148.172c-1.969-1.12-3.9-2.24-5.838-3.36v-7.535c1.969,1.12,3.9,2.24,5.872,3.394v-2.342c0-1.154,0-2.342.068-3.428a8.551,8.551,0,0,1,1.629-4.888,3.981,3.981,0,0,1,4.582-1.426A6.817,6.817,0,0,1,93.569,128.893Z" transform="translate(-80.4 -128.375)"/></g></g></g></svg>