<svg xmlns="http://www.w3.org/2000/svg" viewBox="0 0 208.248 48.167">
  <defs>
    <style>
      .cls-1 {
        font-size: 10px;
        font-family: Montserrat-SemiBold, Montserrat;
        font-weight: 600;
        letter-spacing: 0.348em;
      }

      .cls-2, .cls-4 {
        fill: #87bc95;
      }

      .cls-2 {
        font-size: 25px;
        font-family: BankGothicBT-Medium, BankGothic Md BT;
        font-weight: 500;
      }

      .cls-3 {
        fill: #000;
      }

      .cls-5 {
        fill: none;
      }

      .cls-6, .cls-7 {
        stroke: none;
      }
    </style>
  </defs>
  <g id="Group_1363" data-name="Group 1363" transform="translate(-1346.752 938)">
    <text id="FOTONAPRAWA.PL" class="cls-1" transform="translate(1550 -900)"><tspan x="-145.85" y="0">FOTONAPRAWA.PL</tspan></text>
    <text id="FOTOTECH" class="cls-2" transform="translate(1402 -911.973)"><tspan class="cls-3" x="0" y="0">FOTO</tspan><tspan class="cls-4" y="0">TECH</tspan></text>
    <g id="Group_230" data-name="Group 230" transform="translate(1346.752 -938)">
      <g id="Path_242" data-name="Path 242" class="cls-5">
        <path class="cls-6" d="M9.336,0H38.831a9.336,9.336,0,0,1,9.336,9.336V38.831a9.336,9.336,0,0,1-9.336,9.336H9.336A9.336,9.336,0,0,1,0,38.831V9.336A9.336,9.336,0,0,1,9.336,0Z"/>
        <path class="cls-7" d="M 9.336372375488281 2.500003814697266 C 5.566783905029297 2.500003814697266 2.500003814697266 5.566783905029297 2.500003814697266 9.336372375488281 L 2.500003814697266 38.83083343505859 C 2.500003814697266 42.60042190551758 5.566783905029297 45.66720199584961 9.336372375488281 45.66720199584961 L 38.83083343505859 45.66720199584961 C 42.60042190551758 45.66720199584961 45.66720199584961 42.60042190551758 45.66720199584961 38.83083343505859 L 45.66720199584961 9.336372375488281 C 45.66720199584961 5.566783905029297 42.60042190551758 2.500003814697266 38.83083343505859 2.500003814697266 L 9.336372375488281 2.500003814697266 M 9.336372375488281 3.814697265625e-06 L 38.83083343505859 3.814697265625e-06 C 43.98716354370117 3.814697265625e-06 48.16720199584961 4.180034637451172 48.16720199584961 9.336372375488281 L 48.16720199584961 38.83083343505859 C 48.16720199584961 43.98716354370117 43.98716354370117 48.16720199584961 38.83083343505859 48.16720199584961 L 9.336372375488281 48.16720199584961 C 4.180034637451172 48.16720199584961 3.814697265625e-06 43.98716354370117 3.814697265625e-06 38.83083343505859 L 3.814697265625e-06 9.336372375488281 C 3.814697265625e-06 4.180034637451172 4.180034637451172 3.814697265625e-06 9.336372375488281 3.814697265625e-06 Z"/>
      </g>
      <g id="Group_45" data-name="Group 45" transform="translate(1.627 15.728)">
        <g id="Group_44" data-name="Group 44" transform="translate(0 5.694)">
          <path id="Path_237" data-name="Path 237" d="M2799.349,1304.793c-.485-.71-1.453-2.642-.732-6.692,0-.064-.017-.12-.113-.12h-.826c-.044,0-.111,0-.179.12l-3.331,6.74c-.045.088-.049.22.126.226s4.864,0,4.864,0C2799.209,1305.064,2799.522,1305.046,2799.349,1304.793Z" transform="translate(-2786.453 -1297.98)"/>
          <path id="Path_238" data-name="Path 238" d="M3214.481,1321.892c.032-.062,3.216-6.816,3.216-6.816.052-.1-.012-.17-.117-.164,0,0-6.077,0-6.214,0s-.155.112-.1.2c0,0,2.93,6.655,3.018,6.8S3214.449,1321.954,3214.481,1321.892Z" transform="translate(-3208.449 -1314.883)"/>
          <path id="Path_239" data-name="Path 239" d="M3220.713,1322.05l-4.128.01.017-6.946,1.035-.141s3.082,6.8,3.151,6.914S3220.778,1322.049,3220.713,1322.05Z" transform="translate(-3216.584 -1314.882)"/>
        </g>
        <g id="camera-diaphragm" transform="translate(13.272 0)">
          <path id="Path_1" data-name="Path 1" d="M.538,233.161H5.029a.17.17,0,0,1,.148.256l-3.763,6.514a.171.171,0,0,1-.3,0,8.35,8.35,0,0,1-.743-6.65A.171.171,0,0,1,.538,233.161Z" transform="translate(0 -227.432)"/>
          <path id="Path_2" data-name="Path 2" d="M130.165,6.85h0a8.3,8.3,0,0,1-6.117-2.677.171.171,0,0,1-.023-.2L126.266.086a.17.17,0,0,1,.3,0l3.751,6.508A.17.17,0,0,1,130.165,6.85Z" transform="translate(-121.835 9.805)"/>
          <path id="Path_4" data-name="Path 4" d="M449.116,11.59a8.341,8.341,0,0,1-5.386,3.968.171.171,0,0,1-.186-.081L441.3,11.589a.17.17,0,0,1,.148-.256l7.521,0A.17.17,0,0,1,449.116,11.59Z" transform="translate(-433.571 0.894)"/>
          <path id="Path_5" data-name="Path 5" d="M70.152,704.568l-7.508-.007a.17.17,0,0,1-.148-.255,8.341,8.341,0,0,1,5.374-3.961.171.171,0,0,1,.186.081l2.244,3.886A.17.17,0,0,1,70.152,704.568Z" transform="translate(-61.382 -700.141)"/>
          <path id="Path_240" data-name="Path 240" d="M7.559,4.5a.61.61,0,0,1-.175.026s-4.352.027-4.645,0-.3-.081-.426-.274S.024.263.024.263A.175.175,0,0,1,.175,0H.187a7.791,7.791,0,0,1,6.1,2.352A7.856,7.856,0,0,1,7.606,4.3.151.151,0,0,1,7.559,4.5Z" transform="translate(8.023 0)"/>
        </g>
      </g>
      <path id="Path_247" data-name="Path 247" class="cls-4" d="M3.637,0A3.637,3.637,0,1,1,0,3.637,3.637,3.637,0,0,1,3.637,0Z" transform="translate(34.307 6.586)"/>
    </g>
  </g>
</svg>
