<svg xmlns="http://www.w3.org/2000/svg" viewBox="0 0 111.959 134.754"><defs><style>.a{fill:#cd5a4f;}.b{fill:#fff;stroke:#cd5a4f;stroke-width:0.5px;}</style></defs><g transform="translate(0.328)"><ellipse class="a" cx="32.143" cy="56.819" rx="32.143" ry="56.819" transform="matrix(0.92, -0.392, 0.392, 0.92, 7.975, 25.174)"/><ellipse class="b" cx="32.143" cy="56.819" rx="32.143" ry="56.819" transform="matrix(0.92, -0.392, 0.392, 0.92, 0, 29.857)"/><g transform="translate(25.953 42.288)"><path class="a" d="M193,543.346a20.442,20.442,0,0,1,2.444-7.4c4.786-7.331,15.206-3.937,22.368,7.331.407.645.781,1.324,1.018,1.7-1.29,1.188-2.546,2.376-3.869,3.6-2.274-3.971-4.82-6.415-7.637-7.569a5.3,5.3,0,0,0-5.4.407c-3.089,2.24-3.869,8.112-1.9,14.357,1.935,6.279,6.177,11.54,10.42,12.966,3.734,1.256,6.517-.577,6.958-4.718-2.885-1.663-5.736-3.326-8.689-5.023v-7.128q7.331,4.226,14.6,8.418c2.07,10.794-3.089,18.974-10.624,16.971-9.979-2.648-18.4-16.6-19.449-28.545a6.135,6.135,0,0,0-.17-.645C193,546.537,193,544.942,193,543.346Z" transform="translate(-193 -532.066)"/><path class="a" d="M304.953,618.593V609.7c1.493.849,2.885,1.663,4.412,2.546v8.825c2.274,1.324,4.446,2.58,6.687,3.869v5.906c-2.172-1.256-4.311-2.512-6.619-3.835V635.9c-1.527-.883-2.919-1.7-4.446-2.546v-8.825c-2.274-1.324-4.446-2.58-6.687-3.869v-5.906C300.438,615.979,302.611,617.235,304.953,618.593Z" transform="translate(-262.559 -583.35)"/></g></g></svg>