<svg xmlns="http://www.w3.org/2000/svg" viewBox="0 0 112.944 135.527"><defs><style>.a{fill:#af3637;}.b{fill:#fff;stroke:#af3637;}</style></defs><g transform="translate(0.656)"><ellipse class="a" cx="32.143" cy="56.819" rx="32.143" ry="56.819" transform="matrix(0.92, -0.392, 0.392, 0.92, 8.631, 25.174)"/><ellipse class="b" cx="32.143" cy="56.819" rx="32.143" ry="56.819" transform="matrix(0.92, -0.392, 0.392, 0.92, 0, 30.302)"/><g transform="translate(28.691 39.391)"><path class="a" d="M431.132,136.146c-6.008-3.734-10.624-6.585-15.274-9.5a23.2,23.2,0,0,1-3.835-2.953,15.425,15.425,0,0,1-4.684-9.741,144.822,144.822,0,0,1-.407-20.908c.068-1.935.339-3.768.509-5.634.305-3.53,2.953-4.718,5.634-3.6a158.039,158.039,0,0,1,18.091,9.572c4.073,2.41,8.18,4.989,12.253,7.535a35.706,35.706,0,0,1,3.835,2.817,14.164,14.164,0,0,1,4.956,9.673,99.879,99.879,0,0,1,.679,15.749c-.1,3.768-.339,7.433-.713,11.031-.373,3.666-2.614,5.159-5.567,3.734C441.01,141.237,435.375,138.318,431.132,136.146ZM425.464,101.9v19.008c3.9-.95,7.7-1.867,11.608-2.817C433.135,112.624,429.367,107.329,425.464,101.9Z" transform="translate(-406.743 -83.4)"/></g></g></svg>