<svg xmlns="http://www.w3.org/2000/svg" xmlns:xlink="http://www.w3.org/1999/xlink" viewBox="0 0 232.385 233.999">
  <defs>
    <style>
      .cls-1 {
        fill: #d6b4c0;
        stroke: #b78597;
      }

      .cls-2 {
        filter: url(#Path_3729);
      }
    </style>
    <filter id="Path_3729" x="0" y="0" width="232.385" height="233.999" filterUnits="userSpaceOnUse">
      <feOffset dy="3" input="SourceAlpha"/>
      <feGaussianBlur stdDeviation="25" result="blur"/>
      <feFlood flood-color="#d6b4c0"/>
      <feComposite operator="in" in2="blur"/>
      <feComposite in="SourceGraphic"/>
    </filter>
  </defs>
  <g id="Group_1288" data-name="Group 1288" transform="translate(75.456 72.515)">
    <g class="cls-2" transform="matrix(1, 0, 0, 1, -75.46, -72.52)">
      <path id="Path_3729-2" data-name="Path 3729" class="cls-1" d="M75.7,72.3a7.551,7.551,0,0,0-2.333-5.535q-7.448-7.448-14.9-14.923a4.584,4.584,0,0,0-2.957-1.384,7.46,7.46,0,0,1-5.644-3.283,8.228,8.228,0,0,1-1.329-4.043,3.579,3.579,0,0,0-2.523-3.2A3.71,3.71,0,0,0,42,40.852c-.651.651-1.329,1.275-1.926,1.954-.326.353-.488.3-.814,0l-10.745-10.5q-6.878-6.634-13.7-13.322a3.685,3.685,0,0,1-1.194-2.171,4.986,4.986,0,0,0-1.954-3.419c-.95-.705-1.818-1.492-2.713-2.252C7.489,9.948,6.023,8.809,4.5,7.724a1.54,1.54,0,0,0-2.388.19L.733,9.3c-.923.923-.95,1.465-.217,2.5,1.764,2.442,3.69,4.775,5.616,7.109a5.149,5.149,0,0,0,3.419,1.954,3.517,3.517,0,0,1,2.143,1.167c.136.136.271.3.407.434,4.531,4.667,9.089,9.307,13.621,13.973,3.31,3.392,6.593,6.783,9.931,10.175.271.271.244.407-.027.651q-1.058.977-2.035,2.035a3.808,3.808,0,0,0,2.5,6.512,7.784,7.784,0,0,1,2.5.57,7.6,7.6,0,0,1,4.667,6.675,3.778,3.778,0,0,0,1.112,2.415q7.651,7.692,15.33,15.33a7.544,7.544,0,0,0,10.283.326,46.931,46.931,0,0,0,3.853-3.853A7.084,7.084,0,0,0,75.7,72.3ZM64.087,35.263a15.973,15.973,0,0,0,8.6-2.415c5.942-3.69,8.927-9.035,8.764-16.063,0-.38-.081-.461-.434-.244-4.5,2.5-9.035,4.965-13.539,7.461a.611.611,0,0,1-.705,0c-1.926-1.194-3.853-2.361-5.806-3.527a.658.658,0,0,1-.38-.651c.054-2.2.136-4.423.136-6.62a.859.859,0,0,1,.516-.868c4.613-2.5,9.2-5.047,13.783-7.57.543-.3.543-.3.054-.705A17.37,17.37,0,0,0,54.292,2.894c-6.241,4.233-8.764,10.229-7.733,17.69a4.479,4.479,0,0,1-1.357,4.07c-3.175,3.147-6.295,6.295-9.469,9.442-.271.271-.271.407,0,.678,1.221,1.14,2.388,2.333,3.582,3.5.19.19.271.19.488.027a7.145,7.145,0,0,1,11.287,2.089c.19.353.271.3.488.054,1.465-1.465,2.93-2.93,4.4-4.423a4.316,4.316,0,0,1,4.26-1.221A14.659,14.659,0,0,0,64.087,35.263ZM9.442,80.032a7.578,7.578,0,0,0,4.992-2.388q9.2-9.2,18.423-18.423c.19-.19.516-.407.516-.6,0-.244-.434-.244-.651-.407-.081-.054-.136-.081-.217-.136a7.18,7.18,0,0,1-1.547-10.907c.163-.19.3-.3.054-.57-1.194-1.194-2.388-2.415-3.554-3.636-.217-.217-.353-.19-.543,0C19.02,50.892,11.1,58.787,3.175,66.737a7.782,7.782,0,0,0-1.6,8.52C2.795,78.16,5.616,80.032,9.442,80.032Z" transform="translate(75.43 72.52)"/>
    </g>
  </g>
</svg>
