<svg xmlns="http://www.w3.org/2000/svg" xmlns:xlink="http://www.w3.org/1999/xlink" viewBox="0 0 523.48 498.38"><defs><style>.cls-1{fill:#191919;}.cls-17,.cls-2{fill:none;}.cls-3{isolation:isolate;}.cls-4{fill:url(#linear-gradient);}.cls-5{fill:url(#linear-gradient-2);}.cls-6{fill:#3a3a3a;}.cls-7{fill:#afafaf;}.cls-8{fill:#262626;}.cls-9{fill:#1a1a1a;}.cls-10{fill:#353535;}.cls-11{clip-path:url(#clip-path);}.cls-12{clip-path:url(#clip-path-2);}.cls-13{fill:url(#radial-gradient);}.cls-14{opacity:0.15;fill:url(#radial-gradient-2);}.cls-14,.cls-15,.cls-16,.cls-17{mix-blend-mode:screen;}.cls-15{opacity:0.5;fill:url(#radial-gradient-3);}.cls-16{fill:url(#radial-gradient-4);}.cls-17{stroke:#fff;stroke-miterlimit:10;stroke-width:2px;opacity:0.03;}.cls-18{opacity:0.87;}.cls-19{fill:#fff;}.cls-20{fill:#1c1c1c;}.cls-21{clip-path:url(#clip-path-3);}.cls-22{fill:#020202;}.cls-23{fill:#333;}.cls-24{fill:#bcbcbc;}.cls-25{fill:#848484;}.cls-26{fill:#666;}.cls-27{clip-path:url(#clip-path-4);}.cls-28{fill:url(#linear-gradient-3);}.cls-29{opacity:0.33;}.cls-30{fill:#a08500;}.cls-31{fill:#282828;}.cls-32{fill:url(#radial-gradient-5);}.cls-33{fill:url(#radial-gradient-6);}.cls-34{fill:url(#radial-gradient-7);}.cls-35{clip-path:url(#clip-path-5);}.cls-36{fill:url(#linear-gradient-4);}.cls-37{fill:url(#linear-gradient-5);}.cls-38{fill:#eaeaea;}.cls-39{fill:url(#linear-gradient-6);}.cls-40{fill:url(#linear-gradient-7);}.cls-41{fill:#b2b2b2;}.cls-42{fill:#ccc;}</style><linearGradient id="linear-gradient" x1="293.14" y1="73.08" x2="376.53" y2="217.5" gradientUnits="userSpaceOnUse"><stop offset="0" stop-color="#ababab"/><stop offset="0.06" stop-color="#878787"/><stop offset="0.13" stop-color="#606060"/><stop offset="0.2" stop-color="#414141"/><stop offset="0.27" stop-color="#2c2c2c"/><stop offset="0.34" stop-color="#1e1e1e"/><stop offset="0.4" stop-color="#1a1a1a"/><stop offset="0.76" stop-color="#181818"/><stop offset="0.88" stop-color="#111"/><stop offset="0.97" stop-color="#060606"/><stop offset="1"/></linearGradient><linearGradient id="linear-gradient-2" x1="178.81" y1="139.02" x2="262.2" y2="283.45" xlink:href="#linear-gradient"/><clipPath id="clip-path"><path class="cls-1" d="M138.2,326.86l-63.73-36.8c-5.55-3.2-10.09-11.87-10.09-19.27V235.72c0-7.4,4.54-10.83,10.09-7.62l63.73,36.79c5.55,3.21,10.09,11.88,10.09,19.27v35.07C148.29,326.63,143.75,330.06,138.2,326.86Z"/></clipPath><clipPath id="clip-path-2"><path d="M138.2,326.86l-63.73-36.8c-5.55-3.2-10.09-11.87-10.09-19.27V235.72c0-7.4,4.54-10.83,10.09-7.62l63.73,36.79c5.55,3.21,10.09,11.88,10.09,19.27v35.07C148.29,326.63,143.75,330.06,138.2,326.86Z"/></clipPath><radialGradient id="radial-gradient" cx="118.6" cy="271" r="47.27" gradientTransform="translate(0 -812.99) scale(1 4)" gradientUnits="userSpaceOnUse"><stop offset="0" stop-color="#cce0f4"/><stop offset="0.06" stop-color="#c3dcf2"/><stop offset="0.17" stop-color="#a9d2ee"/><stop offset="0.31" stop-color="#80c2e7"/><stop offset="0.46" stop-color="#47acde"/><stop offset="0.57" stop-color="#1e9cd7"/><stop offset="0.87" stop-color="#0075be"/><stop offset="0.99" stop-color="#005b97"/></radialGradient><radialGradient id="radial-gradient-2" cx="330.31" cy="-143.2" r="22.43" gradientTransform="matrix(0.6, 0.8, -0.45, 1.06, -144.7, 159.17)" gradientUnits="userSpaceOnUse"><stop offset="0" stop-color="#230000"/><stop offset="0.73" stop-color="#93432a"/><stop offset="1" stop-color="#230000"/></radialGradient><radialGradient id="radial-gradient-3" cx="330.31" cy="-143.2" r="11.21" gradientTransform="matrix(0.6, 0.8, -0.45, 1.06, -144.7, 159.17)" gradientUnits="userSpaceOnUse"><stop offset="0.15" stop-color="#fff"/><stop offset="0.21" stop-color="#e2d1d2"/><stop offset="0.29" stop-color="#bf9a9c"/><stop offset="0.36" stop-color="#a67276"/><stop offset="0.42" stop-color="#975a5e"/><stop offset="0.45" stop-color="#915155"/><stop offset="0.56" stop-color="#6c3638"/><stop offset="0.68" stop-color="#44191a"/><stop offset="0.79" stop-color="#2c0707"/><stop offset="0.85" stop-color="#230000"/><stop offset="0.86" stop-color="#270201"/><stop offset="0.86" stop-color="#340805"/><stop offset="0.87" stop-color="#48120b"/><stop offset="0.88" stop-color="#652114"/><stop offset="0.89" stop-color="#8b331f"/><stop offset="0.9" stop-color="#b8492d"/><stop offset="0.9" stop-color="#d65836"/><stop offset="0.9" stop-color="#c95232"/><stop offset="0.91" stop-color="#9d3c25"/><stop offset="0.93" stop-color="#782a1a"/><stop offset="0.94" stop-color="#591b10"/><stop offset="0.95" stop-color="#410f09"/><stop offset="0.97" stop-color="#300604"/><stop offset="0.98" stop-color="#260201"/><stop offset="1" stop-color="#230000"/></radialGradient><radialGradient id="radial-gradient-4" cx="330.31" cy="-143.2" r="9.35" gradientTransform="matrix(0.6, 0.8, -0.45, 1.06, -144.7, 159.17)" gradientUnits="userSpaceOnUse"><stop offset="0.15" stop-color="#fff"/><stop offset="0.28" stop-color="#c2c2c2"/><stop offset="0.43" stop-color="#888"/><stop offset="0.56" stop-color="#575757"/><stop offset="0.69" stop-color="#313131"/><stop offset="0.81" stop-color="#161616"/><stop offset="0.92" stop-color="#060606"/><stop offset="1"/></radialGradient><clipPath id="clip-path-3"><path class="cls-2" d="M272.08,274.77l-15.66,9.05c-1.07.61-1.94-.05-1.94-1.47v-5a4.65,4.65,0,0,1,1.93-3.71l15.66-9c1.07-.61,1.94.05,1.94,1.47v4.95A4.66,4.66,0,0,1,272.08,274.77Z"/></clipPath><clipPath id="clip-path-4"><path class="cls-2" d="M362,453.94,206.66,364.29c-10.16-5.87-18.47-21.75-18.47-35.29V277.35c0-13.54,8.31-19.82,18.47-14L362,353.05c10.16,5.86,18.47,21.74,18.47,35.28V440C380.42,453.52,372.11,459.81,362,453.94Z"/></clipPath><linearGradient id="linear-gradient-3" x1="256.54" y1="406.76" x2="312.08" y2="310.57" gradientUnits="userSpaceOnUse"><stop offset="0" stop-color="#666"/><stop offset="0.1" stop-color="#525252"/><stop offset="0.22" stop-color="#414141"/><stop offset="0.35" stop-color="#363636"/><stop offset="0.5" stop-color="#333"/><stop offset="0.63" stop-color="#3a3a3a"/><stop offset="0.83" stop-color="#4c4c4c"/><stop offset="1" stop-color="#636363"/></linearGradient><radialGradient id="radial-gradient-5" cx="290.67" cy="219.95" r="9.16" gradientTransform="translate(6.04 95.17) rotate(2.95) scale(1 0.5)" gradientUnits="userSpaceOnUse"><stop offset="0" stop-color="#666"/><stop offset="0.17" stop-color="#565656"/><stop offset="0.44" stop-color="#434343"/><stop offset="0.72" stop-color="#373737"/><stop offset="1" stop-color="#333"/></radialGradient><radialGradient id="radial-gradient-6" cx="268.97" cy="232.41" r="9.16" gradientTransform="translate(6.33 102.52) rotate(2.95) scale(1 0.5)" xlink:href="#radial-gradient-5"/><radialGradient id="radial-gradient-7" cx="246.12" cy="246.89" r="9.16" gradientTransform="translate(6.68 110.95) rotate(2.95) scale(1 0.5)" xlink:href="#radial-gradient-5"/><clipPath id="clip-path-5"><path class="cls-2" d="M295.72,260.83l-15.66,9c-1.07.62-1.94,0-1.94-1.46v-5a4.66,4.66,0,0,1,1.94-3.71l15.66-9c1.06-.62,1.93,0,1.94,1.47v4.95A4.64,4.64,0,0,1,295.72,260.83Z"/></clipPath><linearGradient id="linear-gradient-4" x1="301.79" y1="78.87" x2="326.05" y2="78.87" gradientUnits="userSpaceOnUse"><stop offset="0" stop-color="#999"/><stop offset="0.3" stop-color="#969696"/><stop offset="0.48" stop-color="#8e8e8e"/><stop offset="0.64" stop-color="gray"/><stop offset="0.77" stop-color="#6b6b6b"/><stop offset="0.89" stop-color="#515151"/><stop offset="1" stop-color="#333"/></linearGradient><linearGradient id="linear-gradient-5" x1="301.79" y1="81.5" x2="326.05" y2="81.5" xlink:href="#linear-gradient-4"/><linearGradient id="linear-gradient-6" x1="253.97" y1="96.62" x2="314.64" y2="96.62" gradientUnits="userSpaceOnUse"><stop offset="0" stop-color="#999"/><stop offset="0.08" stop-color="#868686"/><stop offset="0.23" stop-color="#686868"/><stop offset="0.4" stop-color="#515151"/><stop offset="0.57" stop-color="#404040"/><stop offset="0.76" stop-color="#363636"/><stop offset="1" stop-color="#333"/></linearGradient><linearGradient id="linear-gradient-7" x1="253.97" y1="97.51" x2="314.64" y2="97.51" xlink:href="#linear-gradient-6"/></defs><title>Artboard 9 copy 5</title><g class="cls-3"><g id="Layer_1" data-name="Layer 1"><path class="cls-4" d="M389.42,176.8c0,40.2-24.44,58.68-54.58,41.27s-54.59-64.1-54.59-104.3c0-22.55,7.69-38.26,19.77-44.64,9.45-5,21.58-4.26,34.82,3.38C365,89.91,389.42,136.61,389.42,176.8Z"/><polygon class="cls-5" points="75.16 198.89 299.22 69.51 369.85 221.16 141.79 352.97 75.16 198.89"/><path class="cls-6" d="M164.56,306.56c0,40.2-24.44,58.68-54.59,41.27s-54.58-64.1-54.58-104.3c0-22.55,7.69-38.26,19.77-44.64,9.45-5,21.58-4.26,34.81,3.38C140.12,219.67,164.56,266.37,164.56,306.56Z"/><path class="cls-7" d="M157.84,304.78c0,37.93-23.06,55.36-51.51,38.94s-51.5-60.48-51.5-98.41c0-21.27,7.26-36.1,18.65-42.12,8.92-4.7,20.37-4,32.85,3.19C134.78,222.8,157.84,266.86,157.84,304.78Z"/><path class="cls-8" d="M154.05,302.6c0,35.14-21.36,51.29-47.72,36.07s-47.71-56-47.71-91.17c0-19.71,6.72-33.45,17.28-39,8.26-4.36,18.87-3.72,30.43,3C132.69,226.64,154.05,267.46,154.05,302.6Z"/><path class="cls-9" d="M376.38,217.94,182.13,342.7c-16-3.75-32.69,5.42-32.69,5.42s19.25-13,14.31-55.19c-.48-3.56-1.72-17.88-10.48-37.56L376.38,127.9c5.8-3.35,10.55.24,10.55,8v61.9C386.93,205.52,382.18,214.59,376.38,217.94Z"/><path class="cls-9" d="M372.94,115.18s5.59,9.16,12.83,14,10.7,5.84,10.7,5.84L179.19,341.32l-13-7.74Z"/><path class="cls-10" d="M388.72,225,187.06,341.5c-5.81,3.35-10.56-.24-10.56-8v-61.9c0-7.74,4.75-16.81,10.56-20.16L388.72,134.91c5.81-3.35,10.56.24,10.56,8v61.9C399.28,212.53,394.53,221.6,388.72,225Z"/><ellipse class="cls-9" cx="311.67" cy="201.92" rx="2.46" ry="1.39" transform="translate(3.83 409.64) rotate(-66.95)"/><ellipse class="cls-9" cx="320.26" cy="196.96" rx="2.46" ry="1.39" transform="translate(13.63 414.53) rotate(-66.95)"/><ellipse class="cls-9" cx="328.85" cy="192" rx="2.46" ry="1.39" transform="translate(23.42 419.42) rotate(-66.95)"/><ellipse class="cls-9" cx="337.44" cy="187.04" rx="2.46" ry="1.39" transform="translate(33.21 424.3) rotate(-66.95)"/><ellipse class="cls-9" cx="346.04" cy="182.08" rx="2.46" ry="1.39" transform="translate(43.01 429.19) rotate(-66.95)"/><ellipse class="cls-9" cx="354.63" cy="177.12" rx="2.46" ry="1.39" transform="translate(52.8 434.08) rotate(-66.95)"/><ellipse class="cls-9" cx="363.22" cy="172.15" rx="2.46" ry="1.39" transform="translate(62.59 438.97) rotate(-66.95)"/><ellipse class="cls-9" cx="371.82" cy="167.19" rx="2.46" ry="1.39" transform="translate(72.39 443.86) rotate(-66.95)"/><ellipse class="cls-9" cx="380.41" cy="162.23" rx="2.46" ry="1.39" transform="translate(82.18 448.75) rotate(-66.95)"/><ellipse class="cls-9" cx="311.67" cy="210" rx="2.46" ry="1.39" transform="translate(-3.6 414.56) rotate(-66.95)"/><ellipse class="cls-9" cx="320.26" cy="205.04" rx="2.46" ry="1.39" transform="translate(6.19 419.44) rotate(-66.95)"/><ellipse class="cls-9" cx="328.85" cy="200.08" rx="2.46" ry="1.39" transform="translate(15.99 424.33) rotate(-66.95)"/><ellipse class="cls-9" cx="337.44" cy="195.12" rx="2.46" ry="1.39" transform="translate(25.78 429.22) rotate(-66.95)"/><ellipse class="cls-9" cx="346.04" cy="190.16" rx="2.46" ry="1.39" transform="translate(35.57 434.11) rotate(-66.95)"/><ellipse class="cls-9" cx="354.63" cy="185.2" rx="2.46" ry="1.39" transform="translate(45.37 439) rotate(-66.95)"/><ellipse class="cls-9" cx="363.22" cy="180.23" rx="2.46" ry="1.39" transform="translate(55.16 443.89) rotate(-66.95)"/><ellipse class="cls-9" cx="371.82" cy="175.27" rx="2.46" ry="1.39" transform="translate(64.95 448.77) rotate(-66.95)"/><ellipse class="cls-9" cx="380.41" cy="170.31" rx="2.46" ry="1.39" transform="translate(74.75 453.66) rotate(-66.95)"/><ellipse class="cls-9" cx="311.67" cy="218.08" rx="2.46" ry="1.39" transform="translate(-11.04 419.47) rotate(-66.95)"/><ellipse class="cls-9" cx="320.26" cy="213.12" rx="2.46" ry="1.39" transform="translate(-1.24 424.36) rotate(-66.95)"/><ellipse class="cls-9" cx="328.85" cy="208.16" rx="2.46" ry="1.39" transform="translate(8.55 429.25) rotate(-66.95)"/><ellipse class="cls-9" cx="337.44" cy="203.2" rx="2.46" ry="1.39" transform="translate(18.34 434.14) rotate(-66.95)"/><ellipse class="cls-9" cx="346.04" cy="198.24" rx="2.46" ry="1.39" transform="translate(28.14 439.03) rotate(-66.95)"/><ellipse class="cls-9" cx="354.63" cy="193.28" rx="2.46" ry="1.39" transform="translate(37.93 443.91) rotate(-66.95)"/><ellipse class="cls-9" cx="363.22" cy="188.31" rx="2.46" ry="1.39" transform="translate(47.72 448.8) rotate(-66.95)"/><ellipse class="cls-9" cx="371.82" cy="183.35" rx="2.46" ry="1.39" transform="translate(57.52 453.69) rotate(-66.95)"/><ellipse class="cls-9" cx="380.41" cy="178.39" rx="2.46" ry="1.39" transform="translate(67.31 458.58) rotate(-66.95)"/><ellipse class="cls-9" cx="311.67" cy="226.16" rx="2.46" ry="1.39" transform="translate(-18.47 424.39) rotate(-66.95)"/><ellipse class="cls-9" cx="320.26" cy="221.2" rx="2.46" ry="1.39" transform="translate(-8.68 429.28) rotate(-66.95)"/><ellipse class="cls-9" cx="328.85" cy="216.24" rx="2.46" ry="1.39" transform="translate(1.11 434.17) rotate(-66.95)"/><ellipse class="cls-9" cx="337.44" cy="211.28" rx="2.46" ry="1.39" transform="translate(10.91 439.05) rotate(-66.95)"/><ellipse class="cls-9" cx="346.04" cy="206.32" rx="2.46" ry="1.39" transform="translate(20.7 443.94) rotate(-66.95)"/><ellipse class="cls-9" cx="354.63" cy="201.36" rx="2.46" ry="1.39" transform="translate(30.5 448.83) rotate(-66.95)"/><ellipse class="cls-9" cx="363.22" cy="196.39" rx="2.46" ry="1.39" transform="translate(40.29 453.72) rotate(-66.95)"/><ellipse class="cls-9" cx="371.82" cy="191.43" rx="2.46" ry="1.39" transform="translate(50.08 458.61) rotate(-66.95)"/><ellipse class="cls-9" cx="380.41" cy="186.47" rx="2.46" ry="1.39" transform="translate(59.88 463.5) rotate(-66.95)"/><ellipse class="cls-9" cx="311.67" cy="234.24" rx="2.46" ry="1.39" transform="translate(-25.91 429.31) rotate(-66.95)"/><ellipse class="cls-9" cx="320.26" cy="229.28" rx="2.46" ry="1.39" transform="translate(-16.11 434.19) rotate(-66.95)"/><ellipse class="cls-9" cx="328.85" cy="224.32" rx="2.46" ry="1.39" transform="translate(-6.32 439.08) rotate(-66.95)"/><ellipse class="cls-9" cx="337.44" cy="219.36" rx="2.46" ry="1.39" transform="translate(3.47 443.97) rotate(-66.95)"/><ellipse class="cls-9" cx="346.04" cy="214.4" rx="2.46" ry="1.39" transform="translate(13.27 448.86) rotate(-66.95)"/><ellipse class="cls-9" cx="354.63" cy="209.44" rx="2.46" ry="1.39" transform="translate(23.06 453.75) rotate(-66.95)"/><ellipse class="cls-9" cx="363.22" cy="204.48" rx="2.46" ry="1.39" transform="translate(32.85 458.64) rotate(-66.95)"/><ellipse class="cls-9" cx="371.82" cy="199.51" rx="2.46" ry="1.39" transform="translate(42.65 463.52) rotate(-66.95)"/><ellipse class="cls-9" cx="380.41" cy="194.55" rx="2.46" ry="1.39" transform="translate(52.44 468.41) rotate(-66.95)"/><ellipse class="cls-9" cx="311.67" cy="242.32" rx="2.46" ry="1.39" transform="translate(-33.34 434.22) rotate(-66.95)"/><ellipse class="cls-9" cx="320.26" cy="237.36" rx="2.46" ry="1.39" transform="translate(-23.55 439.11) rotate(-66.95)"/><ellipse class="cls-9" cx="328.85" cy="232.4" rx="2.46" ry="1.39" transform="translate(-13.76 444) rotate(-66.95)"/><ellipse class="cls-9" cx="337.44" cy="227.44" rx="2.46" ry="1.39" transform="translate(-3.96 448.89) rotate(-66.95)"/><ellipse class="cls-9" cx="346.04" cy="222.48" rx="2.46" ry="1.39" transform="translate(5.83 453.78) rotate(-66.95)"/><ellipse class="cls-9" cx="354.63" cy="217.52" rx="2.46" ry="1.39" transform="translate(15.63 458.66) rotate(-66.95)"/><ellipse class="cls-9" cx="363.22" cy="212.56" rx="2.46" ry="1.39" transform="translate(25.42 463.55) rotate(-66.95)"/><ellipse class="cls-9" cx="371.82" cy="207.59" rx="2.46" ry="1.39" transform="translate(35.21 468.44) rotate(-66.95)"/><ellipse class="cls-9" cx="380.41" cy="202.63" rx="2.46" ry="1.39" transform="translate(45.01 473.33) rotate(-66.95)"/><ellipse class="cls-9" cx="311.67" cy="250.4" rx="2.46" ry="1.39" transform="translate(-40.78 439.14) rotate(-66.95)"/><ellipse class="cls-9" cx="320.26" cy="245.44" rx="2.46" ry="1.39" transform="translate(-30.98 444.03) rotate(-66.95)"/><ellipse class="cls-9" cx="328.85" cy="240.48" rx="2.46" ry="1.39" transform="translate(-21.19 448.91) rotate(-66.95)"/><ellipse class="cls-9" cx="337.44" cy="235.52" rx="2.46" ry="1.39" transform="translate(-11.4 453.8) rotate(-66.95)"/><ellipse class="cls-9" cx="346.04" cy="230.56" rx="2.46" ry="1.39" transform="translate(-1.6 458.69) rotate(-66.95)"/><ellipse class="cls-9" cx="354.63" cy="225.6" rx="2.46" ry="1.39" transform="translate(8.19 463.58) rotate(-66.95)"/><ellipse class="cls-9" cx="363.22" cy="220.64" rx="2.46" ry="1.39" transform="translate(17.98 468.47) rotate(-66.95)"/><ellipse class="cls-9" cx="371.82" cy="215.67" rx="2.46" ry="1.39" transform="translate(27.78 473.36) rotate(-66.95)"/><ellipse class="cls-9" cx="380.41" cy="210.71" rx="2.46" ry="1.39" transform="translate(37.57 478.24) rotate(-66.95)"/><ellipse cx="310.98" cy="201.92" rx="2.46" ry="1.39" transform="translate(3.42 409.01) rotate(-66.95)"/><ellipse cx="319.57" cy="196.96" rx="2.46" ry="1.39" transform="translate(13.21 413.9) rotate(-66.95)"/><ellipse cx="328.17" cy="192" rx="2.46" ry="1.39" transform="translate(23 418.79) rotate(-66.95)"/><ellipse cx="336.76" cy="187.04" rx="2.46" ry="1.39" transform="translate(32.8 423.67) rotate(-66.95)"/><ellipse cx="345.35" cy="182.08" rx="2.46" ry="1.39" transform="translate(42.59 428.56) rotate(-66.95)"/><ellipse cx="353.95" cy="177.12" rx="2.46" ry="1.39" transform="translate(52.38 433.45) rotate(-66.95)"/><ellipse cx="362.54" cy="172.15" rx="2.46" ry="1.39" transform="translate(62.18 438.34) rotate(-66.95)"/><ellipse cx="371.13" cy="167.19" rx="2.46" ry="1.39" transform="translate(71.97 443.23) rotate(-66.95)"/><ellipse cx="379.72" cy="162.23" rx="2.46" ry="1.39" transform="translate(81.76 448.12) rotate(-66.95)"/><ellipse cx="310.98" cy="210" rx="2.46" ry="1.39" transform="translate(-4.02 413.93) rotate(-66.95)"/><ellipse cx="319.57" cy="205.04" rx="2.46" ry="1.39" transform="translate(5.77 418.81) rotate(-66.95)"/><ellipse cx="328.17" cy="200.08" rx="2.46" ry="1.39" transform="translate(15.57 423.7) rotate(-66.95)"/><ellipse cx="336.76" cy="195.12" rx="2.46" ry="1.39" transform="translate(25.36 428.59) rotate(-66.95)"/><ellipse cx="345.35" cy="190.16" rx="2.46" ry="1.39" transform="translate(35.16 433.48) rotate(-66.95)"/><ellipse cx="353.95" cy="185.2" rx="2.46" ry="1.39" transform="matrix(0.39, -0.92, 0.92, 0.39, 44.95, 438.37)"/><ellipse cx="362.54" cy="180.23" rx="2.46" ry="1.39" transform="translate(54.74 443.26) rotate(-66.95)"/><ellipse cx="371.13" cy="175.27" rx="2.46" ry="1.39" transform="translate(64.54 448.14) rotate(-66.95)"/><ellipse cx="379.72" cy="170.31" rx="2.46" ry="1.39" transform="translate(74.33 453.03) rotate(-66.95)"/><ellipse cx="310.98" cy="218.08" rx="2.46" ry="1.39" transform="matrix(0.39, -0.92, 0.92, 0.39, -11.45, 418.84)"/><ellipse cx="319.57" cy="213.12" rx="2.46" ry="1.39" transform="translate(-1.66 423.73) rotate(-66.95)"/><ellipse cx="328.17" cy="208.16" rx="2.46" ry="1.39" transform="translate(8.13 428.62) rotate(-66.95)"/><ellipse cx="336.76" cy="203.2" rx="2.46" ry="1.39" transform="translate(17.93 433.51) rotate(-66.95)"/><ellipse cx="345.35" cy="198.24" rx="2.46" ry="1.39" transform="translate(27.72 438.4) rotate(-66.95)"/><ellipse cx="353.95" cy="193.28" rx="2.46" ry="1.39" transform="translate(37.51 443.28) rotate(-66.95)"/><ellipse cx="362.54" cy="188.31" rx="2.46" ry="1.39" transform="translate(47.31 448.17) rotate(-66.95)"/><ellipse cx="371.13" cy="183.35" rx="2.46" ry="1.39" transform="translate(57.1 453.06) rotate(-66.95)"/><ellipse cx="379.72" cy="178.39" rx="2.46" ry="1.39" transform="translate(66.89 457.95) rotate(-66.95)"/><ellipse cx="310.98" cy="226.16" rx="2.46" ry="1.39" transform="translate(-18.89 423.76) rotate(-66.95)"/><ellipse cx="319.57" cy="221.2" rx="2.46" ry="1.39" transform="translate(-9.1 428.65) rotate(-66.95)"/><ellipse cx="328.17" cy="216.24" rx="2.46" ry="1.39" transform="translate(0.7 433.54) rotate(-66.95)"/><ellipse cx="336.76" cy="211.28" rx="2.46" ry="1.39" transform="translate(10.49 438.42) rotate(-66.95)"/><ellipse cx="345.35" cy="206.32" rx="2.46" ry="1.39" transform="matrix(0.39, -0.92, 0.92, 0.39, 20.29, 443.31)"/><ellipse cx="353.95" cy="201.36" rx="2.46" ry="1.39" transform="translate(30.08 448.2) rotate(-66.95)"/><ellipse cx="362.54" cy="196.39" rx="2.46" ry="1.39" transform="translate(39.87 453.09) rotate(-66.95)"/><ellipse cx="371.13" cy="191.43" rx="2.46" ry="1.39" transform="translate(49.67 457.98) rotate(-66.95)"/><ellipse cx="379.72" cy="186.47" rx="2.46" ry="1.39" transform="translate(59.46 462.87) rotate(-66.95)"/><ellipse cx="310.98" cy="234.24" rx="2.46" ry="1.39" transform="translate(-26.32 428.67) rotate(-66.95)"/><ellipse cx="319.57" cy="229.28" rx="2.46" ry="1.39" transform="translate(-16.53 433.56) rotate(-66.95)"/><ellipse cx="328.17" cy="224.32" rx="2.46" ry="1.39" transform="translate(-6.74 438.45) rotate(-66.95)"/><ellipse cx="336.76" cy="219.36" rx="2.46" ry="1.39" transform="translate(3.06 443.34) rotate(-66.95)"/><ellipse cx="345.35" cy="214.4" rx="2.46" ry="1.39" transform="translate(12.85 448.23) rotate(-66.95)"/><ellipse cx="353.95" cy="209.44" rx="2.46" ry="1.39" transform="translate(22.64 453.12) rotate(-66.95)"/><ellipse cx="362.54" cy="204.48" rx="2.46" ry="1.39" transform="translate(32.44 458) rotate(-66.95)"/><ellipse cx="371.13" cy="199.51" rx="2.46" ry="1.39" transform="translate(42.23 462.89) rotate(-66.95)"/><ellipse cx="379.72" cy="194.55" rx="2.46" ry="1.39" transform="translate(52.02 467.78) rotate(-66.95)"/><ellipse cx="310.98" cy="242.32" rx="2.46" ry="1.39" transform="translate(-33.76 433.59) rotate(-66.95)"/><ellipse cx="319.57" cy="237.36" rx="2.46" ry="1.39" transform="translate(-23.97 438.48) rotate(-66.95)"/><ellipse cx="328.17" cy="232.4" rx="2.46" ry="1.39" transform="translate(-14.17 443.37) rotate(-66.95)"/><ellipse cx="336.76" cy="227.44" rx="2.46" ry="1.39" transform="translate(-4.38 448.26) rotate(-66.95)"/><ellipse cx="345.35" cy="222.48" rx="2.46" ry="1.39" transform="translate(5.41 453.14) rotate(-66.95)"/><ellipse cx="353.95" cy="217.52" rx="2.46" ry="1.39" transform="translate(15.21 458.03) rotate(-66.95)"/><ellipse cx="362.54" cy="212.56" rx="2.46" ry="1.39" transform="translate(25 462.92) rotate(-66.95)"/><ellipse cx="371.13" cy="207.59" rx="2.46" ry="1.39" transform="translate(34.8 467.81) rotate(-66.95)"/><ellipse cx="379.72" cy="202.63" rx="2.46" ry="1.39" transform="translate(44.59 472.7) rotate(-66.95)"/><ellipse cx="310.98" cy="250.4" rx="2.46" ry="1.39" transform="translate(-41.19 438.51) rotate(-66.95)"/><ellipse cx="319.57" cy="245.44" rx="2.46" ry="1.39" transform="translate(-31.4 443.4) rotate(-66.95)"/><ellipse cx="328.17" cy="240.48" rx="2.46" ry="1.39" transform="translate(-21.61 448.28) rotate(-66.95)"/><ellipse cx="336.76" cy="235.52" rx="2.46" ry="1.39" transform="translate(-11.81 453.17) rotate(-66.95)"/><ellipse cx="345.35" cy="230.56" rx="2.46" ry="1.39" transform="translate(-2.02 458.06) rotate(-66.95)"/><ellipse cx="353.95" cy="225.6" rx="2.46" ry="1.39" transform="translate(7.77 462.95) rotate(-66.95)"/><ellipse cx="362.54" cy="220.64" rx="2.46" ry="1.39" transform="translate(17.57 467.84) rotate(-66.95)"/><ellipse cx="371.13" cy="215.67" rx="2.46" ry="1.39" transform="translate(27.36 472.73) rotate(-66.95)"/><ellipse cx="379.72" cy="210.71" rx="2.46" ry="1.39" transform="translate(37.15 477.61) rotate(-66.95)"/><path class="cls-1" d="M138.2,326.86l-63.73-36.8c-5.55-3.2-10.09-11.87-10.09-19.27V235.72c0-7.4,4.54-10.83,10.09-7.62l63.73,36.79c5.55,3.21,10.09,11.88,10.09,19.27v35.07C148.29,326.63,143.75,330.06,138.2,326.86Z"/><path d="M138.2,326.86l-63.73-36.8c-5.55-3.2-10.09-11.87-10.09-19.27V235.72c0-7.4,4.54-10.83,10.09-7.62l63.73,36.79c5.55,3.21,10.09,11.88,10.09,19.27v35.07C148.29,326.63,143.75,330.06,138.2,326.86Z"/><g class="cls-12"><path class="cls-13" d="M156.49,292.87c0,27.91-17,40.73-37.89,28.65S80.71,277,80.71,249.12c0-15.66,5.34-26.57,13.72-31,6.56-3.47,15-3,24.17,2.34C139.53,232.55,156.49,265,156.49,292.87Z"/><line class="cls-2" x1="118.6" y1="271" x2="112.95" y2="257.2"/><ellipse class="cls-2" cx="118.6" cy="271" rx="7.03" ry="12.42" transform="translate(-96.64 68.07) rotate(-23.05)"/><ellipse class="cls-2" cx="118.6" cy="271" rx="8.43" ry="14.91" transform="translate(-96.64 68.07) rotate(-23.05)"/><polyline class="cls-2" points="118.6 271 80.56 283 118.6 271 156.64 258.99 118.6 271 93.12 205.56 118.6 271 144.08 336.43 118.6 271 100.17 264.8 118.6 271 137.03 277.19 118.6 271 115.27 244.5 118.6 271 121.93 297.49 118.6 271 94.71 312.14 118.6 271 142.49 229.85 118.6 271 77.4 215.35 118.6 271 159.8 326.64 118.6 271 111.65 274.58 118.6 271 125.55 267.41 118.6 271 112.9 258.44 118.6 271 124.3 283.55 118.6 271 102.63 291.77 118.6 271 134.57 250.22 118.6 271 96.1 236.71 118.6 271 141.09 305.28 118.6 271 97.85 305.98 118.6 271 139.35 236.01 118.6 271 83.38 223 118.6 271 153.82 319 118.6 271 82.37 254.64 118.6 271 154.82 287.35 118.6 271 115.18 220.72 118.6 271 122.02 321.27 118.6 271 100.12 275.06 118.6 271 137.07 266.93 118.6 271 107.55 239.99 118.6 271 129.65 302.01 118.6 271 115.08 269.48 118.6 271 122.12 272.51 118.6 271 118.21 266.08 118.6 271 118.99 275.91 118.6 271 92.35 258.8 118.6 271 144.84 283.19 118.6 271 116.38 234.72 118.6 271 120.82 307.27 118.6 271 95.29 310.45 118.6 271 141.91 231.54 118.6 271 78.92 217.01 118.6 271 158.28 324.98 118.6 271 121.78 337.1 118.6 271 115.42 204.89 118.6 271 70.4 247.41 118.6 271 166.8 294.58 118.6 271 118.01 274.25 118.6 271 119.18 267.74 118.6 271 115.9 268.66 118.6 271 121.29 273.33 118.6 271 86.76 293.17 118.6 271 150.44 248.82 118.6 271 88.18 210.99 118.6 271 149.01 331.01 118.6 271 100.24 271.66 118.6 271 136.96 270.33 118.6 271 110.15 241.64 118.6 271 127.05 300.35"/><ellipse class="cls-14" cx="118.6" cy="271" rx="16.87" ry="29.82" transform="translate(-96.64 68.07) rotate(-23.05)"/><ellipse class="cls-15" cx="118.6" cy="271" rx="8.43" ry="14.91" transform="translate(-96.64 68.07) rotate(-23.05)"/><ellipse class="cls-16" cx="118.6" cy="271" rx="7.03" ry="12.42" transform="translate(-96.64 68.07) rotate(-23.05)"/><polyline class="cls-17" points="118.6 271 80.56 283 118.6 271 156.64 258.99 118.6 271 93.12 205.56 118.6 271 144.08 336.43 118.6 271 100.17 264.8 118.6 271 137.03 277.19 118.6 271 115.27 244.5 118.6 271 121.93 297.49 118.6 271 94.71 312.14 118.6 271 142.49 229.85 118.6 271 77.4 215.35 118.6 271 159.8 326.64 118.6 271 111.65 274.58 118.6 271 125.55 267.41 118.6 271 112.9 258.44 118.6 271 124.3 283.55 118.6 271 102.63 291.77 118.6 271 134.57 250.22 118.6 271 96.1 236.71 118.6 271 141.09 305.28 118.6 271 97.85 305.98 118.6 271 139.35 236.01 118.6 271 83.38 223 118.6 271 153.82 319 118.6 271 82.37 254.64 118.6 271 154.82 287.35 118.6 271 115.18 220.72 118.6 271 122.02 321.27 118.6 271 100.12 275.06 118.6 271 137.07 266.93 118.6 271 107.55 239.99 118.6 271 129.65 302.01 118.6 271 115.08 269.48 118.6 271 122.12 272.51 118.6 271 118.21 266.08 118.6 271 118.99 275.91 118.6 271 92.35 258.8 118.6 271 144.84 283.19 118.6 271 116.38 234.72 118.6 271 120.82 307.27 118.6 271 95.29 310.45 118.6 271 141.91 231.54 118.6 271 78.92 217.01 118.6 271 158.28 324.98 118.6 271 121.78 337.1 118.6 271 115.42 204.89 118.6 271 70.4 247.41 118.6 271 166.8 294.58 118.6 271 118.01 274.25 118.6 271 119.18 267.74 118.6 271 115.9 268.66 118.6 271 121.29 273.33 118.6 271 86.76 293.17 118.6 271 150.44 248.82 118.6 271 88.18 210.99 118.6 271 149.01 331.01 118.6 271 100.24 271.66 118.6 271 136.96 270.33 118.6 271 110.15 241.64 118.6 271 127.05 300.35"/></g><g class="cls-18"><path class="cls-19" d="M93.16,225.5l2-2.23-2-1.13v-.93l3,1.72v.88l-2,2.26,2,1.18v.93l-3-1.76Z"/><path class="cls-19" d="M99.8,229.79c-.3.24-.72.2-1.29-.13a3.2,3.2,0,0,1-1.28-1.35,5.15,5.15,0,0,1-.6-2.51c0-1,.2-1.57.6-1.82s.72-.19,1.28.13a3.25,3.25,0,0,1,1.29,1.36,5,5,0,0,1,.6,2.5C100.4,228.92,100.2,229.52,99.8,229.79Zm-.51-1.09a1.84,1.84,0,0,0,.29-1.2,3.76,3.76,0,0,0-.29-1.53,1.92,1.92,0,0,0-.78-.93c-.32-.19-.58-.18-.77,0a1.77,1.77,0,0,0-.3,1.2,3.6,3.6,0,0,0,.3,1.53,1.91,1.91,0,0,0,.77.93Q99,229,99.29,228.7Z"/><path class="cls-19" d="M104.05,232.25c-.3.23-.73.19-1.29-.14a3.23,3.23,0,0,1-1.29-1.35,5.26,5.26,0,0,1-.59-2.51c0-1,.2-1.56.59-1.82s.73-.19,1.29.14a3.23,3.23,0,0,1,1.29,1.35,5,5,0,0,1,.59,2.51C104.64,231.37,104.45,232,104.05,232.25Zm-.51-1.1a1.85,1.85,0,0,0,.28-1.2,3.8,3.8,0,0,0-.28-1.53,1.92,1.92,0,0,0-.78-.93.58.58,0,0,0-.78,0,1.79,1.79,0,0,0-.29,1.19,3.85,3.85,0,0,0,.29,1.54,2,2,0,0,0,.78.93C103.09,231.37,103.35,231.36,103.54,231.15Z"/><path class="cls-19" d="M107.88,229.68l1.18.68v5.24l-.76-.44v-4.39l-.74,4-.8-.47-.74-4.82v4.4l-.76-.44v-5.24l1.19.69.72,4.53Z"/><path class="cls-19" d="M111.34,231.68l.82.47v4.3l2,1.13v.95l-2.78-1.61Z"/><path class="cls-19" d="M117.58,236.21,115.5,235v1.11l1.91,1.1v.91L115.5,237v1.35l2.18,1.26v.94l-3-1.72v-5.24l2.88,1.66Z"/><path class="cls-19" d="M118.3,235.7l.86.5,1.56,4.55V237.1l.77.44v5.24l-.82-.47-1.6-4.65v3.72l-.77-.44Z"/><path class="cls-19" d="M122.85,242a2.25,2.25,0,0,0,.15.62,1.64,1.64,0,0,0,.7.73,1.37,1.37,0,0,0,.48.19c.24,0,.36-.11.36-.4a.81.81,0,0,0-.18-.5,3,3,0,0,0-.54-.56l-.43-.37a5.52,5.52,0,0,1-.86-.9,2.45,2.45,0,0,1-.4-1.37,1,1,0,0,1,.39-.94c.26-.16.64-.1,1.14.19a3.21,3.21,0,0,1,1.08,1.06,3,3,0,0,1,.46,1.54l-.79-.45a1.45,1.45,0,0,0-.31-.86,1.94,1.94,0,0,0-.49-.41.68.68,0,0,0-.52-.13c-.13,0-.2.16-.2.36a.88.88,0,0,0,.19.53,4.35,4.35,0,0,0,.53.52l.69.62a3.54,3.54,0,0,1,.68.77,2.43,2.43,0,0,1,.35,1.27,1,1,0,0,1-.42,1c-.28.15-.67.08-1.18-.21a3.51,3.51,0,0,1-1.22-1.17,3,3,0,0,1-.44-1.54Z"/></g><g class="cls-18"><path class="cls-19" d="M95.77,316.74v-4.07l.63.36v1.56l1.19.68v-1.55l.64.37v4.07l-.64-.36V316l-1.19-.69v1.82Z"/><path class="cls-19" d="M100.63,315.56a2.35,2.35,0,0,1,.52.82,3.47,3.47,0,0,1,.22.79,4.51,4.51,0,0,1,.06.7,2.42,2.42,0,0,1-.25,1.24c-.22.38-.56.44-1,.17l-1.32-.76v-4.08l1.32.76A2.74,2.74,0,0,1,100.63,315.56Zm-1.17-.05v2.66l.59.34c.3.17.51.1.63-.23a2,2,0,0,0,.1-.72,3.09,3.09,0,0,0-.15-1,1.21,1.21,0,0,0-.58-.67Z"/><path class="cls-19" d="M103.87,317.45a1.71,1.71,0,0,1,.28.45,2.23,2.23,0,0,1,.16.43,1.75,1.75,0,0,1,0,.46,1,1,0,0,1-.11.51.33.33,0,0,1-.36.19,1.41,1.41,0,0,1,.3.49,2.14,2.14,0,0,1,.09.69v.27a3,3,0,0,0,0,.39.57.57,0,0,0,.11.3v.11l-.7-.41c0-.1,0-.18,0-.24a2.4,2.4,0,0,1,0-.37v-.38a1.55,1.55,0,0,0-.1-.58,1,1,0,0,0-.37-.34l-.62-.36v1.6l-.63-.36v-4.08l1.47.84A2.24,2.24,0,0,1,103.87,317.45Zm-1.32-.16v1.09l.69.4a.52.52,0,0,0,.3.11c.12,0,.18-.12.18-.35a.83.83,0,0,0-.47-.84Z"/><path class="cls-19" d="M106.45,319.26a.8.8,0,0,1,.94,0,2.57,2.57,0,0,1,1.12,1.32,3,3,0,0,1,.2.88l-.63-.37a2.84,2.84,0,0,0-.16-.53,1.21,1.21,0,0,0-.51-.56.38.38,0,0,0-.54.06,1.69,1.69,0,0,0-.19.95,2.78,2.78,0,0,0,.21,1.15,1.27,1.27,0,0,0,.52.64q.33.2.51,0a.87.87,0,0,0,.15-.38l.64.37a1.16,1.16,0,0,1-.42.84.81.81,0,0,1-.87-.08,2.65,2.65,0,0,1-1-1.16,4,4,0,0,1-.38-1.77A1.75,1.75,0,0,1,106.45,319.26Z"/><path class="cls-19" d="M109.71,324.79l-.74-.42,1-1.51-.93-2.54.76.44.55,1.64.56-1,.74.42-.94,1.43,1,2.68-.77-.45-.58-1.72Z"/><path class="cls-19" d="M114,326.38l-.34-.2v.87l-.58-.34v-.86l-1.19-.69v-.69l1.1-1.79.67.38v2.51l.34.19Zm-.92-1.15v-1.72l-.75,1.29Z"/><path class="cls-19" d="M116.07,325a5,5,0,0,1,.23,1.66,3,3,0,0,1-.23,1.4c-.15.27-.42.29-.8.07a1.73,1.73,0,0,1-.81-1,5.27,5.27,0,0,1-.23-1.66,3.07,3.07,0,0,1,.23-1.4c.15-.27.42-.3.81-.08A1.77,1.77,0,0,1,116.07,325Zm-1.15,1.92a.76.76,0,0,0,.35.57c.17.1.29,0,.34-.17a4.18,4.18,0,0,0,.08-1,5.46,5.46,0,0,0-.08-1.12.78.78,0,0,0-.34-.55c-.18-.1-.3-.05-.35.15a4,4,0,0,0-.09,1A5.5,5.5,0,0,0,114.92,326.89Z"/><path class="cls-19" d="M117.16,328a1.6,1.6,0,0,0,.13.48.76.76,0,0,0,.29.3c.15.09.26.08.34,0a.76.76,0,0,0,.11-.45,1.57,1.57,0,0,0-.1-.58.82.82,0,0,0-.34-.41.56.56,0,0,0-.19-.07.18.18,0,0,0-.2.12l-.53-.33.21-2.1,1.65,1v.67l-1.23-.71-.1.81a.61.61,0,0,1,.21,0,.83.83,0,0,1,.31.11,1.88,1.88,0,0,1,.65.71,2.27,2.27,0,0,1,.28,1.14,1.18,1.18,0,0,1-.27.84c-.18.19-.44.18-.8,0a1.91,1.91,0,0,1-.7-.71,2.19,2.19,0,0,1-.31-1.05Z"/></g><path class="cls-20" d="M272.08,274.77l-15.66,9.05c-1.07.61-1.94-.05-1.94-1.47v-5a4.65,4.65,0,0,1,1.93-3.71l15.66-9c1.07-.61,1.94.05,1.94,1.47v4.95A4.66,4.66,0,0,1,272.08,274.77Z"/><g class="cls-21"><path class="cls-22" d="M270.28,273.94l-15.38,8.88c-1.05.6-1.9-.05-1.9-1.44v-4.87a4.6,4.6,0,0,1,1.91-3.64L270.28,264c1-.6,1.9.05,1.9,1.45v4.86A4.59,4.59,0,0,1,270.28,273.94Z"/></g><path d="M267.94,276.37l-11.94,7c-1.06.62-1.52,0-1.52-1.47v-4.12c0-1.42.45-3.09,1.52-3.7l11.93-7c1.07-.61,1.94.05,1.94,1.47v4.12A4.68,4.68,0,0,1,267.94,276.37Z"/><path class="cls-23" d="M268.35,276.37l-11.93,7c-1.07.62-1.53,0-1.53-1.47v-4.12c0-1.42.46-3.09,1.52-3.7l11.94-7c1.06-.61,1.94.05,1.94,1.47v4.12A4.66,4.66,0,0,1,268.35,276.37Z"/><line class="cls-24" x1="263" y1="270.93" x2="263" y2="278.96"/><polygon class="cls-24" points="263.36 278.76 262.64 279.17 262.64 271.14 263.36 270.73 263.36 278.76"/><line class="cls-22" x1="263.26" y1="270.78" x2="263.26" y2="278.81"/><polygon class="cls-19" points="263.62 278.6 262.9 279.02 262.9 270.99 263.62 270.57 263.62 278.6"/><path class="cls-19" d="M263.85,283.65a.56.56,0,0,1,.09.35,1,1,0,0,1-.09.43,1.58,1.58,0,0,1-.15.24.25.25,0,0,1,.23.1.64.64,0,0,1,.07.34,1.31,1.31,0,0,1-.09.47,1.51,1.51,0,0,1-.13.29,1.43,1.43,0,0,1-.23.26,1.85,1.85,0,0,1-.27.19l-.89.51v-2.62l.95-.55C263.58,283.53,263.75,283.52,263.85,283.65Zm-1.07.79V285l.48-.28a.74.74,0,0,0,.21-.18.51.51,0,0,0,.08-.28c0-.12,0-.18-.11-.18a.76.76,0,0,0-.23.09Zm0,1v.7l.48-.27a.85.85,0,0,0,.2-.17.64.64,0,0,0,.13-.4c0-.13,0-.2-.13-.21a.56.56,0,0,0-.19.07Z"/><path class="cls-19" d="M265.62,282.42a.22.22,0,0,1,.18.08.49.49,0,0,1,.1.16.85.85,0,0,1,0,.25,1.26,1.26,0,0,1-.07.41.86.86,0,0,1-.23.39.2.2,0,0,1,.19.1.77.77,0,0,1,.06.37v.18a1.36,1.36,0,0,0,0,.24.11.11,0,0,0,.08.1v.07l-.46.26a.69.69,0,0,1,0-.13,1.25,1.25,0,0,1,0-.21v-.24c0-.17,0-.27-.07-.3s-.12,0-.23.05l-.4.23v1l-.41.23v-2.62l.94-.54A.8.8,0,0,1,265.62,282.42Zm-.85.88v.7l.44-.26a.86.86,0,0,0,.2-.15.61.61,0,0,0,.11-.36c0-.16,0-.25-.11-.26a.29.29,0,0,0-.19.06Z"/><path class="cls-19" d="M266.7,284.34l-.41.24V282l.41-.24Z"/><path class="cls-19" d="M268.41,281.56c0-.17-.11-.25-.23-.25a.59.59,0,0,0-.23.07,1.17,1.17,0,0,0-.39.47,1.9,1.9,0,0,0-.15.8c0,.33.06.52.17.59a.32.32,0,0,0,.37,0,.88.88,0,0,0,.34-.35,1.27,1.27,0,0,0,.16-.51l-.45.27v-.44l.82-.47v1.4l-.27.16-.05-.3a2.47,2.47,0,0,1-.21.38,1.25,1.25,0,0,1-.4.36c-.26.15-.47.16-.64,0a1.06,1.06,0,0,1-.26-.84,2.71,2.71,0,0,1,.26-1.17,1.74,1.74,0,0,1,.7-.78.61.61,0,0,1,.6-.1.55.55,0,0,1,.26.48Z"/><path class="cls-19" d="M269.21,282.9v-2.62l.41-.24v1l.76-.44v-1l.41-.24V282l-.41.24v-1.17l-.76.44v1.17Z"/><path class="cls-19" d="M272.61,278.31v.47l-.59.34v2.15l-.41.24v-2.16l-.59.34v-.46Z"/><polygon class="cls-7" points="186.17 332.63 177.94 327.88 177.94 276.99 186.17 281.74 186.17 332.63"/><polyline class="cls-25" points="186.17 281.74 192.87 277.69 192.87 328.68 186.17 332.63"/><polygon class="cls-26" points="177.94 277.09 184.98 273.28 192.87 277.8 186.14 281.81 177.94 277.09"/><path d="M377,447.8,221.69,358.14c-10.16-5.86-18.47-21.74-18.47-35.28V271.21c0-13.55,8.31-19.83,18.47-14L377,346.9c10.16,5.87,18.47,21.75,18.47,35.29v51.65C395.45,447.38,387.14,453.66,377,447.8Z"/><path class="cls-23" d="M362,453.94,206.66,364.29c-10.16-5.87-18.47-21.75-18.47-35.29V277.35c0-13.54,8.31-19.82,18.47-14L362,353.05c10.16,5.86,18.47,21.74,18.47,35.28V440C380.42,453.52,372.11,459.81,362,453.94Z"/><polygon points="374.57 454.54 389.06 448.74 210.26 255.97 194.77 262.35 374.57 454.54"/><g class="cls-27"><path class="cls-28" d="M377,476.3l-185.35-107c-12.12-7-22-26-22-42.12V257.7c0-16.17,9.92-23.67,22-16.67L377,348c12.12,7,22,25.95,22,42.12v69.48C399,475.8,389.1,483.3,377,476.3Z"/></g><g class="cls-29"><path class="cls-30" d="M209.7,329V302.43l4.14,2.39V315l7.74,4.47V309.29l4.14,2.39v26.57l-4.14-2.39V324l-7.74-4.47v11.86Z"/><path class="cls-30" d="M241.4,321.31a15.93,15.93,0,0,1,3.39,5.33,22.1,22.1,0,0,1,1.42,5.11,30.28,30.28,0,0,1,.38,4.61c0,3.54-.53,6.22-1.59,8.06-1.45,2.47-3.67,2.84-6.69,1.1l-8.59-5V314l8.59,5A15.09,15.09,0,0,1,241.4,321.31Zm-7.64-.37v17.34l3.85,2.22q3,1.69,4.12-1.5a14.33,14.33,0,0,0,.63-4.7,20.93,20.93,0,0,0-1-6.78,8.09,8.09,0,0,0-3.8-4.36Z"/></g><g class="cls-18"><path class="cls-19" d="M319.38,378.13l4.34,2.51v1.42l-3.08-1.77v1.86l2.7,1.56v1.41l-2.7-1.56V387l-1.26-.73Z"/><path class="cls-19" d="M325.29,387.51a3,3,0,0,0,.27.95,1.48,1.48,0,0,0,.58.61q.44.26.66,0a1.35,1.35,0,0,0,.23-.9,3.17,3.17,0,0,0-.21-1.15,1.55,1.55,0,0,0-.67-.81,1,1,0,0,0-.37-.14.4.4,0,0,0-.42.25l-1.05-.68.42-4.16,3.29,1.9v1.33l-2.44-1.41-.22,1.62a1.38,1.38,0,0,1,.43-.07,1.65,1.65,0,0,1,.62.23,3.62,3.62,0,0,1,1.3,1.42,4.53,4.53,0,0,1,.55,2.26,2.35,2.35,0,0,1-.53,1.66c-.36.38-.89.36-1.59,0a4,4,0,0,1-1.41-1.43,4.51,4.51,0,0,1-.61-2.08Z"/><path class="cls-19" d="M332.54,386.87a10.48,10.48,0,0,1,.46,3.31,6.08,6.08,0,0,1-.46,2.78c-.31.54-.85.58-1.61.14a3.51,3.51,0,0,1-1.6-2,10.16,10.16,0,0,1-.46-3.31,6,6,0,0,1,.46-2.79c.3-.53.84-.58,1.6-.14A3.56,3.56,0,0,1,332.54,386.87Zm-2.3,3.83a1.59,1.59,0,0,0,.69,1.13c.35.2.58.09.69-.34a8.8,8.8,0,0,0,.16-2,11.65,11.65,0,0,0-.16-2.23,1.54,1.54,0,0,0-.69-1.09c-.35-.2-.58-.1-.69.29a8.62,8.62,0,0,0-.17,2A11.79,11.79,0,0,0,330.24,390.7Z"/><path class="cls-19" d="M340.39,394.85c-.36.19-.87.1-1.53-.28l-1.27-.74v2.92l-1.26-.73v-8.11l2.61,1.51a3.72,3.72,0,0,1,1.44,1.45,4.47,4.47,0,0,1,.54,2.26C340.92,394.09,340.74,394.66,340.39,394.85Zm-1-3.48a1.73,1.73,0,0,0-.68-.66l-1.15-.66v2.39l1.15.66c.29.16.52.2.68.1s.24-.37.24-.79A2,2,0,0,0,339.42,391.37Z"/><path class="cls-19" d="M345.84,393.61a3.39,3.39,0,0,1,.57.89,5.53,5.53,0,0,1,.31.86,4,4,0,0,1,.11.92,2.15,2.15,0,0,1-.22,1,.65.65,0,0,1-.72.37,3.06,3.06,0,0,1,.6,1,4.63,4.63,0,0,1,.17,1.37v.55a6.51,6.51,0,0,0,0,.77,1.46,1.46,0,0,0,.24.6v.2l-1.4-.81q-.06-.3-.09-.48a6.11,6.11,0,0,1-.05-.73v-.76a2.58,2.58,0,0,0-.2-1.15,1.83,1.83,0,0,0-.72-.68l-1.25-.72V400l-1.24-.72v-8.12l2.91,1.68A3.79,3.79,0,0,1,345.84,393.61Zm-2.63-.32v2.18l1.37.79a1.21,1.21,0,0,0,.61.22c.24,0,.36-.25.36-.7a1.94,1.94,0,0,0-.34-1.2,2,2,0,0,0-.59-.48Z"/><path class="cls-19" d="M352.74,404.77c-.46.37-1.13.3-2-.2a5,5,0,0,1-2-2.1,7.92,7.92,0,0,1-.93-3.88q0-2.23.93-2.82c.46-.36,1.12-.29,2,.21a5,5,0,0,1,2,2.1,7.87,7.87,0,0,1,.92,3.88C353.66,403.41,353.35,404.35,352.74,404.77Zm-.8-1.69a2.8,2.8,0,0,0,.44-1.86,5.76,5.76,0,0,0-.44-2.37,2.93,2.93,0,0,0-1.2-1.43c-.5-.29-.9-.28-1.2,0a2.81,2.81,0,0,0-.45,1.86,5.76,5.76,0,0,0,.45,2.37,3,3,0,0,0,1.2,1.44C351.25,403.42,351.65,403.41,351.94,403.08Z"/></g><ellipse class="cls-31" cx="289.44" cy="218.89" rx="11.27" ry="6.37" transform="translate(-25.31 399.52) rotate(-66.95)"/><ellipse class="cls-32" cx="290.67" cy="219.95" rx="11.27" ry="6.37" transform="translate(-25.53 401.29) rotate(-66.95)"/><ellipse class="cls-31" cx="267.74" cy="231.35" rx="11.27" ry="6.37" transform="translate(-49.97 387.13) rotate(-66.95)"/><ellipse class="cls-33" cx="268.97" cy="232.41" rx="11.27" ry="6.37" transform="translate(-50.2 388.9) rotate(-66.95)"/><ellipse class="cls-31" cx="244.88" cy="245.83" rx="11.27" ry="6.37" transform="matrix(0.39, -0.92, 0.92, 0.39, -77.2, 374.9)"/><ellipse class="cls-34" cx="246.12" cy="246.89" rx="11.27" ry="6.37" transform="translate(-77.43 376.68) rotate(-66.95)"/><path class="cls-19" d="M246.46,259.53l.47-.27.69,2.22-.44.26-.13-.46-.72.41-.14.62-.43.25Zm0,1.65.5-.29-.25-.89Z"/><path class="cls-19" d="M247.84,260.85a2.82,2.82,0,0,1,.38-.77,6.18,6.18,0,0,0,.34-.55,1,1,0,0,0,.12-.44.33.33,0,0,0-.06-.23c-.05-.05-.11-.05-.2,0a.54.54,0,0,0-.24.31,2.11,2.11,0,0,0,0,.34l-.37.21a2.43,2.43,0,0,1,.09-.58,1.17,1.17,0,0,1,.54-.7.45.45,0,0,1,.49-.05.55.55,0,0,1,.18.49,1.36,1.36,0,0,1-.13.58,2.25,2.25,0,0,1-.27.49l-.15.24a3,3,0,0,0-.2.3,1.21,1.21,0,0,0-.09.2l.85-.49v.44l-1.33.77A1.82,1.82,0,0,1,247.84,260.85Z"/><path class="cls-19" d="M268.1,245.51l.59-.34v2.62l-.38.22v-2.2l-.37,2.42-.4.23-.37-2v2.2l-.38.22v-2.62l.6-.35.36,1.86Z"/><path class="cls-19" d="M270.59,246.47a1.61,1.61,0,0,1-.65.67c-.28.17-.49.19-.64.07s-.3-.44-.3-.91a2.49,2.49,0,0,1,.3-1.25,1.62,1.62,0,0,1,.64-.68c.28-.16.5-.18.65-.07s.29.43.29.91A2.72,2.72,0,0,1,270.59,246.47Zm-.26-.25a1.83,1.83,0,0,0,.14-.77.91.91,0,0,0-.14-.6c-.1-.1-.22-.11-.39,0a1,1,0,0,0-.39.47,1.94,1.94,0,0,0-.14.76.94.94,0,0,0,.14.6c.1.11.23.11.39,0A1,1,0,0,0,270.33,246.22Z"/><path class="cls-19" d="M272.35,243.12a.31.31,0,0,1,.33.14.7.7,0,0,1,.14.34,1.9,1.9,0,0,1,0,.41,2.88,2.88,0,0,1-.16,1,1.57,1.57,0,0,1-.65.87l-.85.49v-2.63l.85-.48A.84.84,0,0,1,272.35,243.12Zm-.75.83v1.71l.38-.22a.92.92,0,0,0,.4-.62,2.2,2.2,0,0,0,.06-.53,1.24,1.24,0,0,0-.09-.56c-.06-.11-.19-.11-.37,0Z"/><path class="cls-19" d="M274.62,242.21l-1,.6v.56l1-.55v.45l-1,.55v.68l1.09-.63v.47l-1.49.86v-2.62l1.44-.83Z"/><path class="cls-19" d="M286.59,270.22l.46-.27.7,2.22-.45.25-.13-.46-.72.42-.13.61-.43.25Zm0,1.64.51-.29-.25-.89Z"/><path class="cls-19" d="M288,269.4l.42-.24v1.61a.83.83,0,0,0,.05.37c0,.11.15.13.32,0a.69.69,0,0,0,.32-.41,1.5,1.5,0,0,0,.05-.42v-1.61l.42-.24v1.61a2.43,2.43,0,0,1-.1.71,1.46,1.46,0,0,1-.69.82c-.34.2-.57.19-.69,0a1.27,1.27,0,0,1-.1-.6Z"/><path class="cls-19" d="M291.4,267.44v.46l-.59.34v2.16l-.41.24v-2.16l-.59.34v-.46Z"/><path class="cls-19" d="M293.11,268.84a1.64,1.64,0,0,1-.65.68c-.28.16-.49.18-.64.06s-.3-.43-.3-.9a2.55,2.55,0,0,1,.3-1.26,1.68,1.68,0,0,1,.64-.68c.28-.16.5-.18.65-.06s.29.43.29.91A2.65,2.65,0,0,1,293.11,268.84Zm-.26-.25a1.94,1.94,0,0,0,.14-.76.94.94,0,0,0-.14-.6c-.1-.11-.23-.11-.39,0a1,1,0,0,0-.39.46,1.86,1.86,0,0,0-.14.77.88.88,0,0,0,.14.6.29.29,0,0,0,.39,0A1,1,0,0,0,292.85,268.59Z"/><path class="cls-19" d="M289.06,232.76l.59-.34V235l-.39.22v-1.77a2,2,0,0,1,0-.22v-.21l-.38,2.41-.4.24-.37-2c0,.05,0,.12,0,.21v2l-.39.22v-2.62l.6-.35.36,1.86Z"/><path class="cls-19" d="M291.48,231.83l-1,.6V233l.95-.55v.46l-.95.55v.67l1.09-.63V234l-1.49.86v-2.62l1.44-.83Z"/><path class="cls-19" d="M291.84,231.15l.43-.25.78,1.38v-1.83l.38-.22v2.62l-.41.24-.8-1.4v1.86l-.38.22Z"/><path class="cls-19" d="M293.82,230l.42-.24v1.61a.83.83,0,0,0,.05.37c0,.11.15.12.32,0a.69.69,0,0,0,.32-.41A1.5,1.5,0,0,0,295,231v-1.61l.42-.24v1.61a2.43,2.43,0,0,1-.1.71,1.46,1.46,0,0,1-.69.82c-.34.2-.57.19-.69,0a1.27,1.27,0,0,1-.1-.6Z"/><path class="cls-20" d="M295.72,260.83l-15.66,9c-1.07.62-1.94,0-1.94-1.46v-5a4.66,4.66,0,0,1,1.94-3.71l15.66-9c1.06-.62,1.93,0,1.94,1.47v4.95A4.64,4.64,0,0,1,295.72,260.83Z"/><g class="cls-35"><path class="cls-22" d="M293.92,260l-15.37,8.88c-1.05.6-1.91-.05-1.91-1.45v-4.86a4.59,4.59,0,0,1,1.9-3.64l15.38-8.88c1.05-.6,1.91,0,1.91,1.44v4.87A4.6,4.6,0,0,1,293.92,260Z"/></g><path d="M291.58,262.43l-11.93,7c-1.07.62-1.53,0-1.53-1.47v-4.12c0-1.42.46-3.09,1.52-3.71l11.94-7c1.06-.61,1.94.05,1.94,1.47v4.12A4.66,4.66,0,0,1,291.58,262.43Z"/><path class="cls-23" d="M292,262.43l-11.94,7c-1.07.62-1.52,0-1.52-1.47v-4.12c0-1.42.46-3.09,1.53-3.71l11.93-7c1.07-.61,1.94.05,1.94,1.47v4.12A4.68,4.68,0,0,1,292,262.43Z"/><line class="cls-24" x1="286.65" y1="256.99" x2="286.65" y2="265.02"/><polygon class="cls-24" points="287.01 264.82 286.29 265.23 286.29 257.2 287.01 256.78 287.01 264.82"/><line class="cls-22" x1="286.91" y1="256.84" x2="286.91" y2="264.87"/><polygon class="cls-19" points="287.27 264.66 286.55 265.08 286.55 257.04 287.27 256.63 287.27 264.66"/><polygon class="cls-36" points="301.8 71.17 301.83 77 326.05 86.56 326.05 80.97 301.8 71.17"/><path class="cls-37" d="M320.08,88,302.62,77.94c-1.22-.71-1.07-2,.34-2.77h0a5.34,5.34,0,0,1,4.8-.2l17.46,10.08c1.23.71,1.07,2-.34,2.77h0A5.34,5.34,0,0,1,320.08,88Z"/><path class="cls-38" d="M320.11,82.61l-17.5-10c-1.23-.7-1.08-2,.33-2.77h0a5.34,5.34,0,0,1,4.8-.21l17.5,10c1.22.71,1.07,1.95-.34,2.78h0A5.35,5.35,0,0,1,320.11,82.61Z"/><polygon class="cls-39" points="253.97 100.54 254.01 103.13 314.64 92.46 314.64 90.11 253.97 100.54"/><path class="cls-40" d="M272.26,114.15,254.8,104.07c-1.22-.71-1.07-1.95.34-2.77l36.41-20.23a5.4,5.4,0,0,1,4.8-.2L313.81,91c1.23.7,1.07,2-.34,2.77L277.06,114A5.34,5.34,0,0,1,272.26,114.15Z"/><path class="cls-41" d="M272.26,111.72,254.8,101.64c-1.22-.71-1.07-2,.34-2.77l36.41-20.23a5.37,5.37,0,0,1,4.8-.19l17.46,10.08c1.23.71,1.07,2-.34,2.77l-36.41,20.23A5.37,5.37,0,0,1,272.26,111.72Z"/><polyline class="cls-38" points="293.38 78.06 294.12 79.5 257.42 100.53 256.68 99.04 293.38 78.06"/><polygon class="cls-42" points="256.03 99.72 256.68 99.04 257.42 100.53 256.03 99.72"/><polyline class="cls-38" points="296 79.59 296.74 81.02 260.04 102.05 259.3 100.56 296 79.59"/><polygon class="cls-42" points="258.65 101.25 259.3 100.56 260.04 102.05 258.65 101.25"/><polyline class="cls-38" points="298.62 81.11 299.36 82.55 262.66 103.58 261.92 102.09 298.62 81.11"/><polygon class="cls-42" points="261.27 102.77 261.92 102.09 262.66 103.58 261.27 102.77"/><polyline class="cls-38" points="301.24 82.64 301.99 84.07 265.28 105.1 264.54 103.61 301.24 82.64"/><polygon class="cls-42" points="263.89 104.3 264.54 103.61 265.28 105.1 263.89 104.3"/><polyline class="cls-38" points="303.86 84.16 304.61 85.59 267.91 106.62 267.17 105.14 303.86 84.16"/><polygon class="cls-42" points="266.51 105.82 267.17 105.14 267.91 106.62 266.51 105.82"/><polyline class="cls-38" points="306.49 85.68 307.23 87.12 270.53 108.15 269.79 106.66 306.49 85.68"/><polygon class="cls-42" points="269.13 107.34 269.79 106.66 270.53 108.15 269.13 107.34"/><polyline class="cls-38" points="309.11 87.21 309.85 88.64 273.15 109.67 272.41 108.18 309.11 87.21"/><polygon class="cls-42" points="271.76 108.87 272.41 108.18 273.15 109.67 271.76 108.87"/><polyline class="cls-38" points="311.73 88.73 312.47 90.17 275.77 111.19 275.03 109.71 311.73 88.73"/><polygon class="cls-42" points="274.38 110.39 275.03 109.71 275.77 111.19 274.38 110.39"/></g></g></svg>