<svg xmlns="http://www.w3.org/2000/svg" viewBox="0 0 226.399 178.46"><defs><style>.a{fill:#262626;}.b{fill:#353535;}.c{fill:#112d17;}.d{fill:#b4d6bd;}.e{fill:#565656;}.f,.g,.n{fill:none;stroke-linecap:round;stroke-linejoin:round;}.f{stroke:#8e8e8e;}.g{stroke:#3d3d3d;}.h{fill:#282828;}.i{fill:#939393;}.j{fill:#def1ff;}.k{opacity:0.61;}.l{fill:#b3e2ff;}.m{fill:#fff;}.n{stroke:#def1ff;}.o{opacity:0.54;}.p{fill:#bde2f4;}.q{fill:#e1f4ff;}</style></defs><g transform="translate(-227.891 -1453.109)"><path class="a" d="M467.851,123.455l-72.29-42.823a5.576,5.576,0,0,1-2.754-4.819V31.681a5.61,5.61,0,0,0-8.4-4.819l-9.363,5.37a.7.7,0,0,0-.344.551V86.208a5.576,5.576,0,0,0,2.754,4.819l72.29,42.823Z" transform="translate(-14.939 1431.498)"/><path class="b" d="M476.523,119.015V67.724a7.46,7.46,0,0,0-3.167-5.99L417.313,29.375,402.1,20.632a2,2,0,0,0-1.928-.207c-.757.344-1.17,1.239-1.17,2.616V74.333a7.46,7.46,0,0,0,3.167,5.99l71.189,41.1a2.129,2.129,0,0,0,2,.207c.069,0,.069-.069.138-.069A3.051,3.051,0,0,0,476.523,119.015Z" transform="translate(-22.509 1433.321)"/><g transform="translate(341.792 1483.786)"><path class="c" d="M416.658,149.619V105.281a6.629,6.629,0,0,0-2.754-5.232L365.435,72.027l-13.15-7.573a1.848,1.848,0,0,0-1.652-.207,2.344,2.344,0,0,0-1.033,2.272v44.338a6.629,6.629,0,0,0,2.754,5.232l61.619,35.594a1.975,1.975,0,0,0,1.721.207c.069,0,.069-.069.138-.069A2.842,2.842,0,0,0,416.658,149.619Z" transform="translate(-348.911 -64.131)"/><path class="d" d="M415.658,150.619V106.281a6.629,6.629,0,0,0-2.754-5.232L364.435,73.027l-13.15-7.573a1.848,1.848,0,0,0-1.652-.207,2.344,2.344,0,0,0-1.033,2.272v44.338a6.629,6.629,0,0,0,2.754,5.232l61.619,35.594a1.975,1.975,0,0,0,1.721.207c.069,0,.069-.069.138-.069A2.842,2.842,0,0,0,415.658,150.619Z" transform="translate(-348.6 -64.443)"/></g><g transform="translate(359.899 1453.366)"><path class="e" d="M476.892,67.42v51.292c0,1.446-.551,2.479-1.446,2.685a2.078,2.078,0,0,1-1.721-.344l-15.215-8.744V78.022a7.46,7.46,0,0,0-3.167-5.99L399.3,39.674V22.669a2.817,2.817,0,0,1,1.033-2.479,2.02,2.02,0,0,1,2.134.138L473.724,61.5C475.446,62.394,476.892,65.148,476.892,67.42Z" transform="translate(-382.501 -19.947)"/><path class="e" d="M501.8,163.188l-17.9,10.4a2.9,2.9,0,0,0,1.033-2.479V154.1l15.215,8.744A1.9,1.9,0,0,0,501.8,163.188Z" transform="translate(-408.856 -61.738)"/><path class="e" d="M374.9,30.558,392.732,20.3a2.9,2.9,0,0,0-1.033,2.479V39.784L376.483,31.04C375.8,30.627,375.451,30.283,374.9,30.558Z" transform="translate(-374.9 -20.057)"/><g transform="translate(0 0.243)"><path class="f" d="M392.732,20.3,374.9,30.558c.551-.275.9.069,1.652.482l15.215,8.744" transform="translate(-374.9 -20.3)"/><path class="g" d="M484.933,154.1v17.005a2.817,2.817,0,0,1-1.033,2.479l17.9-10.4" transform="translate(-408.856 -61.982)"/><path class="g" d="M485.4,154.1l15.215,8.744a2.368,2.368,0,0,0,1.721.344" transform="translate(-409.323 -61.982)"/></g></g><g transform="translate(385.581 1463.658)"><ellipse class="h" cx="3.511" cy="1.997" rx="3.511" ry="1.997" transform="matrix(0.993, -0.121, 0.121, 0.993, 0.004, 1.469)"/><ellipse class="i" cx="3.511" cy="1.997" rx="3.511" ry="1.997" transform="matrix(0.993, -0.121, 0.121, 0.993, 0, 0.85)"/></g><g transform="translate(359.073 1503.11)"><path class="a" d="M441.5,160.6" transform="translate(-394.821 -113.508)"/><g transform="translate(0.275 0.344)"><path class="i" d="M418.989,133.527l-6.2-3.58V115.489L374.1,93.113V92.7l38.968,22.582V129.74l5.921,3.374Z" transform="translate(-374.1 -92.7)"/><path class="i" d="M415.479,147.948l-19.9-11.5V130.8L390.9,128.12v-.413l5.026,2.892v5.646l19.209,11.085V127.5l.344.138Z" transform="translate(-379.334 -103.541)"/><path class="i" d="M404.707,150.552l-.344-.207v-5.026L382.4,132.651V114.2l13.838,7.986v8.606l-.275-.138v-8.262l-13.288-7.642v17.694l22.031,12.668Z" transform="translate(-376.686 -99.398)"/><path class="i" d="M388.081,139.163,375,131.59V103.5l23.477,13.563v13.012l-.275-.138V117.27l-22.926-13.219v27.333l12.806,7.367Z" transform="translate(-374.38 -96.064)"/><path class="i" d="M420.367,143.05l-2.823-1.652V128.523l-2.134-1.239v12.875L413,138.781V125.7l.344.207v12.668l1.79,1.033V126.733l2.685,1.583v12.806l2.547,1.515Z" transform="translate(-386.218 -102.98)"/><path class="i" d="M427.163,164.332l-9.363-5.439V154.9l5.921,3.374v.413l-5.577-3.236v3.236l8.744,5.026V150.7l.275.138Z" transform="translate(-387.713 -110.768)"/><path class="i" d="M399.325,143.556,385.9,135.846V130.2l4.337,2.547v.344l-4.062-2.341v4.819l13.15,7.573Z" transform="translate(-377.776 -104.382)"/></g><path d="M374.251,93.37l-.551-.344V92.2l.551.344Z" transform="translate(-373.7 -92.2)"/><path d="M375.32,104.2l-.62-.344V103.1l.62.344Z" transform="translate(-374.011 -95.596)"/><path d="M382.82,114.97l-.62-.344V113.8l.62.344Z" transform="translate(-376.348 -98.929)"/><path d="M402.32,126.27l-.62-.344V125.1l.62.344Z" transform="translate(-382.423 -102.449)"/><path d="M408.92,123.6l-.62-.344V122.5l.62.344Z" transform="translate(-384.479 -101.639)"/><path d="M413.32,126.17l-.62-.344V125l.62.344Z" transform="translate(-385.849 -102.418)"/><path d="M416.42,127.9l-.62-.344V126.8l.62.344Z" transform="translate(-386.815 -102.979)"/><path d="M419.92,129.97l-.62-.344V128.8l.62.344Z" transform="translate(-387.905 -103.602)"/><path d="M426.52,127.87l-.62-.344V126.7l.62.344Z" transform="translate(-389.961 -102.947)"/><path d="M430.651,125.9l-.551-.344V124.8l.551.344Z" transform="translate(-391.27 -102.356)"/><path d="M439.42,152.07l-.62-.344V150.9l.62.344Z" transform="translate(-393.98 -110.486)"/><path d="M430.651,146.97l-.551-.344V145.8l.551.344Z" transform="translate(-391.27 -108.898)"/><path d="M431.32,151.17l-.62-.344V150l.62.344Z" transform="translate(-391.457 -110.206)"/><path d="M423.851,150.97l-.551-.344V149.8l.551.344Z" transform="translate(-389.151 -110.144)"/><path d="M419.92,148.67l-.62-.344V147.5l.62.344Z" transform="translate(-387.905 -109.427)"/><path d="M416.42,146.67l-.62-.344V145.5l.62.344Z" transform="translate(-386.815 -108.804)"/><path d="M413.32,144.87l-.62-.344V143.7l.62.344Z" transform="translate(-385.849 -108.243)"/><path d="M408.92,142.07l-.62-.344V140.9l.62.344Z" transform="translate(-384.479 -107.371)"/><path d="M402.32,138.27l-.62-.344V137.1l.62.344Z" transform="translate(-382.423 -106.187)"/><path d="M390.8,128.326V127.5l.551.344v.826Z" transform="translate(-379.027 -103.197)"/><path d="M397.4,132.126V131.3l.551.344v.826Z" transform="translate(-381.083 -104.38)"/><path d="M397.6,140.457V139.7l.62.344v.757Z" transform="translate(-381.145 -106.997)"/><path d="M391.6,134.126V133.3l.62.344v.826Z" transform="translate(-379.276 -105.004)"/><path d="M385.7,130.726V129.9l.62.344v.826Z" transform="translate(-377.438 -103.944)"/><path d="M385.7,138.326V137.5l.62.344v.826Z" transform="translate(-377.438 -106.312)"/><path d="M404.8,149.326V148.5l.62.344v.826Z" transform="translate(-383.388 -109.739)"/><path d="M425.7,161.926V161.1l.551.344v.826Z" transform="translate(-389.899 -113.664)"/><path d="M417.5,157.257V156.5l.62.344v.757Z" transform="translate(-387.345 -112.231)"/><path d="M417.5,162.526V161.7l.62.344v.826Z" transform="translate(-387.345 -113.851)"/><path d="M414,166.626V165.8l.62.344v.826Z" transform="translate(-386.254 -115.128)"/><path d="M414,159.026V158.2l.62.344v.826Z" transform="translate(-386.254 -112.76)"/><path d="M393.4,154.726V153.9l.62.344v.826Z" transform="translate(-379.837 -111.421)"/><path d="M374.7,143.957V143.2l.62.344v.757Z" transform="translate(-374.011 -108.088)"/><path d="M382.2,140.657V139.9l.62.344V141Z" transform="translate(-376.348 -107.06)"/><path d="M430.7,170.126V169.3l.62.344v.826Z" transform="translate(-391.457 -116.218)"/></g><path class="b" d="M359.736,123.19l-55.56-32.083L289.1,82.432a2,2,0,0,0-1.928-.207c-.757.344-1.17,1.239-1.17,2.547v50.81a7.61,7.61,0,0,0,3.1,5.99l70.638,40.758a2.129,2.129,0,0,0,2,.207c.069,0,.069-.069.138-.069a2.817,2.817,0,0,0,1.033-2.479v-50.81C362.834,126.839,361.457,124.154,359.736,123.19Zm-30.224,31.188c-7.78-4.475-14.114-16.523-14.114-26.92s6.334-15.147,14.114-10.671,14.114,16.523,14.114,26.92S337.292,158.853,329.512,154.378Z" transform="translate(12.693 1414.069)"/><path class="i" d="M358.736,124.19l-55.56-32.083L288.1,83.432a2,2,0,0,0-1.928-.207c-.757.344-1.17,1.239-1.17,2.547v50.81a7.611,7.611,0,0,0,3.1,5.99l70.638,40.758a2.129,2.129,0,0,0,2,.207c.069,0,.069-.069.138-.069a2.817,2.817,0,0,0,1.033-2.479v-50.81C361.834,127.839,360.457,125.154,358.736,124.19Zm-30.224,31.188c-7.78-4.475-14.114-16.523-14.114-26.92s6.334-15.147,14.114-10.671,14.114,16.524,14.114,26.92S336.292,159.853,328.512,155.378Z" transform="translate(13.005 1413.758)"/><g transform="translate(372.327 1459.269)"><ellipse class="h" cx="6.334" cy="3.58" rx="6.334" ry="3.58" transform="matrix(0.993, -0.121, 0.121, 0.993, 0, 2.566)"/><ellipse class="i" cx="6.334" cy="3.58" rx="6.334" ry="3.58" transform="matrix(0.993, -0.121, 0.121, 0.993, 0.004, 1.533)"/></g><path class="j" d="M303.432,99.054v3.924c0,.069,0,.138-.138.275a.455.455,0,0,1-.413.069l-12.324-7.091a1.061,1.061,0,0,1-.482-.482,2.075,2.075,0,0,1-.275-.9V91.068c0-.069,0-.138.138-.207.138-.138.413-.069.413-.069l12.461,7.229c.069,0,.207.138.413.482A.873.873,0,0,1,303.432,99.054Z" transform="translate(11.509 1411.354)"/><g class="k" transform="translate(304.259 1505.245)"><path class="l" d="M307.041,102.169a.5.5,0,0,1,.069.62,1.5,1.5,0,0,1-1.033.9c-.206,0-.275,0-.413-.138a.525.525,0,0,1,0-.551,1.5,1.5,0,0,1,1.033-.9.621.621,0,0,1,.344.069Z" transform="translate(-297.667 -97.418)"/><path class="m" d="M295.739,95.5l7.78,4.544c-.069-.069-.138-.069-.275,0a1.647,1.647,0,0,0-1.033.9.754.754,0,0,0,0,.551L294.5,96.946h.207a1.646,1.646,0,0,0,1.033-.9A.416.416,0,0,0,295.739,95.5Z" transform="translate(-294.214 -95.362)"/><path class="m" d="M295.61,95.438h0a.525.525,0,0,1,0,.551,1.5,1.5,0,0,1-1.033.9h-.206c-.069,0-.138-.069-.207-.138a.525.525,0,0,1,0-.551,1.5,1.5,0,0,1,1.033-.9A.582.582,0,0,1,295.61,95.438Z" transform="translate(-294.085 -95.3)"/><g transform="translate(0.148 1.446)"><line class="n" x1="7.711" y1="4.544" transform="translate(0.207 0.138)"/><line class="n"/><line class="n" transform="translate(9.226 3.305)"/></g></g><g class="o" transform="translate(301.309 1502.06)"><path class="m" d="M301.326,96.882,300.5,96.4v5.37l.826.482Z" transform="translate(-293.133 -92.458)"/><path class="m" d="M302.851,97.775,302.3,97.5v5.37l.551.275Z" transform="translate(-293.694 -92.801)"/><path class="m" d="M291.6,96.67l1.239.688v-5.37L291.6,91.3Z" transform="translate(-290.361 -90.87)"/><path class="m" d="M298.72,95.413,298.1,95v5.37l.62.413Z" transform="translate(-292.386 -92.022)"/><path class="m" d="M308.957,101.488a4.124,4.124,0,0,0-.413-.482l-.344-.207v5.37l.344.207c.138.069.344.069.413-.069a.275.275,0,0,0,.138-.275v-3.924C309.164,102.177,309.164,101.833,308.957,101.488Z" transform="translate(-295.532 -93.829)"/><path class="m" d="M290.557,90.83l-.207-.138s-.275-.069-.413.069a.989.989,0,0,0-.138.207v3.787a1.414,1.414,0,0,0,.275.9,1.061,1.061,0,0,0,.482.482h.069v-5.3Z" transform="translate(-289.8 -90.675)"/><path class="m" d="M306.5,99.92l-1.1-.62v5.37l1.1.62Z" transform="translate(-294.66 -93.362)"/></g><g transform="translate(273.587 1554.431)"><path class="e" d="M265,179.157l9.088-4.957,18.451,38.968-10.121,5.508L265,179.157" transform="translate(-254.352 -169.066)"/><ellipse class="e" cx="12.255" cy="21.618" rx="12.255" ry="21.618" transform="matrix(0.92, -0.392, 0.392, 0.92, 9.181, 9.598)"/><ellipse class="i" cx="12.255" cy="21.618" rx="12.255" ry="21.618" transform="matrix(0.92, -0.392, 0.392, 0.92, 0, 14.556)"/></g><g transform="translate(251.061 1583.79)"><g transform="translate(0 0)"><path class="e" d="M226.8,217.536l5.99-3.236,12.048,25.474-6.609,3.58L226.8,217.536" transform="translate(-219.926 -210.916)"/><ellipse class="e" cx="7.986" cy="14.114" rx="7.986" ry="14.114" transform="matrix(0.92, -0.392, 0.392, 0.92, 5.979, 6.255)"/><ellipse class="i" cx="7.986" cy="14.114" rx="7.986" ry="14.114" transform="matrix(0.92, -0.392, 0.392, 0.92, 0, 9.558)"/></g><ellipse class="b" cx="5.301" cy="9.363" rx="5.301" ry="9.363" transform="matrix(0.92, -0.392, 0.392, 0.92, 4.331, 12.878)"/></g><g transform="translate(347.919 1512.267)"><path class="e" d="M361.724,113l-3.924-2.272V105.5l3.924,2.272Z" transform="translate(-357.594 -105.5)"/><path class="i" d="M361.424,113.1l-3.924-2.272V105.6l3.924,2.272Z" transform="translate(-357.5 -105.531)"/></g><ellipse class="b" cx="7.986" cy="14.114" rx="7.986" ry="14.114" transform="matrix(0.92, -0.392, 0.392, 0.92, 279.978, 1574.757)"/><g transform="translate(227.891 1607.35)"><g transform="translate(0 0)"><path class="p" d="M190,249.1l4.062-2.2,8.262,17.419L197.78,266.8,190,249.1" transform="translate(-185.291 -244.632)"/><ellipse class="p" cx="5.439" cy="9.639" rx="5.439" ry="9.639" transform="matrix(0.92, -0.392, 0.392, 0.92, 4.143, 4.26)"/><ellipse class="q" cx="5.439" cy="9.639" rx="5.439" ry="9.639" transform="matrix(0.92, -0.392, 0.392, 0.92, 0, 6.479)"/></g><ellipse class="m" cx="2.685" cy="4.751" rx="2.685" ry="4.751" transform="matrix(0.92, -0.392, 0.392, 0.92, 4.176, 9.751)"/></g><g transform="translate(345.992 1494.504)"><g transform="translate(1.239 0.757)"><path class="a" d="M363.316,93.743,356.5,89.819V80.8l6.816,3.924Z" transform="translate(-356.5 -80.8)"/></g><path class="i" d="M363.016,93.912,356.2,89.988V80.9l6.816,3.924Z" transform="translate(-355.167 -80.074)"/><g transform="translate(0 1.928)"><g transform="translate(6.747 3.924)"><path class="a" d="M366.91,90.2l-2.41-1.308V88.2l2.41,1.377Z" transform="translate(-364.5 -88.2)"/><path class="a" d="M366.91,93.865l-2.41-1.377V91.8l2.41,1.377Z" transform="translate(-364.5 -89.321)"/><path class="a" d="M366.91,97.465l-2.41-1.377V95.4l2.41,1.377Z" transform="translate(-364.5 -90.443)"/></g><path class="a" d="M357.041,84.5,354.7,83.188V82.5l2.341,1.377Z" transform="translate(-354.7 -82.5)"/><path class="a" d="M357.041,88.165,354.7,86.788V86.1l2.341,1.377Z" transform="translate(-354.7 -83.621)"/><path class="a" d="M357.041,91.765,354.7,90.388V89.7l2.341,1.377Z" transform="translate(-354.7 -84.743)"/></g><g transform="translate(2.341)"><path class="a" d="M358.582,79.975v3.167l-.482-.275V79.7Z" transform="translate(-358.1 -79.7)"/><path class="a" d="M361.282,81.544v3.167l-.482-.344V81.2Z" transform="translate(-358.941 -80.167)"/><path class="a" d="M364.051,83.075v3.167l-.551-.275V82.8Z" transform="translate(-359.782 -80.666)"/><g transform="translate(0 9.019)"><path class="a" d="M358.582,93.144v3.167l-.482-.344V92.8Z" transform="translate(-358.1 -92.8)"/><path class="a" d="M361.282,94.675v3.167l-.482-.275V94.4Z" transform="translate(-358.941 -93.298)"/><path class="a" d="M364.051,96.275v3.167l-.551-.275V96Z" transform="translate(-359.782 -93.797)"/></g></g></g></g></svg>