<svg xmlns="http://www.w3.org/2000/svg" viewBox="0 0 33.714 21.454"><defs><style>.a{fill:#cd5a4f;}</style></defs><g transform="translate(0 0)"><path class="a" d="M67.427,91.095v3.678h6.084A5.793,5.793,0,0,1,67.427,99.4a6.775,6.775,0,0,1,0-13.547A6.037,6.037,0,0,1,71.7,87.509l2.912-2.8a10.283,10.283,0,0,0-7.187-2.8,10.727,10.727,0,0,0,0,21.454c6.191,0,10.3-4.352,10.3-10.482a9.866,9.866,0,0,0-.169-1.778Z" transform="translate(-56.7 -81.9)"/><path class="a" d="M166.695,110.165H163.63V107.1h-3.065v3.065H157.5v3.065h3.065v3.065h3.065V113.23h3.065" transform="translate(-132.981 -100.97)"/></g></svg>