<svg xmlns="http://www.w3.org/2000/svg" xmlns:xlink="http://www.w3.org/1999/xlink" width="26.667" height="26.668" viewBox="0 0 26.667 26.668"><defs><radialGradient id="a" cx="0.133" cy="1.005" r="1.305" gradientTransform="translate(0)" gradientUnits="objectBoundingBox"><stop offset="0.09" stop-color="#fa8f21"/><stop offset="0.78" stop-color="#d82d7e"/></radialGradient><radialGradient id="b" cx="0.606" cy="1.05" r="1.029" gradientTransform="translate(0)" gradientUnits="objectBoundingBox"><stop offset="0.64" stop-color="#8c3aaa" stop-opacity="0"/><stop offset="1" stop-color="#8c3aaa"/></radialGradient></defs><path d="M8.89,13.334a4.444,4.444,0,1,1,4.444,4.445A4.444,4.444,0,0,1,8.89,13.334m-2.4,0a6.847,6.847,0,1,0,6.847-6.847,6.847,6.847,0,0,0-6.847,6.847M18.852,6.216a1.6,1.6,0,1,0,1.6-1.6h0a1.6,1.6,0,0,0-1.6,1.6M7.947,24.187a7.37,7.37,0,0,1-2.476-.459,4.144,4.144,0,0,1-1.534-1,4.114,4.114,0,0,1-1-1.533,7.363,7.363,0,0,1-.459-2.476c-.065-1.406-.078-1.828-.078-5.389s.014-3.982.078-5.389A7.418,7.418,0,0,1,2.94,5.469a4.144,4.144,0,0,1,1-1.534,4.109,4.109,0,0,1,1.534-1A7.363,7.363,0,0,1,7.947,2.48C9.353,2.415,9.775,2.4,13.334,2.4s3.982.014,5.389.078a7.418,7.418,0,0,1,2.476.459,4.131,4.131,0,0,1,1.534,1,4.131,4.131,0,0,1,1,1.534,7.363,7.363,0,0,1,.459,2.476c.065,1.407.078,1.828.078,5.389s-.013,3.982-.078,5.389A7.4,7.4,0,0,1,23.73,21.2a4.415,4.415,0,0,1-2.531,2.53,7.363,7.363,0,0,1-2.476.459c-1.406.065-1.828.078-5.389.078s-3.982-.013-5.387-.078M7.837.081A9.777,9.777,0,0,0,4.6.7,6.54,6.54,0,0,0,2.238,2.238,6.515,6.515,0,0,0,.7,4.6,9.78,9.78,0,0,0,.081,7.837C.015,9.258,0,9.713,0,13.334s.015,4.076.081,5.5A9.78,9.78,0,0,0,.7,22.068,6.518,6.518,0,0,0,2.238,24.43,6.556,6.556,0,0,0,4.6,25.968a9.786,9.786,0,0,0,3.237.619c1.422.065,1.876.081,5.5.081s4.076-.015,5.5-.081a9.78,9.78,0,0,0,3.237-.619,6.817,6.817,0,0,0,3.9-3.9,9.753,9.753,0,0,0,.619-3.237c.065-1.423.08-1.876.08-5.5s-.015-4.076-.08-5.5A9.777,9.777,0,0,0,25.968,4.6,6.557,6.557,0,0,0,24.43,2.238,6.525,6.525,0,0,0,22.069.7,9.764,9.764,0,0,0,18.832.081C17.411.016,16.956,0,13.335,0s-4.076.015-5.5.081" transform="translate(0 0)" fill="url(#a)"/><path d="M8.89,13.334a4.444,4.444,0,1,1,4.444,4.445A4.444,4.444,0,0,1,8.89,13.334m-2.4,0a6.847,6.847,0,1,0,6.847-6.847,6.847,6.847,0,0,0-6.847,6.847M18.852,6.216a1.6,1.6,0,1,0,1.6-1.6h0a1.6,1.6,0,0,0-1.6,1.6M7.947,24.187a7.37,7.37,0,0,1-2.476-.459,4.144,4.144,0,0,1-1.534-1,4.114,4.114,0,0,1-1-1.533,7.363,7.363,0,0,1-.459-2.476c-.065-1.406-.078-1.828-.078-5.389s.014-3.982.078-5.389A7.418,7.418,0,0,1,2.94,5.469a4.144,4.144,0,0,1,1-1.534,4.109,4.109,0,0,1,1.534-1A7.363,7.363,0,0,1,7.947,2.48C9.353,2.415,9.775,2.4,13.334,2.4s3.982.014,5.389.078a7.418,7.418,0,0,1,2.476.459,4.131,4.131,0,0,1,1.534,1,4.131,4.131,0,0,1,1,1.534,7.363,7.363,0,0,1,.459,2.476c.065,1.407.078,1.828.078,5.389s-.013,3.982-.078,5.389A7.4,7.4,0,0,1,23.73,21.2a4.415,4.415,0,0,1-2.531,2.53,7.363,7.363,0,0,1-2.476.459c-1.406.065-1.828.078-5.389.078s-3.982-.013-5.387-.078M7.837.081A9.777,9.777,0,0,0,4.6.7,6.54,6.54,0,0,0,2.238,2.238,6.515,6.515,0,0,0,.7,4.6,9.78,9.78,0,0,0,.081,7.837C.015,9.258,0,9.713,0,13.334s.015,4.076.081,5.5A9.78,9.78,0,0,0,.7,22.068,6.518,6.518,0,0,0,2.238,24.43,6.556,6.556,0,0,0,4.6,25.968a9.786,9.786,0,0,0,3.237.619c1.422.065,1.876.081,5.5.081s4.076-.015,5.5-.081a9.78,9.78,0,0,0,3.237-.619,6.817,6.817,0,0,0,3.9-3.9,9.753,9.753,0,0,0,.619-3.237c.065-1.423.08-1.876.08-5.5s-.015-4.076-.08-5.5A9.777,9.777,0,0,0,25.968,4.6,6.557,6.557,0,0,0,24.43,2.238,6.525,6.525,0,0,0,22.069.7,9.764,9.764,0,0,0,18.832.081C17.411.016,16.956,0,13.335,0s-4.076.015-5.5.081" transform="translate(0 0)" fill="url(#b)"/></svg>