<svg xmlns="http://www.w3.org/2000/svg" xmlns:xlink="http://www.w3.org/1999/xlink" width="244.966" height="226.173" viewBox="0 0 244.966 226.173"><defs><filter id="a" x="0" y="0" width="244.966" height="226.173" filterUnits="userSpaceOnUse"><feOffset dy="3" input="SourceAlpha"/><feGaussianBlur stdDeviation="25" result="b"/><feFlood flood-color="#d6b4c0"/><feComposite operator="in" in2="b"/><feComposite in="SourceGraphic"/></filter></defs><g transform="matrix(1, 0, 0, 1, 0, 0)" filter="url(#a)"><path d="M86.569,4H11.4a9.384,9.384,0,0,0-9.35,9.4L2,69.776a9.424,9.424,0,0,0,9.4,9.4H86.569a9.424,9.424,0,0,0,9.4-9.4V13.4A9.424,9.424,0,0,0,86.569,4Zm0,18.793L48.983,46.285,11.4,22.793V13.4L48.983,36.888,86.569,13.4Z" transform="translate(73.5 68.5)" fill="#d6b4c0" stroke="#b78597" stroke-width="1"/></g></svg>