<?xml version="1.0" encoding="utf-8"?>
<!-- Generator: Adobe Illustrator 22.1.0, SVG Export Plug-In . SVG Version: 6.00 Build 0)  -->
<svg version="1.1" id="Layer_1" xmlns="http://www.w3.org/2000/svg" xmlns:xlink="http://www.w3.org/1999/xlink" x="0px" y="0px"
	 viewBox="0 0 204.3 48" style="enable-background:new 0 0 204.3 48;" xml:space="preserve">
<style type="text/css">
	.st0{fill:#FFFFFF;}
	.st1{fill:#87BC96;}
</style>
<g>
	<g>
		<path d="M39,0H9C4,0,0,4,0,9v30c0,5,4,9,9,9h30c5,0,9-4,9-9V9C48,4,44,0,39,0z M45.6,38.4c0,4-3.2,7.2-7.2,7.2H9.6
			c-4,0-7.2-3.2-7.2-7.2v-9.8l3.1,0c0.1,0,0.1,0,0.1-0.2s-3.2-6.9-3.2-6.9l0,0V9.6c0-4,3.2-7.2,7.2-7.2h28.8c4,0,7.2,3.2,7.2,7.2
			V38.4z"/>
		<path d="M13.5,21.5c0-0.1,0-0.1-0.1-0.1h-0.8c0,0-0.1,0-0.2,0.1l-3.3,6.7c0,0.1,0,0.2,0.1,0.2s4.9,0,4.9,0c0.1,0,0.4,0,0.2-0.3
			C13.8,27.5,12.8,25.6,13.5,21.5z"/>
		<path d="M10.5,21.5c0,0-6.1,0-6.2,0s-0.2,0.1-0.1,0.2c0,0,2.9,6.7,3,6.8s0.2,0,0.2,0s3.2-6.8,3.2-6.8
			C10.7,21.5,10.6,21.4,10.5,21.5z"/>
		<path d="M19.9,21.6c0-0.1-0.1-0.2-0.2-0.2h-4.5c-0.1,0-0.1,0-0.2,0.1c-0.7,2.2-0.4,4.6,0.7,6.6c0,0,0,0.1,0.1,0.1
			c0.1,0,0.2,0,0.2-0.1L19.9,21.6C19.8,21.7,19.9,21.7,19.9,21.6z"/>
		<path d="M19.4,25.6C19.4,25.6,19.3,25.6,19.4,25.6c-0.2-0.1-0.3-0.1-0.3,0l-2.2,3.9c0,0.1,0,0.1,0,0.2c1.6,1.7,3.8,2.7,6.1,2.7
			c0,0,0.1,0,0.1,0c0.1,0,0.1-0.2,0.1-0.2L19.4,25.6z"/>
		<path d="M30,28h-7.5c0,0-0.1,0-0.1,0c-0.1,0-0.1,0.2-0.1,0.2l2.2,3.9c0,0.1,0.1,0.1,0.2,0.1c2.3-0.5,4.2-2,5.4-4c0,0,0-0.1,0-0.1
			C30.2,28,30.1,28,30,28z"/>
		<path d="M15.9,20.1l7.5,0c0,0,0.1,0,0.1,0c0.1,0,0.1-0.2,0.1-0.2L21.3,16c0-0.1-0.1-0.1-0.2-0.1c-2.3,0.5-4.2,2-5.4,4
			c0,0,0,0.1,0,0.1C15.7,20.1,15.8,20.1,15.9,20.1z"/>
		<path d="M29,18.1c-1.6-1.6-3.8-2.5-6.1-2.4h0c0,0-0.1,0-0.1,0c-0.1,0-0.1,0.2-0.1,0.2c0,0,2.2,3.8,2.3,4c0.1,0.2,0.1,0.2,0.4,0.3
			c0.3,0,4.6,0,4.6,0c0.1,0,0.1,0,0.2,0c0.1,0,0.1-0.1,0-0.2C29.9,19.3,29.5,18.7,29,18.1z"/>
	</g>
	<path id="Path_247_2_" class="st1" d="M37.7,6.6c2,0,3.6,1.6,3.6,3.6s-1.6,3.6-3.6,3.6s-3.6-1.6-3.6-3.6l0,0
		C34.1,8.2,35.7,6.6,37.7,6.6z"/>
	<path id="Path_3935_2_" d="M59.4,31.5v2.1h3.4v1.1h-3.4v2.7h-1.3v-7h5.1v1.1H59.4z M71.2,37.5c-0.7,0-1.3-0.1-1.9-0.5
		c-0.6-0.3-1-0.7-1.4-1.3c-0.3-0.6-0.5-1.2-0.5-1.8c0-0.6,0.2-1.3,0.5-1.8c0.3-0.5,0.8-1,1.4-1.3c0.6-0.3,1.3-0.5,1.9-0.5
		c0.7,0,1.3,0.1,1.9,0.5c0.6,0.3,1,0.7,1.4,1.3c0.3,0.6,0.5,1.2,0.5,1.8c0,0.6-0.2,1.3-0.5,1.8c-0.3,0.5-0.8,1-1.4,1.3
		C72.6,37.3,71.9,37.5,71.2,37.5z M71.2,36.3c0.4,0,0.9-0.1,1.3-0.3c0.4-0.2,0.7-0.5,0.9-0.9c0.2-0.4,0.3-0.8,0.3-1.3
		c0-0.4-0.1-0.9-0.3-1.3c-0.2-0.4-0.5-0.7-0.9-0.9c-0.4-0.2-0.8-0.3-1.3-0.3c-0.4,0-0.9,0.1-1.3,0.3c-0.4,0.2-0.7,0.5-0.9,0.9
		c-0.2,0.4-0.3,0.8-0.3,1.3c0,0.4,0.1,0.9,0.3,1.3c0.2,0.4,0.5,0.7,0.9,0.9C70.4,36.2,70.8,36.3,71.2,36.3z M81.3,31.5H79v-1.1h5.9
		v1.1h-2.3v5.9h-1.3V31.5z M92.7,37.5c-0.7,0-1.3-0.1-1.9-0.5c-0.6-0.3-1-0.7-1.3-1.3c-0.3-0.6-0.5-1.2-0.5-1.8
		c0-0.6,0.2-1.3,0.5-1.8c0.3-0.5,0.8-1,1.3-1.3c0.6-0.3,1.3-0.5,1.9-0.5c0.7,0,1.3,0.1,1.9,0.5c0.6,0.3,1,0.7,1.3,1.3
		c0.3,0.6,0.5,1.2,0.5,1.8c0,0.6-0.2,1.3-0.5,1.8c-0.3,0.5-0.8,1-1.3,1.3C94,37.3,93.3,37.5,92.7,37.5z M92.7,36.3
		c0.4,0,0.9-0.1,1.3-0.3c0.4-0.2,0.7-0.5,0.9-0.9c0.2-0.4,0.3-0.8,0.3-1.3c0-0.4-0.1-0.9-0.3-1.3c-0.2-0.4-0.5-0.7-0.9-0.9
		c-0.4-0.2-0.8-0.3-1.3-0.3c-0.4,0-0.9,0.1-1.3,0.3c-0.4,0.2-0.7,0.5-0.9,0.9c-0.2,0.4-0.3,0.8-0.3,1.3c0,0.4,0.1,0.9,0.3,1.3
		c0.2,0.4,0.5,0.7,0.9,0.9C91.8,36.2,92.2,36.3,92.7,36.3z M107.6,30.4v7h-1.1l-3.9-4.7v4.7h-1.3v-7h1.1l3.9,4.7v-4.7H107.6z
		 M117.6,35.8h-3.5l-0.7,1.6h-1.3l3.2-7h1.3l3.2,7h-1.4L117.6,35.8z M117.2,34.7l-1.3-3.1l-1.3,3.1H117.2z M127.1,30.4
		c0.5,0,1.1,0.1,1.6,0.3c0.4,0.2,0.8,0.5,1,0.9c0.2,0.4,0.4,0.9,0.4,1.3c0,0.5-0.1,0.9-0.4,1.3c-0.3,0.4-0.6,0.7-1,0.9
		c-0.5,0.2-1,0.3-1.6,0.3h-1.6v2h-1.3v-7H127.1z M127,34.3c0.5,0,0.9-0.1,1.3-0.4c0.3-0.3,0.5-0.6,0.4-1c0-0.4-0.1-0.8-0.4-1
		c-0.4-0.3-0.8-0.4-1.3-0.4h-1.5v2.8H127z M139.5,37.4l-1.4-2c-0.1,0-0.2,0-0.3,0h-1.6v2h-1.3v-7h2.9c0.5,0,1.1,0.1,1.6,0.3
		c0.4,0.2,0.8,0.5,1,0.9c0.2,0.4,0.4,0.9,0.4,1.3c0,0.5-0.1,1-0.4,1.4c-0.3,0.4-0.7,0.7-1.1,0.8l1.6,2.3H139.5z M139.5,32.9
		c0-0.4-0.1-0.8-0.4-1c-0.4-0.3-0.8-0.4-1.3-0.4h-1.5v2.8h1.5c0.5,0,0.9-0.1,1.3-0.4C139.3,33.6,139.5,33.3,139.5,32.9z M150.4,35.8
		h-3.5l-0.7,1.6h-1.3l3.2-7h1.3l3.2,7h-1.4L150.4,35.8z M149.9,34.7l-1.3-3.1l-1.3,3.1H149.9z M166.8,30.4l-2.3,7h-1.4l-1.7-5.2
		l-1.8,5.2h-1.4l-2.3-7h1.4l1.7,5.3l1.8-5.3h1.2l1.8,5.3l1.8-5.3H166.8z M175.7,35.8h-3.5l-0.7,1.6h-1.3l3.1-7h1.3l3.2,7h-1.4
		L175.7,35.8z M175.3,34.7l-1.3-3.1l-1.3,3.1H175.3z M182.9,37.4c-0.2,0-0.4-0.1-0.6-0.2c-0.2-0.2-0.2-0.4-0.2-0.6
		c0-0.2,0.1-0.4,0.2-0.6c0.2-0.2,0.4-0.2,0.6-0.2c0.2,0,0.4,0.1,0.6,0.2c0.2,0.2,0.2,0.4,0.2,0.6c0,0.2-0.1,0.4-0.2,0.6
		C183.3,37.4,183.1,37.4,182.9,37.4z M191.5,30.4c0.5,0,1.1,0.1,1.6,0.3c0.4,0.2,0.8,0.5,1,0.9c0.2,0.4,0.4,0.9,0.4,1.3
		c0,0.5-0.1,0.9-0.4,1.3c-0.3,0.4-0.6,0.7-1,0.9c-0.5,0.2-1,0.3-1.6,0.3h-1.6v2h-1.3v-7H191.5z M191.5,34.3c0.5,0,0.9-0.1,1.3-0.4
		c0.3-0.3,0.5-0.6,0.4-1c0-0.4-0.1-0.8-0.4-1c-0.4-0.3-0.8-0.4-1.3-0.4h-1.5v2.8H191.5z M199.4,30.4h1.3v5.9h3.7v1.1h-5V30.4z"/>
	<g>
		<path d="M58.1,25.4V12.5h13v2.3h-10v3.4h5.4v2.4h-5.4v4.9H58.1z"/>
		<path d="M74.6,15.6c0-1.2,0.2-2,0.7-2.4c0.4-0.4,1.3-0.6,2.5-0.6h9.5c1.3,0,2.1,0.2,2.5,0.6c0.4,0.4,0.7,1.2,0.7,2.4v6.8
			c0,1.2-0.2,2-0.7,2.4c-0.4,0.4-1.3,0.6-2.5,0.6h-9.5c-1.3,0-2.1-0.2-2.5-0.6c-0.4-0.4-0.7-1.2-0.7-2.4V15.6z M77.6,23h9.9v-8.2
			h-9.9V23z"/>
		<path d="M102.8,14.8v10.6h-3V14.8h-5.9v-2.3h14.9v2.3H102.8z"/>
		<path d="M112.2,15.6c0-1.2,0.2-2,0.7-2.4c0.4-0.4,1.3-0.6,2.5-0.6h9.5c1.3,0,2.1,0.2,2.5,0.6c0.4,0.4,0.7,1.2,0.7,2.4v6.8
			c0,1.2-0.2,2-0.7,2.4c-0.4,0.4-1.3,0.6-2.5,0.6h-9.5c-1.3,0-2.1-0.2-2.5-0.6c-0.4-0.4-0.7-1.2-0.7-2.4V15.6z M115.2,23h9.9v-8.2
			h-9.9V23z"/>
		<path class="st1" d="M140.4,14.8v10.6h-3V14.8h-5.9v-2.3h14.9v2.3H140.4z"/>
		<path class="st1" d="M150,25.4V12.5h13.2v2.2H153v2.9h6v2.2h-6V23h10.3v2.4H150z"/>
		<path class="st1" d="M179.7,14.8h-8.1V23h8.1v-2.8l3,0.6v1.5c0,1.2-0.2,2-0.7,2.4c-0.4,0.4-1.3,0.6-2.5,0.6h-7.7
			c-1.3,0-2.1-0.2-2.5-0.6c-0.4-0.4-0.7-1.2-0.7-2.4v-6.8c0-1.2,0.2-2,0.7-2.4c0.4-0.4,1.3-0.6,2.5-0.6h7.7c1.2,0,2.1,0.2,2.5,0.6
			c0.4,0.4,0.7,1.2,0.7,2.4v1.2l-3,0.5V14.8z"/>
		<path class="st1" d="M188.9,25.4V12.5h3v5h9.4v-5h3v12.9h-3v-5.6h-9.4v5.6H188.9z"/>
	</g>
</g>
</svg>
