<svg id="Layer_1" data-name="Layer 1" xmlns="http://www.w3.org/2000/svg" viewBox="0 0 204.31 48"><defs><style>.cls-1{fill:#231f20;}.cls-2{fill:#87bc96;}</style></defs><title>Artboard 1 copy 3</title><path class="cls-1" d="M39,0H9A9,9,0,0,0,0,9V39a9,9,0,0,0,9,9H39a9,9,0,0,0,9-9V9A9,9,0,0,0,39,0Zm6.6,38.4a7.21,7.21,0,0,1-7.2,7.2H9.6a7.21,7.21,0,0,1-7.2-7.2V28.6H5.51c.06,0,.14-.05.07-.16s-3.15-6.92-3.15-6.92h0V9.6A7.21,7.21,0,0,1,9.6,2.4H38.4a7.21,7.21,0,0,1,7.2,7.2Z"/><path class="cls-1" d="M13.54,21.54c0-.06,0-.12-.11-.12h-.82a.17.17,0,0,0-.18.12L9.1,28.28c0,.09,0,.22.12.23h4.87c.05,0,.36,0,.19-.28C13.79,27.53,12.82,25.59,13.54,21.54Z"/><path class="cls-1" d="M10.51,21.45H4.3c-.14,0-.16.11-.1.2s2.93,6.66,3,6.8.17,0,.2,0l3.22-6.82C10.68,21.51,10.62,21.44,10.51,21.45Z"/><path class="cls-1" d="M19.85,21.63a.17.17,0,0,0-.17-.17H15.19a.17.17,0,0,0-.17.12,8.33,8.33,0,0,0,.75,6.65.12.12,0,0,0,.06.06.18.18,0,0,0,.24-.06l3.76-6.52A.19.19,0,0,0,19.85,21.63Z"/><path class="cls-1" d="M19.38,25.62a.12.12,0,0,0-.07-.07.17.17,0,0,0-.23.07l-2.24,3.89a.18.18,0,0,0,0,.2A8.29,8.29,0,0,0,23,32.38a.13.13,0,0,0,.09,0,.17.17,0,0,0,.06-.23Z"/><path class="cls-1" d="M30.05,28H22.53a.1.1,0,0,0-.09,0,.17.17,0,0,0-.06.23l2.24,3.89a.18.18,0,0,0,.19.08,8.35,8.35,0,0,0,5.39-4,.2.2,0,0,0,0-.09A.16.16,0,0,0,30.05,28Z"/><path class="cls-1" d="M15.91,20.15h7.51l.09,0a.17.17,0,0,0,.06-.23L21.33,16a.2.2,0,0,0-.19-.08,8.36,8.36,0,0,0-5.37,4,.16.16,0,0,0,0,.09A.18.18,0,0,0,15.91,20.15Z"/><path class="cls-1" d="M29,18.08a7.78,7.78,0,0,0-6.1-2.35h0l-.09,0a.18.18,0,0,0-.06.24s2.16,3.8,2.29,4,.13.25.42.27,4.65,0,4.65,0a.47.47,0,0,0,.17,0,.15.15,0,0,0,.05-.2A7.79,7.79,0,0,0,29,18.08Z"/><path id="Path_247" data-name="Path 247" class="cls-2" d="M37.7,6.59a3.64,3.64,0,1,1-3.64,3.63h0A3.63,3.63,0,0,1,37.7,6.59Z"/><path class="cls-1" d="M58.1,25.43V12.52H71.15v2.26H61.1v3.4h5.43v2.35H61.1v4.9Z"/><path class="cls-1" d="M74.6,15.58a3.36,3.36,0,0,1,.66-2.41,3.7,3.7,0,0,1,2.54-.65h9.5a3.65,3.65,0,0,1,2.53.65,3.36,3.36,0,0,1,.66,2.41v6.8a3.36,3.36,0,0,1-.66,2.41,3.71,3.71,0,0,1-2.53.64H77.8a3.76,3.76,0,0,1-2.54-.64,3.36,3.36,0,0,1-.66-2.41Zm3,7.42h9.9V14.83H77.6Z"/><path class="cls-1" d="M102.82,14.83v10.6h-3V14.83H93.9V12.52h14.87v2.31Z"/><path class="cls-1" d="M112.17,15.58a3.36,3.36,0,0,1,.66-2.41,3.7,3.7,0,0,1,2.54-.65h9.5a3.7,3.7,0,0,1,2.54.65,3.36,3.36,0,0,1,.66,2.41v6.8a3.36,3.36,0,0,1-.66,2.41,3.76,3.76,0,0,1-2.54.64h-9.5a3.76,3.76,0,0,1-2.54-.64,3.36,3.36,0,0,1-.66-2.41Zm3,7.42h9.9V14.83h-9.9Z"/><path class="cls-2" d="M140.4,14.83v10.6h-3V14.83h-5.92V12.52h14.87v2.31Z"/><path class="cls-2" d="M150,25.43V12.52h13.2v2.2H153V17.6h6v2.2h-6V23h10.33v2.43Z"/><path class="cls-2" d="M179.71,14.83h-8.09V23h8.09V20.23l3,.62v1.53a3.31,3.31,0,0,1-.67,2.41,3.74,3.74,0,0,1-2.53.64h-7.7a3.74,3.74,0,0,1-2.54-.64,3.36,3.36,0,0,1-.66-2.41v-6.8a3.36,3.36,0,0,1,.66-2.41,3.68,3.68,0,0,1,2.54-.65h7.7a3.68,3.68,0,0,1,2.53.65,3.31,3.31,0,0,1,.67,2.41V16.8l-3,.47Z"/><path class="cls-2" d="M188.91,25.43V12.52h3v5h9.37v-5h3V25.43h-3V19.87h-9.37v5.56Z"/><path class="cls-1" d="M58.11,36.34v-6.2H64V31H59.15v2h2.77v.83H59.15v2.5Z"/><path class="cls-1" d="M67.8,31.61a1.68,1.68,0,0,1,.3-1.16,1.65,1.65,0,0,1,1.15-.31h4.29a1.62,1.62,0,0,1,1.14.31,1.68,1.68,0,0,1,.3,1.16v3.26a1.67,1.67,0,0,1-.3,1.16,1.62,1.62,0,0,1-1.14.31H69.25A1.65,1.65,0,0,1,68.1,36a1.7,1.7,0,0,1-.3-1.16Zm1,3.86H74V31H68.83Z"/><path class="cls-1" d="M82.65,31v5.35h-1V31H78.79v-.85h6.7V31Z"/><path class="cls-1" d="M89.27,31.61a1.68,1.68,0,0,1,.3-1.16,1.65,1.65,0,0,1,1.15-.31H95a1.62,1.62,0,0,1,1.14.31,1.68,1.68,0,0,1,.3,1.16v3.26a1.67,1.67,0,0,1-.3,1.16,1.62,1.62,0,0,1-1.14.31H90.72A1.65,1.65,0,0,1,89.57,36a1.7,1.7,0,0,1-.3-1.16Zm1,3.86h5.13V31H90.3Z"/><path class="cls-1" d="M101.71,36.34v-6.2h.65L107,34.29a3.42,3.42,0,0,1,.33.33c.12.14.25.28.37.44,0-.19,0-.4-.07-.62s0-.52,0-.9v-3.4h1v6.2H108L103.22,32l-.11-.09a3.32,3.32,0,0,1-.52-.61,5.6,5.6,0,0,1,0,.6c0,.22,0,.47,0,.76v3.65Z"/><path class="cls-1" d="M112.68,36.34l3.39-6.2h1.1l3.44,6.2h-1.13l-.8-1.53H114.5l-.8,1.53ZM114.93,34h3.33l-1.67-3.17Z"/><path class="cls-1" d="M124.74,36.34v-6.2h5a1.47,1.47,0,0,1,1,.29,1.2,1.2,0,0,1,.3.91v1.39a1.22,1.22,0,0,1-.3.91,1.47,1.47,0,0,1-1,.28h-3.95v2.42ZM129.33,31h-3.55v2.16h3.55a.7.7,0,0,0,.52-.15.68.68,0,0,0,.15-.5V31.6a.55.55,0,0,0-.67-.65Z"/><path class="cls-1" d="M135.69,36.34v-6.2h5a1.44,1.44,0,0,1,1,.29,1.17,1.17,0,0,1,.31.91v1.39a1.18,1.18,0,0,1-.31.91,1.44,1.44,0,0,1-1,.28h-.91l2.83,2.42h-1.54l-2.52-2.42h-1.82v2.42ZM140.28,31h-3.55v2.17h3.55a.77.77,0,0,0,.53-.14.72.72,0,0,0,.14-.49v-.91a.7.7,0,0,0-.14-.49A.73.73,0,0,0,140.28,31Z"/><path class="cls-1" d="M146,36.34l3.38-6.2h1.11l3.44,6.2h-1.14L152,34.81h-4.19L147,36.34ZM148.22,34h3.34l-1.67-3.17Z"/><path class="cls-1" d="M158.69,36.34l-2.24-6.2h1l1.68,4.92L161,30.14h.63l1.76,4.92,1.69-4.92H166l-2.24,6.2H163l-1.72-4.69-1.77,4.69Z"/><path class="cls-1" d="M168.54,36.34l3.39-6.2H173l3.44,6.2h-1.13l-.8-1.53h-4.18l-.8,1.53ZM170.79,34h3.33l-1.67-3.17Z"/><path class="cls-1" d="M181.76,35a.49.49,0,0,1,.31.06.41.41,0,0,1,.05.26V36c0,.13,0,.21-.05.25s-.13.06-.31.06H181a.24.24,0,0,1-.19-.06.44.44,0,0,1,0-.25v-.69a.39.39,0,0,1,.06-.26s.14-.06.3-.06Z"/><path class="cls-1" d="M187.44,36.34v-6.2h5a1.44,1.44,0,0,1,1,.29,1.17,1.17,0,0,1,.31.91v1.39a1.18,1.18,0,0,1-.31.91,1.44,1.44,0,0,1-1,.28h-4v2.42ZM192,31h-3.55v2.16H192a.55.55,0,0,0,.67-.65V31.6a.76.76,0,0,0-.14-.51A.73.73,0,0,0,192,31Z"/><path class="cls-1" d="M198.39,36.34v-6.2h1v5.33h4.68v.87Z"/></svg>